<svg xmlns="http://www.w3.org/2000/svg" xmlns:xlink="http://www.w3.org/1999/xlink" viewBox="0 0 54.82 56.09"><defs><style>.a{fill:url(#a);}.b{fill:url(#b);}.c{fill:url(#c);}.d{fill:url(#d);}.e{fill:url(#e);}.f{fill:url(#f);}.g{fill:url(#g);}.h{fill:url(#h);}.i{fill:url(#i);}.j{isolation:isolate;}.k{fill:url(#j);}.l{fill:url(#k);}.m{fill:url(#l);}</style><linearGradient id="a" x1="16.73" y1="48.46" x2="57.66" y2="35.35" gradientUnits="userSpaceOnUse"><stop offset="0" stop-color="#292376"/><stop offset="1" stop-color="#5d278f" stop-opacity="0"/></linearGradient><linearGradient id="b" x1="38.17" y1="47.08" x2="42.84" y2="47.08" gradientUnits="userSpaceOnUse"><stop offset="0" stop-color="#d1985c"/><stop offset="1" stop-color="#534741"/></linearGradient><linearGradient id="c" x1="38.17" y1="43.48" x2="43.13" y2="43.48" gradientUnits="userSpaceOnUse"><stop offset="0" stop-color="#5d278f"/><stop offset="1" stop-color="#292376"/></linearGradient><linearGradient id="d" x1="38.96" y1="46.31" x2="45.87" y2="46.31" xlink:href="#b"/><linearGradient id="e" x1="27.9" y1="53.05" x2="32.56" y2="53.05" xlink:href="#b"/><linearGradient id="f" x1="27.9" y1="49.45" x2="32.85" y2="49.45" xlink:href="#c"/><linearGradient id="g" x1="28.38" y1="52.28" x2="36" y2="52.28" xlink:href="#b"/><linearGradient id="h" x1="-6.19" y1="23.96" x2="32.78" y2="36.95" gradientUnits="userSpaceOnUse"><stop offset="0" stop-color="#fef100"/><stop offset="1" stop-color="#e3d321"/></linearGradient><linearGradient id="i" x1="52.64" y1="41.72" x2="2.52" y2="7.01" xlink:href="#h"/><linearGradient id="j" x1="33.4" y1="38.43" x2="-6.64" y2="22.06" gradientUnits="userSpaceOnUse"><stop offset="0" stop-color="#dbf9ea"/><stop offset="0.97" stop-color="#fff"/></linearGradient><linearGradient id="k" x1="13.57" y1="31.29" x2="19.65" y2="31.29" xlink:href="#b"/><linearGradient id="l" x1="13.93" y1="30.75" x2="21.37" y2="30.75" xlink:href="#b"/></defs><title>Alarm Clock</title><path class="a" d="M50.84,47.94,38.49,55.11a5,5,0,0,1-5,0L9,41l11.81-6.87a29.93,29.93,0,0,1,30,0h0A8,8,0,0,1,50.84,47.94Z"/><path class="b" d="M42.53,47.9c.49,1,.38,2-.25,2.18a1.14,1.14,0,0,1-.89-.16,3,3,0,0,1-1.13-1.29l-2.09-4.28a9.11,9.11,0,0,0,2.48-.3Z"/><path class="c" d="M38.17,44.35l2.48-1.43a9.52,9.52,0,0,0,2.48-.31l-2.48,1.44A9.11,9.11,0,0,1,38.17,44.35Z"/><path class="d" d="M45,46.46l-1.88-3.85-2.48,1.44,1.88,3.85c.45.92.39,1.82-.11,2.12l2.47-1.44C45.4,48.29,45.46,47.39,45,46.46Z"/><path class="e" d="M32.26,53.87c.49,1,.37,2-.25,2.18a1.09,1.09,0,0,1-.89-.15A3,3,0,0,1,30,54.6L27.9,50.33A9.52,9.52,0,0,0,30.38,50Z"/><path class="f" d="M27.9,50.33l2.47-1.44a9.52,9.52,0,0,0,2.48-.31L30.38,50A9.52,9.52,0,0,1,27.9,50.33Z"/><path class="g" d="M34.73,52.43l-1.88-3.85L30.38,50l1.88,3.85c.45.93.39,1.83-.12,2.12l2.48-1.44C35.12,54.26,35.18,53.36,34.73,52.43Z"/><path class="h" d="M9.15,10.31C20,10.31,33,26.79,33,41c0,6.3-2.88,11.75-9.15,11.75C13,52.73,0,36.21,0,22.07,0,15.72,2.9,10.31,9.15,10.31Z"/><path class="i" d="M50.72,30.68C50.72,16.53,37.75,0,26.88,0a8.53,8.53,0,0,0-4.33,1.11L4.81,11.42a8.54,8.54,0,0,1,4.34-1.11C20,10.31,33,26.79,33,41c0,4.16-1.22,8.55-4.81,10.64L45.91,41.31C49.49,39.23,50.72,34.84,50.72,30.68Z"/><g class="j"><path class="k" d="M17.68,17.36c0,.49-.24.78-.6.78a1,1,0,0,1-.49-.15l-.12-.06A2.43,2.43,0,0,1,15.38,16h0a11,11,0,0,0-4.67-1.17c-3.91,0-6.7,2.86-7.11,7.89a2.41,2.41,0,0,1,1.09,1.88h0v.13c0,.49-.25.78-.61.78a1,1,0,0,1-.49-.15c.52,7.47,5.47,16.05,11.71,20.28,0-.49.25-.78.61-.78a1,1,0,0,1,.49.15l.11.07A2.39,2.39,0,0,1,17.6,47h0a10.88,10.88,0,0,0,4.67,1.18c3.91,0,6.7-2.87,7.12-7.89A2.39,2.39,0,0,1,28.3,38.4h0v-.13c0-.49.25-.78.6-.78a1,1,0,0,1,.49.15c-.52-7.47-5.47-16-11.71-20.28"/></g><g class="j"><path class="l" d="M14.75,22.22a2.53,2.53,0,0,1,1.14,2l0,8.38,3.45,6c.45.78.44,1.61,0,1.87a.84.84,0,0,1-.81-.09,2.4,2.4,0,0,1-.82-.85L13.9,33a2.45,2.45,0,0,1-.33-1.13l0-8.93C13.6,22.15,14.11,21.85,14.75,22.22Z"/><path class="m" d="M21,37.57l-3.44-6,0-8.38a2.54,2.54,0,0,0-1.15-2,.81.81,0,0,0-.81-.08l-1.72,1a.83.83,0,0,1,.82.08,2.53,2.53,0,0,1,1.14,2l0,8.38,3.45,6c.45.78.44,1.61,0,1.87l1.72-1C21.48,39.18,21.48,38.35,21,37.57Z"/></g></svg>