<svg xmlns="http://www.w3.org/2000/svg" xmlns:xlink="http://www.w3.org/1999/xlink" viewBox="0 0 43.82 46.07"><defs><style>.a{fill:url(#a);}.b{fill:url(#b);}.c{fill:url(#c);}.d{fill:url(#d);}.e{fill:url(#e);}.f{opacity:0.35;}.g{fill:url(#f);}</style><linearGradient id="a" x1="13.67" y1="40.82" x2="43.54" y2="32.66" gradientUnits="userSpaceOnUse"><stop offset="0" stop-color="#292376"/><stop offset="1" stop-color="#5d278f" stop-opacity="0"/></linearGradient><linearGradient id="b" x1="11.46" y1="29.05" x2="39.01" y2="29.05" gradientUnits="userSpaceOnUse"><stop offset="0" stop-color="#fff"/><stop offset="1" stop-color="#dbf9ea"/></linearGradient><linearGradient id="c" x1="-342.47" y1="-58.64" x2="-308.76" y2="-58.64" gradientTransform="matrix(1, 0, 0, -1, 347.58, -47.31)" gradientUnits="userSpaceOnUse"><stop offset="0" stop-color="#c0dde2"/><stop offset="1" stop-color="#dbf9ea"/></linearGradient><linearGradient id="d" x1="-1737.31" y1="9.49" x2="-1704.32" y2="9.49" gradientTransform="matrix(-1, 0, 0, 1, -1698.88, 0)" gradientUnits="userSpaceOnUse"><stop offset="0" stop-color="#5d278f"/><stop offset="1" stop-color="#292376"/></linearGradient><linearGradient id="e" x1="-1726.28" y1="30.5" x2="-1698.88" y2="30.5" gradientTransform="matrix(-1, 0, 0, 1, -1698.88, 0)" gradientUnits="userSpaceOnUse"><stop offset="0" stop-color="#fff"/><stop offset="1" stop-color="#cbf0dc"/></linearGradient><linearGradient id="f" x1="35.94" y1="12.87" x2="22.23" y2="12.87" gradientUnits="userSpaceOnUse"><stop offset="0" stop-color="#dbf9ea" stop-opacity="0"/><stop offset="0.97" stop-color="#fff"/></linearGradient></defs><title>Apple Watch_2</title><path class="a" d="M37.05,28.91h0a7,7,0,0,0-3.39-.82,6.67,6.67,0,0,0-3.37.82h0L16.64,36.84a3.37,3.37,0,0,0-1.14,1A2.15,2.15,0,0,0,15.11,39a2.45,2.45,0,0,0,1.46,2l5.21,3a7.66,7.66,0,0,0,7,0l13.65-7.93a2.46,2.46,0,0,0,1.43-2,2.76,2.76,0,0,0-1.56-2.22Z"/><path class="b" d="M39.54,20c0,7.34-4.49,16.47-12.23,21.39a.21.21,0,0,0,.09-.17v-.4a.2.2,0,0,0-.2-.21l-.1,0-4.39,2.54a11.16,11.16,0,0,1-5.42,1.7c-3.5,0-5.82-2.65-5.83-7.62.38-.18.8-.4,1.14-.58l2-1.16L17.3,34c5.31-3.11,8.94-9.21,10.29-14.6L37,13.93a4.44,4.44,0,0,0,.87-.7A12.92,12.92,0,0,1,39.54,20Z"/><path class="c" d="M26,.63h0a5.25,5.25,0,0,0-5,0h0L7,8.75H7a3.59,3.59,0,0,0-1.83,3.19v.54h0a3.6,3.6,0,0,0,1.82,3.17h0l11,6.4h0a5.31,5.31,0,0,0,5,0h0m0,0L37,13.93h0a3.61,3.61,0,0,0,1.84-3.2v-.54h0A3.6,3.6,0,0,0,37,7h0L26,.63"/><path class="d" d="M7,8.75H7L21,.63a5.25,5.25,0,0,1,5,0h0L37,7h0a3.6,3.6,0,0,1,1.42,1.53,2.21,2.21,0,0,1-1.24,1.63l-14,8.06a6.79,6.79,0,0,1-6.13,0l-10.41-6a2.11,2.11,0,0,1-1.25-1.77A3.81,3.81,0,0,1,7,8.75Z"/><path class="e" d="M6.6,15.13h0a1.78,1.78,0,0,1,.81-.19,3.41,3.41,0,0,1,1.43.4h0a6.84,6.84,0,0,1,.85.5L15,18.9l0,0a3.18,3.18,0,0,1,2,2.5,1.49,1.49,0,0,1-.32.92c-2.87,3.66-5.3,9-5.3,13.78,0,.38,0,.75.05,1.12,0,5,2.33,7.62,5.82,7.62a11.06,11.06,0,0,0,5.43-1.7l4.39-2.53.1,0a.19.19,0,0,1,.2.19v.41a.18.18,0,0,1-.1.17h0l-.18.12-4.55,2.63a13.24,13.24,0,0,1-6.64,1.93,8.93,8.93,0,0,1-7.28-3.63C4,41.86,0,38.07,0,31.3,0,23.26,5.56,15.48,6.6,15.13Z"/><g class="f"><path class="g" d="M23.23,17.25a1,1,0,0,1-.5-1.87L34.44,8.62a1,1,0,0,1,1,1.74L23.73,17.12A1,1,0,0,1,23.23,17.25Z"/></g></svg>