<svg xmlns="http://www.w3.org/2000/svg" xmlns:xlink="http://www.w3.org/1999/xlink" viewBox="0 0 39.54 46.22"><defs><style>.a{fill:url(#a);}.b{fill:url(#b);}.c{fill:url(#c);}.d{fill:url(#d);}.e{opacity:0.35;}.f{fill:url(#e);}.g{fill:url(#f);}</style><linearGradient id="a" x1="10.02" y1="44.54" x2="34.31" y2="36.81" gradientUnits="userSpaceOnUse"><stop offset="0" stop-color="#292376"/><stop offset="1" stop-color="#5d278f" stop-opacity="0"/></linearGradient><linearGradient id="b" y1="29.05" x2="27.55" y2="29.05" gradientUnits="userSpaceOnUse"><stop offset="0" stop-color="#fff"/><stop offset="1" stop-color="#cbf0dc"/></linearGradient><linearGradient id="c" x1="-1970.3" y1="27.86" x2="-1936.59" y2="27.86" gradientTransform="translate(-1935.88 39.2) rotate(180)" gradientUnits="userSpaceOnUse"><stop offset="0" stop-color="#c0dde2"/><stop offset="1" stop-color="#dbf9ea"/></linearGradient><linearGradient id="d" x1="1.12" y1="9.49" x2="34.1" y2="9.49" gradientUnits="userSpaceOnUse"><stop offset="0" stop-color="#5d278f"/><stop offset="1" stop-color="#292376"/></linearGradient><linearGradient id="e" x1="15.14" y1="14.47" x2="30.3" y2="14.47" gradientUnits="userSpaceOnUse"><stop offset="0.03" stop-color="#fff"/><stop offset="1" stop-color="#dbf9ea" stop-opacity="0"/></linearGradient><linearGradient id="f" x1="12.14" y1="30.5" x2="39.54" y2="30.5" gradientUnits="userSpaceOnUse"><stop offset="0" stop-color="#fff"/><stop offset="1" stop-color="#dbf9ea"/></linearGradient></defs><title>Apple Watch_1</title><path class="a" d="M24.82,33.18h0a7,7,0,0,0-3.38-.82,6.83,6.83,0,0,0-3.38.82h0l-1.87,1.09a3.49,3.49,0,0,0-1.14,1,2.12,2.12,0,0,0-.39,1.18,2.48,2.48,0,0,0,1.46,2l11.94,6.89a7.66,7.66,0,0,0,7,0l1.87-1.09a2.44,2.44,0,0,0,1.43-2,2.8,2.8,0,0,0-1.56-2.23Z"/><path class="b" d="M28.08,37.25c0,7.25-4.94,9.56-11.25,5.92l-4.39-2.53a.2.2,0,0,0-.3.17v.41a.21.21,0,0,0,.1.17C4.49,36.47,0,27.34,0,20a12.92,12.92,0,0,1,1.68-6.76,4.1,4.1,0,0,0,.87.7l7,4.06L12,19.36c1.35,5.39,5,11.5,10.29,14.6l2.69,1.55,2,1.16C27.28,36.85,27.7,37.07,28.08,37.25Z"/><path class="c" d="M16.61,22.05h0a5.31,5.31,0,0,0,5,0h0l11-6.4h0a3.6,3.6,0,0,0,1.82-3.17h0v-.54a3.59,3.59,0,0,0-1.83-3.19h0L18.52.63h0a5.25,5.25,0,0,0-5,0h0m0,0L2.54,7h0A3.59,3.59,0,0,0,.71,10.19h0v.54a3.61,3.61,0,0,0,1.84,3.2h0l14.06,8.12"/><path class="d" d="M32.59,8.75h0L18.52.63a5.25,5.25,0,0,0-5,0h0L2.54,7h0A3.48,3.48,0,0,0,1.12,8.56a2.17,2.17,0,0,0,1.23,1.63l14,8.06a6.81,6.81,0,0,0,6.14,0l10.4-6a2.11,2.11,0,0,0,1.25-1.77A3.75,3.75,0,0,0,32.59,8.75Z"/><g class="e"><path class="f" d="M19.14,17.9a7.09,7.09,0,0,1-3.5-.85,1,1,0,0,1-.37-1.36,1,1,0,0,1,1.37-.37,5.72,5.72,0,0,0,5,0l7.14-4.16a1,1,0,0,1,1.37.37,1,1,0,0,1-.36,1.36L22.65,17A7,7,0,0,1,19.14,17.9Z"/></g><path class="g" d="M32.94,15.13h0a1.78,1.78,0,0,0-.81-.19,3.41,3.41,0,0,0-1.43.4h0a6.84,6.84,0,0,0-.85.5L24.51,18.9l0,0a3.18,3.18,0,0,0-2,2.5,1.49,1.49,0,0,0,.32.92c2.87,3.66,5.3,9,5.3,13.78,0,.38,0,.75-.05,1.12,0,7.25-4.94,9.56-11.25,5.92l-4.39-2.53a.2.2,0,0,0-.3.17v.41a.18.18,0,0,0,.1.17h0l.18.12L17,44.14a13.24,13.24,0,0,0,6.64,1.93,8.93,8.93,0,0,0,7.28-3.63c4.66-.58,8.65-4.37,8.65-11.14C39.54,23.26,34,15.48,32.94,15.13Z"/></svg>