<svg xmlns="http://www.w3.org/2000/svg" xmlns:xlink="http://www.w3.org/1999/xlink" viewBox="0 0 162.11 93.75"><defs><style>.a{fill:url(#a);}.b{fill:url(#b);}.c{isolation:isolate;}.d{fill:url(#c);}.e{fill:url(#d);}.f{fill:url(#e);}.g{fill:url(#f);}.h{fill:url(#g);}.i{fill:url(#h);}.j{fill:url(#i);}.k{fill:#fff;}.l{fill:url(#j);}.m{fill:url(#k);}.n{fill:url(#l);}.o{fill:url(#m);}.p{fill:#4e7fff;opacity:0.08;}</style><linearGradient id="a" x1="40.54" y1="42.42" x2="147.54" y2="-2.92" gradientUnits="userSpaceOnUse"><stop offset="0" stop-color="#292376"/><stop offset="1" stop-color="#5d278f" stop-opacity="0"/></linearGradient><linearGradient id="b" x1="56.36" y1="79.76" x2="163.36" y2="34.42" xlink:href="#a"/><linearGradient id="c" x1="30.25" y1="50.24" x2="137.92" y2="-29.6" gradientUnits="userSpaceOnUse"><stop offset="0" stop-color="#b05e79"/><stop offset="1" stop-color="#fb5a3b"/></linearGradient><linearGradient id="d" x1="39.41" y1="43.33" x2="110.01" y2="43.33" xlink:href="#c"/><linearGradient id="e" x1="39.53" y1="45.96" x2="114.58" y2="45.96" xlink:href="#c"/><linearGradient id="f" x1="46.78" y1="50.94" x2="117.38" y2="50.94" xlink:href="#c"/><linearGradient id="g" x1="0" y1="68.02" x2="83.63" y2="68.02" xlink:href="#c"/><linearGradient id="h" x1="83.46" y1="71.68" x2="154.11" y2="71.68" xlink:href="#c"/><linearGradient id="i" x1="58.15" y1="87.87" x2="165.82" y2="8.04" xlink:href="#c"/><linearGradient id="j" x1="69.94" y1="47.37" x2="53.28" y2="22.04" gradientUnits="userSpaceOnUse"><stop offset="0" stop-color="#dbf9ea"/><stop offset="0.97" stop-color="#fff"/></linearGradient><linearGradient id="k" x1="16.14" y1="44.79" x2="94.14" y2="82.12" xlink:href="#j"/><linearGradient id="l" x1="114.91" y1="78.23" x2="86.02" y2="32.56" xlink:href="#j"/><linearGradient id="m" x1="147.02" y1="54.31" x2="74.64" y2="78.31" xlink:href="#j"/></defs><title>Book</title><polygon class="a" points="8 43.3 78.48 2.34 117.89 22.55 47.41 63.51 8 43.3"/><path class="b" d="M52.23,66.29l70.48-41,39.4,25.29L94.8,89.74a6,6,0,0,1-6.25-.14Z"/><g class="c"><polygon class="d" points="0 42.3 70.48 1.34 109.89 21.55 39.41 62.51 0 42.3"/><polygon class="e" points="39.41 62.51 109.89 21.55 110.01 24.16 39.53 65.12 39.41 62.51"/><polygon class="f" points="39.53 65.12 110.01 24.16 114.58 26.8 44.1 67.76 39.53 65.12"/><polygon class="g" points="46.9 70.28 117.38 29.32 117.26 31.61 46.78 72.57 46.9 70.28"/><polygon class="h" points="44.23 65.29 83.63 90.58 83.46 93.75 46.9 70.28 46.78 72.57 36.84 66.83 36.73 64.41 0.15 45.65 0 42.3 39.41 62.51 39.53 65.12 44.1 67.76 44.23 65.29"/><polygon class="i" points="83.63 90.58 154.11 49.62 153.94 52.79 83.46 93.75 83.63 90.58"/><polygon class="j" points="44.23 65.29 114.71 24.33 154.11 49.62 83.63 90.58 44.23 65.29"/></g><g class="c"><polygon class="k" points="111.17 25.06 111.04 27.52 49.68 63.17 48.82 62.62 47.67 63.29 47.74 61.92 111.17 25.06"/><path class="l" d="M6.76,36.86,70.19,0A73.84,73.84,0,0,1,97.53,8.84c9,5.18,10.89,12.06,11.23,15.78L45.33,61.49C45,57.76,43.07,50.88,34.1,45.71A74,74,0,0,0,6.76,36.86Z"/><path class="m" d="M83.92,81.41,83.66,85,48.82,62.62l-1.08-.7-.07,1.37-1,.56L43,61.75l-.12-2.61L7,40.71l-.23-3.85A73.91,73.91,0,0,1,34.11,45.7c9,5.18,10.88,12.06,11.22,15.78.36-3.32,2.31-8,11.27-2.79C69.51,66.15,83.2,80.64,83.92,81.41Z"/><path class="n" d="M120,21.83c-4.52-2.61-7.26-2.72-8.91-1.76L47.69,56.93c1.65-1,4.39-.85,8.91,1.77,12.91,7.45,26.59,22,27.31,22.71l63.44-36.86C146.63,43.78,132.94,29.29,120,21.83Z"/><polygon class="o" points="83.91 81.41 147.35 44.55 147.09 48.12 83.66 84.98 83.91 81.41"/></g><path class="p" d="M76.27,30.32,50.8,45.12a25.41,25.41,0,0,0-6.69-5.42A72.31,72.31,0,0,0,23.59,32L49.12,17.15a72,72,0,0,1,20.41,7.69A25.33,25.33,0,0,1,76.27,30.32Z"/><path class="p" d="M102.89,63.06,89.43,70.88c-5.22-5.07-14.19-13.2-22.82-18.19-.63-.36-1.22-.68-1.78-.94l13.48-7.84c.54.27,1.11.57,1.72.92C88.68,49.83,97.67,58,102.89,63.06Z"/><path class="p" d="M135.78,43.94,106.69,60.85c-5.24-5.08-14.12-13.09-22.66-18-.72-.42-1.39-.77-2-1.07l29.14-16.93c.59.28,1.22.61,1.89,1C121.63,30.79,130.55,38.86,135.78,43.94Z"/></svg>