<svg xmlns="http://www.w3.org/2000/svg" xmlns:xlink="http://www.w3.org/1999/xlink" viewBox="0 0 39.58 19.66"><defs><style>.a{isolation:isolate;}.b{fill:url(#a);}.c{fill:#e5c59a;}.d{fill:url(#b);}.e{fill:url(#c);}.f{fill:url(#d);}.g{fill:url(#e);}</style><linearGradient id="a" x1="9.68" y1="10.99" x2="39.58" y2="10.99" gradientUnits="userSpaceOnUse"><stop offset="0" stop-color="#292376"/><stop offset="1" stop-color="#5d278f" stop-opacity="0"/></linearGradient><linearGradient id="b" x1="-10.16" y1="19.36" x2="32.09" y2="10.3" gradientUnits="userSpaceOnUse"><stop offset="0" stop-color="#d9e021"/><stop offset="1" stop-color="#f7931e"/></linearGradient><linearGradient id="c" x1="1.86" y1="15.12" x2="42.61" y2="1.7" xlink:href="#b"/><linearGradient id="d" x1="6.05" y1="9.04" x2="50.3" y2="-4.09" xlink:href="#b"/><linearGradient id="e" x1="-17.39" y1="18.76" x2="4.49" y2="17.38" xlink:href="#b"/></defs><title>Crayon_3</title><g class="a"><path class="b" d="M19.5,18h0M36.56,3l-4.12-.64-19,11L9.68,19.66,19.47,18l19-10.95,1.11-1.74L36.56,3"/></g><path class="c" d="M10.22,19.12A11,11,0,0,0,12,17.66a1.25,1.25,0,0,0,0-1.13s.53-2,.14-2.81a8.2,8.2,0,0,0-2-1.94A3.75,3.75,0,0,0,9.44,9.9c-.57-.49-2.92-.26-2.93-.26h0L0,19.3l10.19-.16h0Z"/><path class="d" d="M12.05,16.53l16.6-9.64L26.79,9.5l-16.6,9.64A10.62,10.62,0,0,0,12,17.66,1.25,1.25,0,0,0,12.05,16.53Z"/><path class="e" d="M10.21,11.78l16.6-9.64,1.84,4.75-16.6,9.64s.53-2,.14-2.81A8.2,8.2,0,0,0,10.21,11.78Z"/><path class="f" d="M6.51,9.64,23.11,0l3.7,2.14-16.6,9.64A3.75,3.75,0,0,0,9.44,9.9C8.87,9.41,6.51,9.64,6.51,9.64Z"/><path class="g" d="M4.4,19.23h0a1,1,0,0,0,.42-.95,3.14,3.14,0,0,0-1.45-2.45,1,1,0,0,0-.94-.11L0,19.3Z"/></svg>