<svg xmlns="http://www.w3.org/2000/svg" xmlns:xlink="http://www.w3.org/1999/xlink" viewBox="0 0 63.92 36.31"><defs><style>.a{fill:url(#a);}.b{fill:#e5c59a;}.c{fill:url(#b);}.d{fill:url(#c);}.e{fill:url(#d);}.f{fill:url(#e);}</style><linearGradient id="a" x1="27.78" y1="26.77" x2="48.39" y2="6.58" gradientUnits="userSpaceOnUse"><stop offset="0" stop-color="#292376"/><stop offset="1" stop-color="#5d278f" stop-opacity="0"/></linearGradient><linearGradient id="b" x1="-8.26" y1="2.44" x2="28.37" y2="24.19" gradientUnits="userSpaceOnUse"><stop offset="0" stop-color="#40cb87"/><stop offset="1" stop-color="#008f9d"/></linearGradient><linearGradient id="c" x1="-8.09" y1="2.26" x2="68.54" y2="39.63" xlink:href="#b"/><linearGradient id="d" x1="1.58" y1="5.78" x2="82.96" y2="33.78" xlink:href="#b"/><linearGradient id="e" x1="52.9" y1="33.32" x2="68.9" y2="44.82" gradientUnits="userSpaceOnUse"><stop offset="0" stop-color="#5bd687"/><stop offset="1" stop-color="#008f9d"/></linearGradient></defs><title>Crayon_5</title><path class="a" d="M54.11,33.68h0l0,0m-46-31L5.1,5,6.21,6.77,54.13,33.7l9.79,1.61-3.75-6.37L12.25,2l-4.13.64"/><path class="b" d="M47.71,36.13a10.18,10.18,0,0,1-1.79-1.46,1.22,1.22,0,0,1-.05-1.13s-.53-2-.14-2.81a8.2,8.2,0,0,1,2-1.94,3.85,3.85,0,0,1,.77-1.88c.57-.49,2.92-.26,2.93-.26h0l6.51,9.66-10.19-.16h0Z"/><path class="c" d="M45.87,33.54,0,6.89,1.86,9.5,47.73,36.15a10.27,10.27,0,0,1-1.81-1.48A1.22,1.22,0,0,1,45.87,33.54Z"/><path class="d" d="M47.71,28.79,1.84,2.14,0,6.89,45.87,33.54s-.53-2-.14-2.81A8.2,8.2,0,0,1,47.71,28.79Z"/><path class="e" d="M51.41,26.65,5.54,0,1.84,2.14,47.71,28.79a3.85,3.85,0,0,1,.77-1.88C49.05,26.42,51.41,26.65,51.41,26.65Z"/><path class="f" d="M53.53,36.24h0a1,1,0,0,1-.42-1,3.17,3.17,0,0,1,1.45-2.46,1,1,0,0,1,.95-.1l2.41,3.58Z"/></svg>