<svg xmlns="http://www.w3.org/2000/svg" xmlns:xlink="http://www.w3.org/1999/xlink" viewBox="0 0 59.52 30.83"><defs><style>.a{isolation:isolate;}.b{fill:url(#a);}.c{fill:#e5c59a;}.d{fill:url(#b);}.e{fill:url(#c);}.f{fill:url(#d);}.g{fill:url(#e);}</style><linearGradient id="a" x1="10" y1="16.38" x2="59.52" y2="16.38" gradientUnits="userSpaceOnUse"><stop offset="0" stop-color="#292376"/><stop offset="1" stop-color="#5d278f" stop-opacity="0"/></linearGradient><linearGradient id="b" x1="48.18" y1="11.9" x2="-48.07" y2="47.02" gradientUnits="userSpaceOnUse"><stop offset="0" stop-color="#b05e79"/><stop offset="1" stop-color="#fb5a3b"/></linearGradient><linearGradient id="c" x1="80.17" y1="-3.61" x2="-1.7" y2="26.52" xlink:href="#b"/><linearGradient id="d" x1="97.93" y1="-8.74" x2="8.1" y2="16.93" xlink:href="#b"/><linearGradient id="e" x1="9.3" y1="27.71" x2="-3.95" y2="30.58" xlink:href="#b"/></defs><title>Crayon_2</title><g class="a"><path class="b" d="M19.82,29.2h0M56.5,2.57l-4.13-.64L13.76,24.45,10,30.83l9.79-1.62L58.4,6.7,59.52,5l-3-2.39"/></g><path class="c" d="M10.22,30.64A11,11,0,0,0,12,29.18a1.25,1.25,0,0,0,0-1.13s.53-2,.14-2.81a8.2,8.2,0,0,0-2-1.94,3.75,3.75,0,0,0-.77-1.88c-.57-.49-2.92-.25-2.93-.25h0L0,30.83l10.19-.17h0Z"/><path class="d" d="M12.05,28.05,48.48,6.89,46.62,9.5,10.19,30.66A10.62,10.62,0,0,0,12,29.18,1.25,1.25,0,0,0,12.05,28.05Z"/><path class="e" d="M10.21,23.3,46.64,2.14l1.84,4.75L12.05,28.05s.53-2,.14-2.81A8.2,8.2,0,0,0,10.21,23.3Z"/><path class="f" d="M6.51,21.17,42.94,0l3.7,2.14L10.21,23.3a3.75,3.75,0,0,0-.77-1.88C8.87,20.93,6.51,21.17,6.51,21.17Z"/><path class="g" d="M4.4,30.76h0a1,1,0,0,0,.42-.95,3.14,3.14,0,0,0-1.45-2.45,1,1,0,0,0-.94-.11L0,30.83Z"/></svg>