<svg xmlns="http://www.w3.org/2000/svg" xmlns:xlink="http://www.w3.org/1999/xlink" viewBox="0 0 70.1 36.31"><defs><style>.a{isolation:isolate;}.b{fill:url(#a);}.c{fill:#e5c59a;}.d{fill:url(#b);}.e{fill:url(#c);}.f{fill:url(#d);}.g{fill:#50c5ff;}</style><linearGradient id="a" x1="10" y1="18.78" x2="70.1" y2="18.78" gradientUnits="userSpaceOnUse"><stop offset="0" stop-color="#292376"/><stop offset="1" stop-color="#5d278f" stop-opacity="0"/></linearGradient><linearGradient id="b" x1="-21.87" y1="43.78" x2="55.79" y2="12.87" gradientUnits="userSpaceOnUse"><stop offset="0" stop-color="#1feaec"/><stop offset="1" stop-color="#00a8ff"/></linearGradient><linearGradient id="c" x1="-4.87" y1="34.05" x2="78.88" y2="-0.82" xlink:href="#b"/><linearGradient id="d" x1="-3.29" y1="23.37" x2="105.88" y2="-4.96" xlink:href="#b"/></defs><title>Crayon_1</title><g class="a"><path class="b" d="M19.82,34.68l0,0h0M67.08,1.88,63,1.24,13.76,29.94,10,36.31l9.79-1.61L69,6,70.1,4.27Z"/></g><path class="c" d="M10.22,36.13A11,11,0,0,0,12,34.67a1.24,1.24,0,0,0,0-1.13s.53-2,.14-2.81a8.2,8.2,0,0,0-2-1.94,3.75,3.75,0,0,0-.77-1.88c-.57-.49-2.92-.26-2.93-.26h0L0,36.31l10.19-.16h0Z"/><path class="d" d="M12.05,33.54,57.92,6.89,56.06,9.5,10.19,36.15A10.62,10.62,0,0,0,12,34.67,1.24,1.24,0,0,0,12.05,33.54Z"/><path class="e" d="M10.21,28.79,56.08,2.14l1.84,4.75L12.05,33.54s.53-2,.14-2.81A8.2,8.2,0,0,0,10.21,28.79Z"/><path class="f" d="M6.51,26.65,52.38,0l3.7,2.14L10.21,28.79a3.75,3.75,0,0,0-.77-1.88C8.87,26.42,6.51,26.65,6.51,26.65Z"/><path class="g" d="M4.4,36.24h0a1,1,0,0,0,.42-1,3.17,3.17,0,0,0-1.45-2.46,1,1,0,0,0-.94-.1L0,36.31Z"/></svg>