<svg xmlns="http://www.w3.org/2000/svg" xmlns:xlink="http://www.w3.org/1999/xlink" viewBox="0 0 34.65 19.3"><defs><style>.a{fill:url(#a);}.b{fill:#e5c59a;}.c{fill:url(#b);}.d{fill:url(#c);}.e{fill:url(#d);}.f{fill:url(#e);}</style><linearGradient id="a" x1="15.94" y1="14.84" x2="28.06" y2="2.96" gradientUnits="userSpaceOnUse"><stop offset="0" stop-color="#292376"/><stop offset="1" stop-color="#5d278f" stop-opacity="0"/></linearGradient><linearGradient id="b" x1="-4.66" y1="-5" x2="15.09" y2="20.62" gradientUnits="userSpaceOnUse"><stop offset="0" stop-color="#ed1e79"/><stop offset="1" stop-color="#93278f"/></linearGradient><linearGradient id="c" x1="-7.8" y1="3.04" x2="40.2" y2="20.79" xlink:href="#b"/><linearGradient id="d" x1="1.8" y1="3.05" x2="51.55" y2="16.92" xlink:href="#b"/><linearGradient id="e" x1="23.09" y1="15.03" x2="32.25" y2="25.53" xlink:href="#b"/></defs><title>Crayon_4</title><path class="a" d="M24.83,16.68h0M7.77,1.62,4.75,4,5.86,5.74l19,11,9.79,1.61-3.76-6.37L11.89,1l-4.12.64"/><path class="b" d="M18.43,19.12a11,11,0,0,1-1.79-1.46,1.25,1.25,0,0,1,0-1.13s-.53-2-.14-2.81a8.2,8.2,0,0,1,2-1.94,3.75,3.75,0,0,1,.77-1.88c.57-.49,2.92-.26,2.93-.26h0l6.51,9.66-10.19-.16h0Z"/><path class="c" d="M16.6,16.53,0,6.89,1.86,9.5l16.6,9.64a10.62,10.62,0,0,1-1.82-1.48A1.25,1.25,0,0,1,16.6,16.53Z"/><path class="d" d="M18.44,11.78,1.84,2.14,0,6.89l16.6,9.64s-.53-2-.14-2.81A8.2,8.2,0,0,1,18.44,11.78Z"/><path class="e" d="M22.14,9.64,5.54,0,1.84,2.14l16.6,9.64a3.75,3.75,0,0,1,.77-1.88C19.78,9.41,22.14,9.64,22.14,9.64Z"/><path class="f" d="M24.26,19.23h0a1,1,0,0,1-.42-.95,3.14,3.14,0,0,1,1.45-2.45,1,1,0,0,1,.94-.11l2.42,3.58Z"/></svg>