<svg xmlns="http://www.w3.org/2000/svg" xmlns:xlink="http://www.w3.org/1999/xlink" viewBox="0 0 43.5 40.96"><defs><style>.a{fill:url(#a);}.b{isolation:isolate;}.c{fill:url(#b);}.d{fill:url(#c);}.e{fill:url(#d);}</style><linearGradient id="a" x1="9.79" y1="30.23" x2="47.12" y2="26.73" gradientUnits="userSpaceOnUse"><stop offset="0" stop-color="#292376"/><stop offset="1" stop-color="#5d278f" stop-opacity="0"/></linearGradient><linearGradient id="b" x1="-0.15" y1="9.02" x2="59.68" y2="13.18" gradientUnits="userSpaceOnUse"><stop offset="0" stop-color="#fbcb8e"/><stop offset="1" stop-color="#e76384"/></linearGradient><linearGradient id="c" x1="-18.93" y1="1.36" x2="38.07" y2="31.69" xlink:href="#b"/><linearGradient id="d" x1="-13.5" y1="14.46" x2="51.16" y2="46.63" xlink:href="#b"/></defs><title>Cube</title><path class="a" d="M43.5,29.26,29.34,37.49a7,7,0,0,1-7,0L8.06,29.27,25.72,19Z"/><g class="b"><polygon class="c" points="35.5 10.26 17.83 20.53 0.06 10.27 17.72 0 35.5 10.26"/><polygon class="d" points="35.5 10.26 35.44 30.69 17.78 40.96 17.83 20.53 35.5 10.26"/><polygon class="e" points="17.83 20.53 17.78 40.96 0 30.69 0.06 10.27 17.83 20.53"/></g></svg>