<svg xmlns="http://www.w3.org/2000/svg" xmlns:xlink="http://www.w3.org/1999/xlink" viewBox="0 0 49.66 55.2"><defs><style>.a{fill:url(#a);}.b{fill:url(#b);}.c{fill:url(#c);}.d{isolation:isolate;}.e{fill:url(#d);}.f{fill:url(#e);}.g{fill:url(#f);}.h{fill:url(#g);}.i{fill:url(#h);}</style><linearGradient id="a" x1="18.33" y1="48.19" x2="49.83" y2="37.21" gradientUnits="userSpaceOnUse"><stop offset="0" stop-color="#292376"/><stop offset="1" stop-color="#5d278f" stop-opacity="0"/></linearGradient><linearGradient id="b" x1="7.56" y1="34.4" x2="43.06" y2="31.4" gradientUnits="userSpaceOnUse"><stop offset="0" stop-color="#f5f9ea"/><stop offset="1" stop-color="#c0dde2"/></linearGradient><linearGradient id="c" x1="3.03" y1="34.35" x2="45.7" y2="34.35" gradientUnits="userSpaceOnUse"><stop offset="0" stop-color="#fbb78e"/><stop offset="1" stop-color="#e76384"/></linearGradient><linearGradient id="d" x1="12.16" y1="27.27" x2="2.84" y2="31.82" gradientUnits="userSpaceOnUse"><stop offset="0" stop-color="#25e581"/><stop offset="1" stop-color="#20aa5f"/></linearGradient><linearGradient id="e" x1="0" y1="27.89" x2="11.87" y2="27.89" xlink:href="#d"/><linearGradient id="f" x1="2.02" y1="16.94" x2="46.71" y2="16.94" xlink:href="#d"/><linearGradient id="g" x1="24.38" y1="20.09" x2="24.38" y2="2.01" xlink:href="#d"/><linearGradient id="h" x1="43.21" y1="3.91" x2="19.96" y2="13.91" gradientUnits="userSpaceOnUse"><stop offset="0" stop-color="#dbf9ea"/><stop offset="0.97" stop-color="#fff"/></linearGradient></defs><title>Cup_1</title><path class="a" d="M44.58,36.22c-6.72-3.88-17.61-3.88-24.3,0s-6.65,10.19.08,14.08,17.61,3.89,24.3,0,6.66-10.19-.08-14.08"/><path class="b" d="M44.81,23c0-8.73-12.13-12.23-20.51-12.23S3.91,14.54,3.91,22.53c0,.1,0,.29,0,.32v.07A76.43,76.43,0,0,0,6.21,37.45C8.9,47.75,13.7,55.2,24.13,55.2a19.24,19.24,0,0,0,4.45-.46,13.46,13.46,0,0,0,6.83-3.51c3.41-3.22,5.81-9.15,7-13.67.5-1.78.87-3.5,1.21-5.28A77.65,77.65,0,0,0,44.81,23ZM13.57,51.54h0Z"/><path class="c" d="M44.8,22.1c-.08,1.12-.19,2.17-.32,3.17C44,33,32.28,36.44,24.43,36.44a30.94,30.94,0,0,1-3.86-.25,30.77,30.77,0,0,1-8.4-2.2l-.49-.22-.13-.06C7.49,31.84,4.4,29,4.24,25c-.09-1-.19-2.49-.25-3.13a8.3,8.3,0,0,0-1,3.81A39.36,39.36,0,0,0,5.51,38C8,43.7,16.3,46.79,24.39,46.79c12.82,0,21.31-5.51,21.31-20.8A8.93,8.93,0,0,0,44.8,22.1Z"/><g class="d"><path class="e" d="M14,32.31a12.83,12.83,0,0,1-11.59,0C.81,31.33,0,30.1,0,28.87V27.24c0,1.23.81,2.46,2.44,3.4a13,13,0,0,0,9.43.92Q12.92,32,14,32.31Z"/><path class="f" d="M11.87,31.56a13,13,0,0,1-9.43-.92c-3.23-1.87-3.25-4.89,0-6.76l.26-.14C4.05,27.31,7.61,29.9,11.87,31.56Z"/></g><path class="g" d="M46.71,20.46C46.71,8.72,39.16,0,24.38,0A28.93,28.93,0,0,0,11,3.17C4.14,7.11,2,15.7,2,20.35c0,9.28,13,13.53,22.46,13.53C34.22,33.88,46.71,29.45,46.71,20.46Z"/><path class="h" d="M41.4,10.46c0,6.79-10.2,9.83-17,9.83S7.36,17.19,7.36,10.4,17.56.57,24.32.57,41.4,3.67,41.4,10.46Z"/><path class="i" d="M31.31,8.12A15.1,15.1,0,0,0,17.61,8c-3.83,2.15-3.92,5.7-.19,7.93a15.08,15.08,0,0,0,13.69.14C35,13.9,35,10.35,31.31,8.12Z"/></svg>