<svg xmlns="http://www.w3.org/2000/svg" xmlns:xlink="http://www.w3.org/1999/xlink" viewBox="0 0 46.91 60.2"><defs><style>.a{fill:url(#a);}.b{fill:url(#b);}.c{fill:url(#c);}.d{isolation:isolate;}.e{fill:url(#d);}.f{fill:url(#e);}.g{fill:url(#f);}.h{fill:url(#g);}.i{fill:#fff;}</style><linearGradient id="a" x1="15.59" y1="53.18" x2="47.09" y2="42.21" gradientUnits="userSpaceOnUse"><stop offset="0" stop-color="#292376"/><stop offset="1" stop-color="#5d278f" stop-opacity="0"/></linearGradient><linearGradient id="b" x1="43.71" y1="30.67" x2="2.37" y2="44.17" gradientUnits="userSpaceOnUse"><stop offset="0" stop-color="#534741"/><stop offset="1" stop-color="#d1985c"/></linearGradient><linearGradient id="c" x1="1.01" y1="34.35" x2="43.68" y2="34.35" gradientUnits="userSpaceOnUse"><stop offset="0" stop-color="#fbb03b"/><stop offset="1" stop-color="#fa7419"/></linearGradient><linearGradient id="d" x1="46.01" y1="28.3" x2="33.96" y2="34.18" gradientUnits="userSpaceOnUse"><stop offset="0" stop-color="#fef100"/><stop offset="1" stop-color="#93e04a"/></linearGradient><linearGradient id="e" x1="33.47" y1="28.76" x2="44.97" y2="28.76" xlink:href="#d"/><linearGradient id="f" x1="0" y1="16.94" x2="44.69" y2="16.94" xlink:href="#d"/><linearGradient id="g" x1="22.36" y1="20.09" x2="22.36" y2="2.01" xlink:href="#d"/></defs><title>Cup_2</title><path class="a" d="M41.84,41.22c-6.73-3.89-17.61-3.89-24.3,0s-6.65,10.19.08,14.07,17.61,3.89,24.3,0,6.65-10.18-.08-14.07"/><path class="b" d="M42.79,28c0-8.73-12.13-12.23-20.51-12.23S1.9,19.54,1.9,27.53v.39A76.43,76.43,0,0,0,4.19,42.45c2.69,10.3,7.5,17.75,17.92,17.75a19.18,19.18,0,0,0,4.45-.46,13.46,13.46,0,0,0,6.83-3.51c3.41-3.22,5.81-9.15,7-13.67.5-1.78.87-3.5,1.21-5.28A77.65,77.65,0,0,0,42.79,28ZM11.55,56.54h0Z"/><path class="c" d="M42.78,22.1c-.08,1.12-.19,2.17-.32,3.17C42,33,30.26,36.44,22.41,36.44a31.06,31.06,0,0,1-3.86-.25,30.86,30.86,0,0,1-8.4-2.2l-.49-.22-.13-.06C5.48,31.84,2.38,29,2.23,25c-.1-1-.2-2.49-.26-3.13a8.3,8.3,0,0,0-1,3.81A39.36,39.36,0,0,0,3.49,38C6,43.7,14.28,46.79,22.37,46.79c12.82,0,21.31-5.51,21.31-20.8A8.93,8.93,0,0,0,42.78,22.1Z"/><g class="d"><path class="e" d="M45,27.75v1.63a4.13,4.13,0,0,1-2.4,3.36,12.86,12.86,0,0,1-11.53.07c.82-.2,1.63-.43,2.42-.7a12.87,12.87,0,0,0,9.11-1C44.18,30.18,45,29,45,27.75Z"/><path class="f" d="M42.58,31.11a12.87,12.87,0,0,1-9.11,1c4.37-1.45,8.17-3.82,10-7.1C45.74,26.86,45.44,29.44,42.58,31.11Z"/></g><path class="g" d="M44.69,20.46C44.69,8.72,37.14,0,22.36,0A28.93,28.93,0,0,0,9,3.17C2.12,7.11,0,15.7,0,20.35c0,9.28,13,13.53,22.46,13.53C32.2,33.88,44.69,29.45,44.69,20.46Z"/><path class="h" d="M39.38,10.46c0,6.79-10.2,9.83-17,9.83S5.34,17.19,5.34,10.4,15.54.57,22.3.57,39.38,3.67,39.38,10.46Z"/><path class="i" d="M29.29,8.12A15.1,15.1,0,0,0,15.59,8c-3.83,2.15-3.92,5.7-.19,7.93a15.08,15.08,0,0,0,13.69.14C32.93,13.9,33,10.35,29.29,8.12Z"/></svg>