<svg xmlns="http://www.w3.org/2000/svg" xmlns:xlink="http://www.w3.org/1999/xlink" viewBox="0 0 44.99 43.11"><defs><style>.a{fill:url(#a);}.b{isolation:isolate;}.c{fill:url(#b);}.d{fill:url(#c);}.e{fill:url(#d);}.f{fill:url(#e);}.g{fill:url(#f);}</style><linearGradient id="a" x1="11.92" y1="31.46" x2="43.4" y2="14.92" gradientUnits="userSpaceOnUse"><stop offset="0" stop-color="#292376"/><stop offset="1" stop-color="#5d278f" stop-opacity="0"/></linearGradient><linearGradient id="b" y1="23.68" x2="38.03" y2="23.68" gradientUnits="userSpaceOnUse"><stop offset="0" stop-color="#cfa69b"/><stop offset="1" stop-color="#dbe0be"/></linearGradient><linearGradient id="c" x1="0.04" y1="11" x2="38.03" y2="11" gradientUnits="userSpaceOnUse"><stop offset="0" stop-color="#dbe0be"/><stop offset="1" stop-color="#cfa69b"/></linearGradient><linearGradient id="d" x1="12.04" y1="11" x2="30.36" y2="11" gradientUnits="userSpaceOnUse"><stop offset="0" stop-color="#534741"/><stop offset="1" stop-color="#d1985c"/></linearGradient><linearGradient id="e" x1="23.66" y1="25.54" x2="38.03" y2="25.54" xlink:href="#b"/><linearGradient id="f" x1="21.45" y1="37.76" x2="26.82" y2="32.32" xlink:href="#b"/></defs><title>Duct tape</title><path class="a" d="M25.94,13.06c7.57,0,19.05,3.43,19.05,11s-11.35,11-18.94,11S7,31.61,7,24,18.37,13.06,25.94,13.06ZM20.62,27.18A11,11,0,0,0,26,28.48c3,0,7.6-1.38,7.6-4.4S29,19.64,26,19.64,18.37,21,18.37,24a3.81,3.81,0,0,0,2.25,3.14"/><g class="b"><path class="c" d="M38,11.05l0,14.41C38,33,26.59,36.41,19.05,36.41S0,33,0,25.38v0L0,11v0c0,7.58,11.45,11,19.05,11S38,18.61,38,11.05Z"/><path class="d" d="M19,0C26.55,0,38,3.44,38,11S26.68,22,19.09,22,0,18.55,0,11,11.41,0,19,0ZM13.66,14.13a11.06,11.06,0,0,0,5.4,1.29c3.05,0,7.61-1.37,7.61-4.4S22.06,6.58,19,6.58,11.4,8,11.4,11a3.85,3.85,0,0,0,2.26,3.14"/></g><path class="e" d="M13.66,14.13a11.06,11.06,0,0,0,5.4,1.29c3.05,0,7.61-1.37,7.61-4.4S22.06,6.58,19,6.58,11.4,8,11.4,11a3.85,3.85,0,0,0,2.26,3.14"/><path class="f" d="M31.5,19.36h0l-.13.08h0l-5.54,3.22a3.72,3.72,0,0,0-2.17,3.05V40A3.73,3.73,0,0,1,25.83,37l5.67-3.29v0c3.7-1.8,6.47-4.51,6.48-8.23l0-14.41C38,14.79,35.23,17.57,31.5,19.36Z"/><g class="b"><path class="g" d="M23.66,25.7a3.76,3.76,0,0,0,2.21,3.08V43.11A3.75,3.75,0,0,1,23.66,40Z"/></g></svg>