<svg xmlns="http://www.w3.org/2000/svg" xmlns:xlink="http://www.w3.org/1999/xlink" viewBox="0 0 37.17 22.65"><defs><style>.a{fill:url(#a);}.b{isolation:isolate;}.c{fill:url(#b);}.d{fill:url(#c);}.e{fill:url(#d);}.f{fill:#fff;}.g{fill:url(#e);}</style><linearGradient id="a" x1="7.5" y1="12.37" x2="40.66" y2="9.27" gradientUnits="userSpaceOnUse"><stop offset="0" stop-color="#292376"/><stop offset="1" stop-color="#5d278f" stop-opacity="0"/></linearGradient><linearGradient id="b" x1="17.09" y1="7.8" x2="37.39" y2="12.24" gradientUnits="userSpaceOnUse"><stop offset="0" stop-color="#00a8ff"/><stop offset="1" stop-color="#1feaec"/></linearGradient><linearGradient id="c" x1="14.89" y1="7.14" x2="28.89" y2="1.64" gradientUnits="userSpaceOnUse"><stop offset="0" stop-color="#1feaec"/><stop offset="1" stop-color="#00a8ff"/></linearGradient><linearGradient id="d" x1="5.49" y1="13.97" x2="33.25" y2="19.2" gradientUnits="userSpaceOnUse"><stop offset="0" stop-color="#e76384"/><stop offset="1" stop-color="#fbb78e"/></linearGradient><linearGradient id="e" x1="-0.22" y1="19.47" x2="20.88" y2="8.24" gradientUnits="userSpaceOnUse"><stop offset="0" stop-color="#fbb78e"/><stop offset="1" stop-color="#e76384"/></linearGradient></defs><title>Eraser</title><path class="a" d="M37.17,8.62l-17,9.88a7,7,0,0,1-7,0l-6.91-4L26.75,2.61Z"/><g class="b"><path class="c" d="M30,5c0,1-1.27,3.22-2.39,5.78-.58,1.32-1,1.35-5.75,4.08v-6c.27-.15,7.37-4.35,7.82-4.35h0C29.88,4.58,30,4.75,30,5Z"/><path class="d" d="M29.74,4.55l-.08,0h0c-.45,0-7.55,4.2-7.82,4.35l-7.75-4.5L21.47.1A.65.65,0,0,1,21.8,0C22,0,29.62,4.47,29.74,4.55Z"/></g><g class="b"><path class="e" d="M21.83,8.87v6L8.55,22.54a.78.78,0,0,1-.34.11c-.27,0-.42-.23-.42-.55a1.29,1.29,0,0,1,.13-.55l2.27-5.19C10.78,15,10.51,15.41,21.83,8.87Z"/><path class="f" d="M29.74,4.55a.11.11,0,0,0-.08,0l.07,0Z"/><path class="g" d="M14.08,4.37l7.75,4.5c-11.32,6.54-11,6.13-11.64,7.49L7.92,21.55a1.49,1.49,0,0,0-.13.57.51.51,0,0,0,.21.46c-6.71-3.89-8-4.41-8-5A1.48,1.48,0,0,1,.17,17C3.58,9.24.9,12,14.08,4.37Z"/><path class="f" d="M29.74,4.55a.11.11,0,0,0-.08,0l.07,0Z"/></g></svg>