<svg xmlns="http://www.w3.org/2000/svg" xmlns:xlink="http://www.w3.org/1999/xlink" viewBox="0 0 109.06 67.18"><defs><style>.a{fill:url(#a);}.b{fill:url(#b);}.c{fill:url(#c);}.d{fill:url(#d);}.e{fill:url(#e);}.f{fill:url(#f);}.g{fill:url(#g);}.h{fill:url(#h);}.i{fill:url(#i);}.j{fill:url(#j);}.k{fill:url(#k);}.l,.m{opacity:0.75;}.l{fill:url(#l);}.m{fill:url(#m);}.n{fill:url(#n);}.o{fill:url(#o);}</style><linearGradient id="a" x1="-43.08" y1="85.73" x2="77.58" y2="-2.27" gradientUnits="userSpaceOnUse"><stop offset="0" stop-color="#292376"/><stop offset="1" stop-color="#5d278f" stop-opacity="0"/></linearGradient><linearGradient id="b" x1="-17.78" y1="120.43" x2="102.89" y2="32.43" xlink:href="#a"/><linearGradient id="c" x1="5.26" y1="13.35" x2="57.59" y2="13.35" gradientUnits="userSpaceOnUse"><stop offset="0" stop-color="#292376"/><stop offset="1" stop-color="#5d278f"/></linearGradient><linearGradient id="d" x1="3.15" y1="12.72" x2="57.18" y2="12.72" gradientUnits="userSpaceOnUse"><stop offset="0" stop-color="#5d278f"/><stop offset="1" stop-color="#292376"/></linearGradient><linearGradient id="e" x1="54.76" y1="42.07" x2="107.09" y2="42.07" xlink:href="#c"/><linearGradient id="f" x1="52.65" y1="41.44" x2="106.68" y2="41.44" xlink:href="#d"/><linearGradient id="g" x1="3.94" y1="37.11" x2="18.74" y2="37.11" gradientUnits="userSpaceOnUse"><stop offset="0" stop-color="#e76c6b"/><stop offset="1" stop-color="#fbb78e"/></linearGradient><linearGradient id="h" x1="19.4" y1="45.34" x2="26.18" y2="45.34" xlink:href="#g"/><linearGradient id="i" x1="31.24" y1="53.73" x2="47.13" y2="53.73" xlink:href="#g"/><linearGradient id="j" x1="0.43" y1="43.74" x2="54.86" y2="43.74" xlink:href="#g"/><linearGradient id="k" y1="44.79" x2="52.05" y2="44.79" gradientUnits="userSpaceOnUse"><stop offset="0" stop-color="#fbb78e"/><stop offset="1" stop-color="#e76c6b"/></linearGradient><linearGradient id="l" x1="5.15" y1="36.72" x2="20.75" y2="36.72" xlink:href="#d"/><linearGradient id="m" x1="32.48" y1="53.38" x2="48.08" y2="53.38" xlink:href="#d"/><linearGradient id="n" x1="32.48" y1="48.84" x2="46.44" y2="48.84" gradientUnits="userSpaceOnUse"><stop offset="0" stop-color="#fff" stop-opacity="0.25"/><stop offset="1" stop-color="#dbf9ea" stop-opacity="0"/></linearGradient><linearGradient id="o" x1="5.15" y1="33.05" x2="19.13" y2="33.05" xlink:href="#n"/></defs><title>Glasses</title><path class="a" d="M19.94,49a1.53,1.53,0,0,1-.71-.18c-1.86-1-7.94-4.57-7.88-8.15a3.7,3.7,0,0,1,2.39-3.27L54.55,13.7c6.63-3.85,6.59-5.39,6.59-5.4-.24-.5-2.64-1.13-5.07-1.13a1.5,1.5,0,0,1,0-3c1.65,0,7.13.24,8,3.36.67,2.47-1.8,5.17-8,8.77L15.16,40.06c-.43.22-.8.48-.81.68,0,1.19,3.31,3.84,6.31,5.46A1.5,1.5,0,0,1,19.94,49Z"/><path class="b" d="M49.76,66.55h-.21a1.5,1.5,0,1,1,.05-3c.07,0,7.36.09,12.28-2.82L98.82,39.26c2.62-1.52,4.31-2.61,5.39-3.38-.46.09-.94.2-1.4.32a1.5,1.5,0,0,1-.77-2.9c5.95-1.58,6.58-.06,6.85.59.68,1.63-.43,3.24-8.56,8L63.4,63.32C58.19,66.4,51.11,66.55,49.76,66.55Z"/><path class="c" d="M6.06,21.89,39.16,5.1l.71-.34,5.54-2.47a10.79,10.79,0,0,1,5-1l6.44.38c.84,0,1,1.3.29,2.46l-.43.68a5.7,5.7,0,0,1-1.92,2A2.13,2.13,0,0,1,52.93,7L47.7,4.81a1.59,1.59,0,0,0-1.4.2,3.9,3.9,0,0,0-.5.36L41,9.48A13.9,13.9,0,0,1,38.82,11a9.85,9.85,0,0,1-1.12.57L5.89,25.43c-.37.16-.64-.06-.63-.5l.1-1.87A1.56,1.56,0,0,1,6.06,21.89Z"/><path class="d" d="M55.07.49a.71.71,0,0,0-.33-.1L48.31,0a10.65,10.65,0,0,0-5,1L37.75,3.53,37,3.87,3.94,20.66a1.52,1.52,0,0,0-.69,1.17l-.1,1.87a.51.51,0,0,0,.21.5l2.11,1.23a.51.51,0,0,1-.21-.5l.1-1.87a1.56,1.56,0,0,1,.7-1.17L39.16,5.1l.71-.34,5.54-2.47a10.79,10.79,0,0,1,5-1l6.44.38a.67.67,0,0,1,.32.1Z"/><path class="e" d="M55.56,50.61l33.1-16.79.71-.34L94.91,31a10.65,10.65,0,0,1,5-1l6.44.37c.84.05,1,1.3.28,2.46l-.42.68a5.63,5.63,0,0,1-1.93,2,2.13,2.13,0,0,1-1.87.27l-5.23-2.22a1.57,1.57,0,0,0-1.39.2,3.9,3.9,0,0,0-.5.36L90.46,38.2a13.9,13.9,0,0,1-2.14,1.53,10.76,10.76,0,0,1-1.12.57L55.39,54.15c-.37.16-.65-.06-.63-.5l.1-1.87A1.56,1.56,0,0,1,55.56,50.61Z"/><path class="f" d="M104.56,29.21a.67.67,0,0,0-.32-.1l-6.43-.37a10.65,10.65,0,0,0-5,1l-5.55,2.47-.71.34L53.44,49.38a1.56,1.56,0,0,0-.7,1.17l-.09,1.87a.51.51,0,0,0,.21.5L55,54.15a.51.51,0,0,1-.21-.5l.1-1.87a1.56,1.56,0,0,1,.7-1.17l33.1-16.79.71-.34L94.91,31a10.65,10.65,0,0,1,5-1l6.44.37a.67.67,0,0,1,.32.1Z"/><path class="g" d="M18.74,44.76l-.22.26a5.71,5.71,0,0,1-.61.56,4.12,4.12,0,0,1-2.44.77,7.82,7.82,0,0,1-3.29-1,17.91,17.91,0,0,1-5.59-4.24,8.51,8.51,0,0,1-1.54-3,37.85,37.85,0,0,1-1.11-8.08v-.14c0-.09,0-.2,0-.3A1.91,1.91,0,0,1,4,29.31a1.67,1.67,0,0,1,1.77-1.44,4.34,4.34,0,0,1,1,.14,3,3,0,0,0,0,.43,38,38,0,0,0,1.11,8.09,8.3,8.3,0,0,0,1.54,3c1,1.26,2.24,2.32,5.58,4.25A6.22,6.22,0,0,0,18.74,44.76Z"/><path class="h" d="M26,41.51l.17.1c-.71,2.54-2,5-4,6.11L19.4,49.36c2.08-1.21,3.36-3.79,4.06-6.45a2.92,2.92,0,0,1,.4-.9l.12-.16a1.59,1.59,0,0,1,.13-.13l.05,0s.05-.05.08-.06l.14-.09.09-.05a1.84,1.84,0,0,1,1.46,0Z"/><path class="i" d="M47.13,61.79c-.06.19-.13.38-.2.55a2,2,0,0,1-.8.95,1.61,1.61,0,0,1-.76.22c-1,.08-2.24-.26-5.58-2.19s-5.95-5.6-7.58-11c-.37-1.22-1-2.41-.88-3.54a2.42,2.42,0,0,1,.77-2.7A1.65,1.65,0,0,1,33.46,44l.63.2a4.65,4.65,0,0,0,.1.95,34.63,34.63,0,0,0,.87,3.48c1.63,5.35,4.17,9.06,7.55,11A17.82,17.82,0,0,0,47.13,61.79Z"/><path class="j" d="M53.73,49.53A86.65,86.65,0,0,0,45,43.08c-8-4.61-13-5.45-16.12-7.23s-8.12-6.76-16.1-11.37A56.59,56.59,0,0,0,4,20.79a.86.86,0,0,0-.71,0L.43,22.47a.88.88,0,0,1,.72,0,56.92,56.92,0,0,1,8.77,3.69c8,4.6,13,9.59,16.1,11.37s8.14,2.62,16.13,7.23a87.58,87.58,0,0,1,8.76,6.44A3.22,3.22,0,0,1,52,53.42v1.13a1.2,1.2,0,0,1-.14.59l-.77.45A.4.4,0,0,0,51,56a14.94,14.94,0,0,1-.08,1.88,24.28,24.28,0,0,1-1.31,7.22,3.49,3.49,0,0,1-1.44,1.7L51,65.12a3.51,3.51,0,0,0,1.44-1.71,24.28,24.28,0,0,0,1.31-7.22,14.86,14.86,0,0,0,.08-1.88.51.51,0,0,1,0-.13l.63-.36a1,1,0,0,0,.42-.91V51.78A3.18,3.18,0,0,0,53.73,49.53Z"/><path class="k" d="M52,53.42a3.22,3.22,0,0,0-1.13-2.26,85.12,85.12,0,0,0-8.77-6.44c-8-4.61-13-5.45-16.12-7.23S17.9,30.72,9.92,26.12C9,25.6,1.39,22,.47,22.44h0a1,1,0,0,0-.43.92,3.81,3.81,0,0,0,.75,3,1.24,1.24,0,0,1,.3.75A44.19,44.19,0,0,0,2.4,37.81a15.18,15.18,0,0,0,2.8,5.37c1.68,2,3.43,3.42,7,5.45,2.31,1.34,4.93,2.07,7.24.73a2.9,2.9,0,0,0,.29-.19l.17-.12L20,49c1.73-1.32,2.83-3.65,3.47-6.05a2.7,2.7,0,0,1,.4-.9.67.67,0,0,1,.09-.14h0a1.19,1.19,0,0,1,.2-.19l.16-.13.05,0h0a1.83,1.83,0,0,1,1.55,0l.08,0a7.12,7.12,0,0,1,2.54,4.33c1.28,6.44,4.52,14.87,11.23,18.74,3.53,2,5.28,2.69,7,2.59a3.08,3.08,0,0,0,1.88-.78,3.66,3.66,0,0,0,.94-1.34C50.93,61.81,51,55.8,51,55.8a.07.07,0,0,1,0-.06c0-.06.11-.16.14-.16a1.89,1.89,0,0,0,.47-.13h0l.09-.06c.07-.11.08,0,.18-.25h0l0,0A6.52,6.52,0,0,0,52,53.42ZM17.91,45.58c-3.47,2.49-9.6-2.35-11.32-4.45a8.34,8.34,0,0,1-1.54-3c-.78-2.81-1.29-7.85-1-8.85.37-1.76,2.06-1.67,3.71-1,3.69,1.46,9.23,5.73,10.86,7.11a6.3,6.3,0,0,1,2.17,4.41A9.64,9.64,0,0,1,17.91,45.58Zm29,16.76a1.77,1.77,0,0,1-1.56,1.17H45.1c-1,0-2.25-.43-5.31-2.2-6.23-3.59-8.52-13.41-8.52-15.38,0-1.48.88-2.31,2.19-1.9A42.28,42.28,0,0,1,42.13,48c2.33,1.33,5.95,4.17,5.95,7.42A23.78,23.78,0,0,1,46.93,62.34Z"/><path class="l" d="M18.58,35.44C17,34.06,11.41,29.79,7.72,28.33a4.72,4.72,0,0,0-2.2-.44,2.06,2.06,0,0,0-.3.72c-.25,1,.26,6,1,8.85a8.34,8.34,0,0,0,1.54,3c1.57,1.92,6.81,6.1,10.35,4.92a9.8,9.8,0,0,0,2.6-5.5A6.3,6.3,0,0,0,18.58,35.44Z"/><path class="m" d="M42.13,48A42.28,42.28,0,0,0,33.46,44a1.8,1.8,0,0,0-.67-.09,2.49,2.49,0,0,0-.31,1.29c0,2,2.29,11.79,8.52,15.38,3.06,1.77,4.32,2.2,5.31,2.2h.27l.09,0a2,2,0,0,0,.26-.45,23.78,23.78,0,0,0,1.15-6.94C48.08,52.15,44.46,49.31,42.13,48Z"/><path class="n" d="M35.06,53.73s3.28-2.1,11.38-2.24A16.13,16.13,0,0,0,42.13,48,42.28,42.28,0,0,0,33.46,44a1.8,1.8,0,0,0-.67-.09,2.49,2.49,0,0,0-.31,1.29A24.57,24.57,0,0,0,35.06,53.73Z"/><path class="o" d="M19.13,36a5.6,5.6,0,0,0-.55-.54C17,34.06,11.41,29.79,7.72,28.33a4.72,4.72,0,0,0-2.2-.44,2.06,2.06,0,0,0-.3.72c-.25,1,.26,6,1,8.85.07.26.16.51.25.76C6.52,38.22,10.08,35.9,19.13,36Z"/></svg>