<svg xmlns="http://www.w3.org/2000/svg" xmlns:xlink="http://www.w3.org/1999/xlink" viewBox="0 0 137.53 188.95"><defs><style>.a{fill:url(#a);}.b{fill:url(#b);}.c{fill:url(#c);}.d{fill:url(#e);}.e{fill:#e6e6e6;}.f{fill:url(#f);}.g{fill:url(#g);}.h{fill:url(#h);}.i{fill:url(#i);}.j{fill:url(#j);}.k{fill:url(#k);}.l{isolation:isolate;}.m{fill:url(#l);}.n{fill:url(#n);}</style><linearGradient id="a" x1="123.7" y1="160.52" x2="30.7" y2="174.02" gradientUnits="userSpaceOnUse"><stop offset="0" stop-color="#5d278f" stop-opacity="0"/><stop offset="1" stop-color="#292376"/></linearGradient><linearGradient id="b" x1="71.4" y1="120.14" x2="55.67" y2="115.22" gradientUnits="userSpaceOnUse"><stop offset="0" stop-color="#dbf9ea"/><stop offset="1" stop-color="#c0dde2"/></linearGradient><linearGradient id="c" x1="39.98" y1="126.53" x2="39.93" y2="126.51" xlink:href="#b"/><linearGradient id="e" x1="37.77" y1="112.78" x2="80.82" y2="112.78" xlink:href="#b"/><linearGradient id="f" x1="28.07" y1="155.59" x2="108.4" y2="155.59" xlink:href="#b"/><linearGradient id="g" x1="109.61" y1="157.36" x2="66.94" y2="144.03" xlink:href="#b"/><linearGradient id="h" x1="-1071.22" y1="269.96" x2="-900.89" y2="101.29" gradientTransform="matrix(-1, 0, 0, 1, -824.43, 0)" xlink:href="#b"/><linearGradient id="i" x1="3.4" y1="138.61" x2="137.53" y2="138.61" xlink:href="#b"/><linearGradient id="j" x1="17.97" y1="55.25" x2="122.66" y2="115.69" gradientUnits="userSpaceOnUse"><stop offset="0" stop-color="#5d278f"/><stop offset="1" stop-color="#292376"/></linearGradient><linearGradient id="k" x1="-10.39" y1="75.28" x2="139.86" y2="89.78" gradientUnits="userSpaceOnUse"><stop offset="0" stop-color="#25e581"/><stop offset="1" stop-color="#c4e138"/></linearGradient><linearGradient id="l" x1="66.95" y1="140.38" x2="73.45" y2="140.38" xlink:href="#j"/><linearGradient id="n" x1="17.23" y1="56.52" x2="78.65" y2="91.98" gradientUnits="userSpaceOnUse"><stop offset="0" stop-color="#fff" stop-opacity="0.25"/><stop offset="1" stop-color="#dbf9ea" stop-opacity="0"/></linearGradient></defs><title>iMac_2</title><path class="a" d="M83.6,147.35l31.12,14.73a2.93,2.93,0,0,1,.23,5.18L82.33,186.35a11.72,11.72,0,0,1-12.86-.67L45.28,168a2,2,0,0,1,.17-3.34l28.83-16.87A10,10,0,0,1,83.6,147.35Z"/><path class="b" d="M76.14,105.46a1.92,1.92,0,0,0-.83,1.06,1.48,1.48,0,0,0-.1.27l-1.08,4-29.5,17.14-2.07-1.19a2.59,2.59,0,0,0-2.56-.27l4.14-2.42Z"/><path class="c" d="M40,126.48h0a.55.55,0,0,0-.14.09Z"/><path class="b" d="M76.14,105.46a1.92,1.92,0,0,0-.83,1.06,1.48,1.48,0,0,0-.1.27l-1.08,4-29.5,17.14-2.07-1.19a2.59,2.59,0,0,0-2.56-.27l4.14-2.42Z"/><path class="d" d="M73.94,101.66c1.24-.72,3-.6,4.81.47l2.07,1.19-36.17,21-2.07-1.2c-1.85-1.07-3.57-1.19-4.81-.47Z"/><polygon class="e" points="80.81 103.32 80.8 106.91 74.14 110.79 44.63 127.93 44.65 124.34 75.31 106.52 80.81 103.32"/><path class="f" d="M108.4,162.14v3.56a2.92,2.92,0,0,1-1.46,2.56L74.32,187.34a11.72,11.72,0,0,1-12.86-.66L34.81,167.15A14.15,14.15,0,0,1,29.46,161a11.17,11.17,0,0,1-1.16-7.42L36,125.15a3.87,3.87,0,0,1,1.8-2.5l.26-.13.27-.1a2.8,2.8,0,0,1,.5-.12.75.75,0,0,1,.26,0,2.86,2.86,0,0,1,.42,0,6,6,0,0,1,3,.92l1.57.9.5.29v3.59l-2.07-1.19a2.59,2.59,0,0,0-2.56-.27.55.55,0,0,0-.14.09.83.83,0,0,0-.16.12.55.55,0,0,0-.1.11.77.77,0,0,0-.15.16.38.38,0,0,0-.08.11,1.1,1.1,0,0,0-.15.26l0,.06a3.58,3.58,0,0,0-.15.43l-7.71,28.47a6,6,0,0,0,.61,4,7.67,7.67,0,0,0,2.89,3.3l2.72,2L61.46,183.1a11.74,11.74,0,0,0,12.86.66l32.62-19.09A2.89,2.89,0,0,0,108.4,162.14Z"/><path class="g" d="M31.32,156.28,39,127.81a2.11,2.11,0,0,1,.93-1.32l36.18-21a2.06,2.06,0,0,0-.94,1.32l-7.72,28.47a6,6,0,0,0,.62,4,7.25,7.25,0,0,0,2.72,3.26l35.89,17a2.94,2.94,0,0,1,.23,5.19L74.33,183.76a11.74,11.74,0,0,1-12.86-.66L34.82,163.57a7.59,7.59,0,0,1-2.88-3.3A6,6,0,0,1,31.32,156.28Z"/><path class="h" d="M7.07,70.19,127,1c2-1.13,3.76-1.24,5-.49l3.17,1.84c-1.29-.75-3.08-.65-5.05.49L10.24,72A15.56,15.56,0,0,0,3.17,84.28l.28,97.89c0,2.24.8,3.81,2.07,4.55l-3.16-1.84c-1.28-.74-2.06-2.31-2.07-4.54L0,82.44A15.59,15.59,0,0,1,7.07,70.19Z"/><path class="i" d="M3.4,167.42l.05,14.76c0,4.49,3.21,6.31,7.12,4L130.46,117a15.61,15.61,0,0,0,7.07-12.24L137.48,90,3.4,167.42"/><path class="j" d="M10.23,72A15.62,15.62,0,0,0,3.16,84.28l.24,83.14L137.48,90l-.24-83.14c0-4.5-3.2-6.32-7.11-4.06L10.23,72"/><polyline class="k" points="130.87 85.22 130.66 11.12 9.76 80.92 9.97 155.01 130.87 85.22"/><g class="l"><path class="m" d="M70.67,136.1A8.19,8.19,0,0,0,67,142.53c0,2.37,1.68,3.32,3.74,2.13a7.72,7.72,0,0,0,2.76-3c-1,.13-1.71-.57-1.71-1.88a6,6,0,0,1,1.7-3.84,2.53,2.53,0,0,0-2.77.18"/></g><path class="c" d="M40,126.48h0a.55.55,0,0,0-.14.09Z"/><path class="n" d="M130.13,2.81,10.23,72A15.62,15.62,0,0,0,3.16,84.28l.24,83.14Z"/></svg>