<svg xmlns="http://www.w3.org/2000/svg" xmlns:xlink="http://www.w3.org/1999/xlink" viewBox="0 0 137.53 188.95"><defs><style>.a{fill:url(#a);}.b{fill:url(#b);}.c{fill:url(#d);}.d{fill:#e6e6e6;}.e{fill:url(#e);}.f{fill:url(#f);}.g{isolation:isolate;}.h{fill:url(#g);}.i{fill:url(#h);}.j{fill:url(#i);}.k{fill:url(#j);}.l{fill:url(#k);}.m{fill:url(#l);}</style><linearGradient id="a" x1="117.12" y1="160.43" x2="33.65" y2="172.85" gradientUnits="userSpaceOnUse"><stop offset="0" stop-color="#5d278f" stop-opacity="0"/><stop offset="1" stop-color="#292376"/></linearGradient><linearGradient id="b" x1="64.32" y1="118.81" x2="83.35" y2="115.67" gradientUnits="userSpaceOnUse"><stop offset="0" stop-color="#dbf9ea"/><stop offset="1" stop-color="#c0dde2"/></linearGradient><linearGradient id="d" x1="56.71" y1="112.78" x2="99.77" y2="112.78" xlink:href="#b"/><linearGradient id="e" x1="109.37" y1="153.83" x2="10.87" y2="160.58" xlink:href="#b"/><linearGradient id="f" x1="29.08" y1="151.46" x2="74.58" y2="143.96" xlink:href="#b"/><linearGradient id="g" x1="133.59" y1="93.36" x2="-24.21" y2="93.36" xlink:href="#b"/><linearGradient id="h" x1="0" y1="138.61" x2="134.13" y2="138.61" xlink:href="#b"/><linearGradient id="i" x1="-16.79" y1="34.56" x2="153.93" y2="133.13" gradientUnits="userSpaceOnUse"><stop offset="0" stop-color="#5d278f"/><stop offset="1" stop-color="#292376"/></linearGradient><linearGradient id="j" x1="-9.19" y1="38.95" x2="143.63" y2="127.18" gradientUnits="userSpaceOnUse"><stop offset="0" stop-color="#25e581"/><stop offset="1" stop-color="#c4e138"/></linearGradient><linearGradient id="k" x1="62.81" y1="140.37" x2="69.31" y2="140.37" xlink:href="#i"/><linearGradient id="l" x1="-16.79" y1="34.56" x2="107.5" y2="106.33" gradientUnits="userSpaceOnUse"><stop offset="0" stop-color="#fff" stop-opacity="0.25"/><stop offset="1" stop-color="#dbf9ea" stop-opacity="0"/></linearGradient></defs><title>iMac_1</title><path class="a" d="M69.93,146.76,38.81,161.49a2.94,2.94,0,0,0-.23,5.19l32.63,19.08a11.73,11.73,0,0,0,12.85-.66l24.19-17.73a2,2,0,0,0-.17-3.34L79.26,147.17A10,10,0,0,0,69.93,146.76Z" transform="translate(0)"/><path class="b" d="M93.38,124.06l4.13,2.4a2.6,2.6,0,0,0-2.54.28l-2.07,1.19L63.4,110.79l-1.08-4a1.48,1.48,0,0,0-.1-.27,1.92,1.92,0,0,0-.83-1.06Z" transform="translate(0)"/><path class="b" d="M93.38,124.06l4.13,2.4a2.6,2.6,0,0,0-2.54.28l-2.07,1.19L63.4,110.79l-1.08-4a1.48,1.48,0,0,0-.1-.27,1.92,1.92,0,0,0-.83-1.06Z" transform="translate(0)"/><path class="c" d="M63.59,101.66c-1.24-.72-3-.6-4.81.47l-2.07,1.19,36.17,21,2.07-1.2c1.85-1.07,3.57-1.19,4.82-.47Z" transform="translate(0)"/><polygon class="d" points="92.9 127.93 63.4 110.79 56.73 106.91 56.72 103.32 62.22 106.52 92.89 124.34 92.9 127.93"/><path class="e" d="M108.07,161a14.23,14.23,0,0,1-5.35,6.13L76.07,186.68a11.7,11.7,0,0,1-12.86.66L30.59,168.26a2.92,2.92,0,0,1-1.46-2.56v-3.56a2.91,2.91,0,0,0,1.46,2.54l32.62,19.08a11.74,11.74,0,0,0,12.86-.66L100,165.56l2.72-2a7.67,7.67,0,0,0,2.89-3.3,6,6,0,0,0,.61-4L98.5,127.81a2.41,2.41,0,0,0-.16-.43,1.65,1.65,0,0,0-.18-.32.44.44,0,0,0-.08-.11.73.73,0,0,0-.14-.16.94.94,0,0,0-.1-.1,1.31,1.31,0,0,0-.28-.2l0,0a2.6,2.6,0,0,0-2.54.28l-2.07,1.19v-3.59l.49-.28,1.58-.91a6.21,6.21,0,0,1,3-.92,2.86,2.86,0,0,1,.42,0,1.09,1.09,0,0,1,.26,0,2.8,2.8,0,0,1,.5.12l.27.1.26.13a3.9,3.9,0,0,1,1.8,2.5l7.72,28.46A11.17,11.17,0,0,1,108.07,161Z" transform="translate(0)"/><path class="f" d="M106.21,156.28l-7.72-28.47a2.11,2.11,0,0,0-.93-1.32l-36.17-21a2.09,2.09,0,0,1,.93,1.32L70,135.26a6,6,0,0,1-.62,4,7.25,7.25,0,0,1-2.72,3.26l-35.89,17a2.94,2.94,0,0,0-.23,5.19l32.63,19.08a11.73,11.73,0,0,0,12.85-.66l26.65-19.53a7.59,7.59,0,0,0,2.88-3.3A6,6,0,0,0,106.21,156.28Z" transform="translate(0)"/><g class="g"><path class="h" d="M130.46,70.19,10.57,1C8.6-.16,6.81-.27,5.52.48L2.36,2.32c1.29-.75,3.07-.65,5.05.49L127.3,72a15.59,15.59,0,0,1,7.07,12.25l-.29,97.89c0,2.24-.8,3.81-2.07,4.55l3.16-1.84c1.28-.74,2.07-2.31,2.07-4.54l.29-97.9A15.59,15.59,0,0,0,130.46,70.19Z" transform="translate(0)"/></g><path class="i" d="M134.13,167.42.05,90l0,14.76A15.61,15.61,0,0,0,7.07,117L127,186.23c3.92,2.26,7.11.44,7.12-4l0-14.76" transform="translate(0)"/><path class="j" d="M127.3,72,7.41,2.81C3.49.55.3,2.37.29,6.87L.05,90l134.08,77.41.24-83.14A15.62,15.62,0,0,0,127.3,72" transform="translate(0)"/><polyline class="k" points="6.67 85.22 6.88 11.12 127.77 80.92 127.56 155.01 6.67 85.22"/><path class="l" d="M66.55,136.1c-2.06-1.19-3.73-.25-3.74,2.12a8.19,8.19,0,0,0,3.72,6.43,2.53,2.53,0,0,0,2.77.18A5.93,5.93,0,0,1,67.6,141c0-1.29.72-2,1.71-1.87a7.62,7.62,0,0,0-2.76-3" transform="translate(0)"/><path class="m" d="M127.3,72,7.41,2.81C3.49.55.3,2.37.29,6.87L.05,90Z" transform="translate(0)"/></svg>