<svg xmlns="http://www.w3.org/2000/svg" xmlns:xlink="http://www.w3.org/1999/xlink" viewBox="0 0 155.73 89.8"><defs><style>.cls-1{fill:url(#linear-gradient);}.cls-2{fill:url(#linear-gradient-2);}.cls-3{fill:url(#linear-gradient-3);}.cls-4{fill:url(#linear-gradient-4);}.cls-5{fill:url(#linear-gradient-5);}.cls-6{fill:url(#linear-gradient-6);}</style><linearGradient id="linear-gradient" x1="3.86" y1="56.34" x2="179.26" y2="30.99" gradientUnits="userSpaceOnUse"><stop offset="0" stop-color="#292376"/><stop offset="1" stop-color="#5d278f" stop-opacity="0"/></linearGradient><linearGradient id="linear-gradient-2" x1="0.01" y1="43.27" x2="149.34" y2="43.27" gradientUnits="userSpaceOnUse"><stop offset="0" stop-color="#5d278f"/><stop offset="1" stop-color="#292376"/></linearGradient><linearGradient id="linear-gradient-3" y1="63.53" x2="149.34" y2="63.53" gradientUnits="userSpaceOnUse"><stop offset="0" stop-color="#dbf9ea"/><stop offset="1" stop-color="#c0dde2"/></linearGradient><linearGradient id="linear-gradient-4" x1="4.5" y1="43.27" x2="144.84" y2="43.27" gradientUnits="userSpaceOnUse"><stop offset="0" stop-color="#25e581"/><stop offset="1" stop-color="#c4e138"/></linearGradient><linearGradient id="linear-gradient-5" x1="162.09" y1="165.24" x2="167.6" y2="162.4" gradientTransform="matrix(-0.5, -0.87, -0.87, 0.5, 261.24, 126.38)" gradientUnits="userSpaceOnUse"><stop offset="0" stop-color="#dbf9ea"/><stop offset="0.97" stop-color="#fff"/></linearGradient><linearGradient id="linear-gradient-6" x1="2.07" y1="23.32" x2="135.45" y2="23.32" gradientUnits="userSpaceOnUse"><stop offset="0" stop-color="#fff" stop-opacity="0.25"/><stop offset="1" stop-color="#dbf9ea" stop-opacity="0"/></linearGradient></defs><title>iPad Pro_2</title><g id="Layer_2" data-name="Layer 2"><g id="Items"><g id="iPad_Pro" data-name="iPad Pro"><path class="cls-1" d="M94.25,2.22h0a7.21,7.21,0,0,0-3.44-.83,6.87,6.87,0,0,0-3.43.84h0l-81,47.08a3.38,3.38,0,0,0-1.16,1,2.07,2.07,0,0,0-.39,1.19A2.51,2.51,0,0,0,6.29,53.6L66.18,88.35a7.77,7.77,0,0,0,7.07,0l81-47.09a2.47,2.47,0,0,0,1.46-2A2.85,2.85,0,0,0,154.15,37Z"/><path class="cls-2" d="M147.57,34.79c2.35,1.36,2.36,3.56,0,4.91L68.76,85.52a9.35,9.35,0,0,1-8.48,0L1.78,51.75c-2.35-1.36-2.36-3.56,0-4.92L80.59,1a9.32,9.32,0,0,1,8.48,0Z"/><path class="cls-3" d="M147.59,39.7,68.76,85.52a9.35,9.35,0,0,1-8.48,0L1.78,51.75A3,3,0,0,1,0,49.27v3.26A3,3,0,0,0,1.77,55l58.5,33.77a9.35,9.35,0,0,0,8.48,0L147.58,43a3,3,0,0,0,1.75-2.43V37.27A3,3,0,0,1,147.59,39.7Z"/><path class="cls-4" d="M84.82,3h0a5.76,5.76,0,0,1,2.75.62l56.77,32.77a1,1,0,0,1,0,1.73L67.25,82.92a6.34,6.34,0,0,1-5.47,0L5,50.14a1,1,0,0,1,0-1.73L82.09,3.61A5.77,5.77,0,0,1,84.82,3"/><path class="cls-5" d="M32.36,63.38a.47.47,0,0,0,.19.18l8.3,4.8a.49.49,0,0,0,.68-.18.51.51,0,0,0-.18-.69l-8.3-4.79a.51.51,0,0,0-.69.18A.52.52,0,0,0,32.36,63.38Z"/><path class="cls-6" d="M135.45,27.8,89.07,1a9.32,9.32,0,0,0-8.48,0L2.07,46.64Z"/></g></g></g></svg>