<svg xmlns="http://www.w3.org/2000/svg" xmlns:xlink="http://www.w3.org/1999/xlink" viewBox="0 0 156.04 89.8"><defs><style>.cls-1{fill:url(#linear-gradient);}.cls-2{fill:url(#linear-gradient-2);}.cls-3{fill:url(#linear-gradient-3);}.cls-4{fill:url(#linear-gradient-4);}.cls-5{fill:url(#linear-gradient-5);}.cls-6{fill:url(#linear-gradient-6);}</style><linearGradient id="linear-gradient" x1="-16.08" y1="34.93" x2="162.6" y2="54.09" gradientUnits="userSpaceOnUse"><stop offset="0" stop-color="#292376"/><stop offset="1" stop-color="#5d278f" stop-opacity="0"/></linearGradient><linearGradient id="linear-gradient-2" x1="22.44" y1="45.16" x2="-155.24" y2="42.19" gradientTransform="matrix(-1, 0, 0, 1, -16.24, 0)" gradientUnits="userSpaceOnUse"><stop offset="0" stop-color="#5d278f"/><stop offset="1" stop-color="#292376"/></linearGradient><linearGradient id="linear-gradient-3" x1="-1.87" y1="52.86" x2="167.23" y2="76.64" gradientUnits="userSpaceOnUse"><stop offset="0" stop-color="#dbf9ea"/><stop offset="1" stop-color="#c0dde2"/></linearGradient><linearGradient id="linear-gradient-4" x1="-3.79" y1="39.34" x2="145.93" y2="46.83" gradientUnits="userSpaceOnUse"><stop offset="0" stop-color="#25e581"/><stop offset="1" stop-color="#c4e138"/></linearGradient><linearGradient id="linear-gradient-5" x1="321.55" y1="352.9" x2="327.06" y2="350.06" gradientTransform="matrix(0.5, -0.87, 0.87, 0.5, -354.16, 170.65)" gradientUnits="userSpaceOnUse"><stop offset="0" stop-color="#dbf9ea"/><stop offset="0.97" stop-color="#fff"/></linearGradient><linearGradient id="linear-gradient-6" x1="9.2" y1="15.16" x2="166.08" y2="28.37" gradientUnits="userSpaceOnUse"><stop offset="0" stop-color="#fff" stop-opacity="0.25"/><stop offset="1" stop-color="#dbf9ea" stop-opacity="0"/></linearGradient></defs><title>iPad Pro_1</title><g id="Layer_2" data-name="Layer 2"><g id="Items"><g id="iPad_Pro" data-name="iPad Pro"><path class="cls-1" d="M66.6,2.22h0A7.18,7.18,0,0,1,70,1.39a6.8,6.8,0,0,1,3.43.84h0l81,47.08a3.38,3.38,0,0,1,1.16,1,2.18,2.18,0,0,1,.4,1.19,2.51,2.51,0,0,1-1.48,2.07L94.66,88.35a7.77,7.77,0,0,1-7.07,0l-81-47.09a2.46,2.46,0,0,1-1.45-2A2.81,2.81,0,0,1,6.7,37Z"/><path class="cls-2" d="M1.77,34.79c-2.35,1.36-2.36,3.56,0,4.91L80.58,85.52a9.35,9.35,0,0,0,8.48,0l58.49-33.77c2.36-1.36,2.37-3.56,0-4.92L68.75,1a9.32,9.32,0,0,0-8.48,0Z"/><path class="cls-3" d="M1.74,39.7,80.58,85.52a9.35,9.35,0,0,0,8.48,0l58.49-33.77a3,3,0,0,0,1.78-2.48v3.26A3,3,0,0,1,147.56,55L89.07,88.78a9.37,9.37,0,0,1-8.49,0L1.75,43A3,3,0,0,1,0,40.53V37.27A3,3,0,0,0,1.74,39.7Z"/><path class="cls-4" d="M64.52,3a5.73,5.73,0,0,1,2.72.61l77.1,44.8a1,1,0,0,1,0,1.73L87.56,82.92a6.36,6.36,0,0,1-5.48,0L5,38.12a1,1,0,0,1,0-1.73L61.77,3.62A5.76,5.76,0,0,1,64.52,3h0"/><path class="cls-5" d="M117,63.38a.45.45,0,0,1-.18.18l-8.31,4.8a.5.5,0,0,1-.68-.18.51.51,0,0,1,.18-.69l8.31-4.79a.49.49,0,0,1,.68.18A.47.47,0,0,1,117,63.38Z"/><path class="cls-6" d="M13.89,27.8,60.27,1a9.32,9.32,0,0,1,8.48,0l78.51,45.62Z"/></g></g></g></svg>