<svg xmlns="http://www.w3.org/2000/svg" xmlns:xlink="http://www.w3.org/1999/xlink" viewBox="0 0 38.73 81.4"><defs><style>.a{fill:url(#a);}.b{fill:url(#b);}.c{fill:url(#c);}.d{fill:url(#d);}.e{fill:url(#e);}</style><linearGradient id="a" x1="5" y1="73.26" x2="38.73" y2="73.26" gradientUnits="userSpaceOnUse"><stop offset="0" stop-color="#292376"/><stop offset="1" stop-color="#5d278f" stop-opacity="0"/></linearGradient><linearGradient id="b" x1="-1276.44" y1="-760.19" x2="-1194.63" y2="-760.19" gradientTransform="matrix(0.5, -0.87, 0.87, 0.5, 1290.72, -649.21)" gradientUnits="userSpaceOnUse"><stop offset="0" stop-color="#dbf9ea"/><stop offset="1" stop-color="#c0dde2"/></linearGradient><linearGradient id="c" x1="-1191.41" y1="-765.49" x2="-1281.81" y2="-750.65" gradientTransform="matrix(0.5, -0.87, 0.87, 0.5, 1290.72, -649.21)" gradientUnits="userSpaceOnUse"><stop offset="0" stop-color="#dbf9ea"/><stop offset="0.97" stop-color="#fff"/></linearGradient><linearGradient id="d" x1="120.8" y1="56.41" x2="195.99" y2="17.71" gradientTransform="matrix(-1, 0, 0, 1, 166.32, 0)" gradientUnits="userSpaceOnUse"><stop offset="0" stop-color="#25e581"/><stop offset="1" stop-color="#c4e138"/></linearGradient><linearGradient id="e" x1="147" y1="71.14" x2="152.51" y2="68.31" gradientTransform="matrix(-1, 0, 0, 1, 166.32, 0)" xlink:href="#c"/></defs><title>iPhone_3</title><path class="a" d="M38.23,66.27l.5,1.86L20.07,78.91a10,10,0,0,1-5,1.34H6a1,1,0,0,1-.5-1.86L24.16,67.61a10,10,0,0,1,5-1.34Z"/><path class="b" d="M29.06,4.28l.15,59A7.71,7.71,0,0,1,25.36,70L6.57,80.82a4.28,4.28,0,0,1-6.42-3.7c0-17.66-.1-41.33-.15-59a7.71,7.71,0,0,1,3.85-6.7L22.63.58A4.29,4.29,0,0,1,29.06,4.28Z"/><path class="c" d="M25.44,2.82a2.77,2.77,0,0,1,2.7-.24,2.44,2.44,0,0,1,1,2.24l.15,59.1a7.66,7.66,0,0,1-3.48,6L7,80.83a2.45,2.45,0,0,1-2.48.24,2.06,2.06,0,0,1-.83-.92,3.37,3.37,0,0,1-.31-1.5L3.21,19.56h0a6.77,6.77,0,0,1,1-3.34,7,7,0,0,1,2.4-2.52h0Z"/><path class="d" d="M7.43,15.39,9.32,14.3c.33-.19.59,0,.59.34v.3c0,.86.62,1.21,1.38.77L21.54,9.79A3,3,0,0,0,22.9,7.44v-.3a1.3,1.3,0,0,1,.59-1L25.38,5c1.32-.76,2.39-.16,2.39,1.36l.15,57a5.24,5.24,0,0,1-2.38,4.12l-18,10.37c-1.32.76-2.38.15-2.39-1.37l-.14-57a5.24,5.24,0,0,1,2.38-4.12"/><path class="e" d="M12.41,72.62a.47.47,0,0,0,.25-.07L21,67.76a.5.5,0,1,0-.5-.87l-8.3,4.8a.5.5,0,0,0,.25.93Z"/></svg>