<svg xmlns="http://www.w3.org/2000/svg" xmlns:xlink="http://www.w3.org/1999/xlink" viewBox="0 0 37.22 81.75"><defs><style>.a{fill:url(#a);}.b{fill:url(#b);}.c{fill:url(#c);}.d{fill:url(#d);}.e{fill:url(#e);}.f{fill:url(#f);}</style><linearGradient id="a" x1="15.99" y1="74.49" x2="31.83" y2="64.32" gradientUnits="userSpaceOnUse"><stop offset="0" stop-color="#292376"/><stop offset="1" stop-color="#5d278f" stop-opacity="0"/></linearGradient><linearGradient id="b" x1="-1337.67" y1="-716.44" x2="-1255.86" y2="-716.44" gradientTransform="matrix(-0.5, -0.87, -0.87, 0.5, -1254.13, -724.11)" gradientUnits="userSpaceOnUse"><stop offset="0" stop-color="#dbf9ea"/><stop offset="1" stop-color="#c0dde2"/></linearGradient><linearGradient id="c" x1="-1252.64" y1="-721.74" x2="-1343.04" y2="-706.91" gradientTransform="matrix(-0.5, -0.87, -0.87, 0.5, -1254.13, -724.11)" gradientUnits="userSpaceOnUse"><stop offset="0" stop-color="#dbf9ea"/><stop offset="0.97" stop-color="#fff"/></linearGradient><linearGradient id="d" x1="-16.2" y1="56.41" x2="35.88" y2="29.61" gradientUnits="userSpaceOnUse"><stop offset="0" stop-color="#25e581"/><stop offset="1" stop-color="#c4e138"/></linearGradient><linearGradient id="e" x1="10" y1="71.14" x2="15.51" y2="68.31" gradientTransform="matrix(1, 0, 0, 1, 0, 0)" xlink:href="#c"/><linearGradient id="f" x1="-13.22" y1="35.21" x2="26.8" y2="14.62" gradientUnits="userSpaceOnUse"><stop offset="0" stop-color="#fff" stop-opacity="0.25"/><stop offset="1" stop-color="#dbf9ea" stop-opacity="0"/></linearGradient></defs><title>iPhone_4</title><path class="a" d="M36.72,77.92l-5,2.89a7,7,0,0,1-7,0L2.64,68.05a1,1,0,0,1,0-1.73l5-2.88a7,7,0,0,1,7,0L36.72,76.19A1,1,0,0,1,36.72,77.92Z"/><path class="b" d="M.25,4.28l-.15,59A7.72,7.72,0,0,0,4,70L22.74,80.82a4.29,4.29,0,0,0,6.43-3.7c0-17.66.09-41.33.14-59a7.71,7.71,0,0,0-3.85-6.7L6.68.58A4.29,4.29,0,0,0,.25,4.28Z"/><path class="c" d="M3.88,2.82a2.79,2.79,0,0,0-2.71-.24,2.44,2.44,0,0,0-1,2.24L0,63.92a7.65,7.65,0,0,0,3.49,6L22.33,80.83a2.47,2.47,0,0,0,2.49.24,2,2,0,0,0,.82-.92,3.22,3.22,0,0,0,.31-1.5l.15-59.09h0a6.71,6.71,0,0,0-1-3.34,7,7,0,0,0-2.41-2.52h0Z"/><path class="d" d="M21.89,15.39,20,14.3c-.33-.19-.6,0-.6.34v.3c0,.86-.62,1.21-1.37.77L7.78,9.79A3,3,0,0,1,6.41,7.44v-.3a1.31,1.31,0,0,0-.6-1L3.93,5c-1.32-.76-2.39-.16-2.39,1.36l-.14,57a5.23,5.23,0,0,0,2.37,4.12l18,10.37c1.32.76,2.39.15,2.39-1.37l.14-57a5.2,5.2,0,0,0-2.37-4.12"/><path class="e" d="M16.91,72.62a.45.45,0,0,1-.25-.07L8.35,67.76a.51.51,0,0,1-.18-.69.49.49,0,0,1,.68-.18l8.31,4.8a.5.5,0,0,1-.25.93Z"/><path class="f" d="M21.89,15.39,20,14.3c-.33-.19-.6,0-.6.34v.3c0,.86-.62,1.21-1.37.77L7.78,9.79A3,3,0,0,1,6.41,7.44v-.3a1.31,1.31,0,0,0-.6-1L3.93,5c-1.32-.76-2.39-.16-2.39,1.36L1.45,43.6l22.77-5.25,0-18.84A5.2,5.2,0,0,0,21.89,15.39Z"/></svg>