<svg xmlns="http://www.w3.org/2000/svg" xmlns:xlink="http://www.w3.org/1999/xlink" viewBox="0 0 87.82 49.38"><defs><style>.a{fill:url(#a);}.b{fill:url(#b);}.c{fill:url(#c);}.d{fill:url(#d);}.e{fill:url(#e);}</style><linearGradient id="a" x1="9.16" y1="30.44" x2="91.36" y2="18.83" gradientUnits="userSpaceOnUse"><stop offset="0" stop-color="#292376"/><stop offset="1" stop-color="#5d278f" stop-opacity="0"/></linearGradient><linearGradient id="b" x1="-97.92" y1="24.75" x2="-17.09" y2="24.75" gradientTransform="matrix(-1, 0, 0, 1, -17.09, 0)" gradientUnits="userSpaceOnUse"><stop offset="0" stop-color="#c0dde2"/><stop offset="1" stop-color="#dbf9ea"/></linearGradient><linearGradient id="c" x1="-13.84" y1="15.7" x2="-103.05" y2="30.34" gradientTransform="matrix(-1, 0, 0, 1, -17.09, 0)" gradientUnits="userSpaceOnUse"><stop offset="0" stop-color="#fff"/><stop offset="1" stop-color="#dbf9ea"/></linearGradient><linearGradient id="d" x1="14.06" y1="59.64" x2="66.13" y2="32.84" gradientTransform="translate(-19.41 37.46) rotate(-60)" gradientUnits="userSpaceOnUse"><stop offset="0" stop-color="#25e581"/><stop offset="1" stop-color="#c4e138"/></linearGradient><linearGradient id="e" x1="40.26" y1="74.37" x2="45.76" y2="71.54" gradientTransform="translate(-19.41 37.46) rotate(-60)" gradientUnits="userSpaceOnUse"><stop offset="0" stop-color="#dbf9ea"/><stop offset="0.97" stop-color="#fff"/></linearGradient></defs><title>iPhone_1</title><path class="a" d="M29.6,2.85h0A7,7,0,0,1,33,2a6.72,6.72,0,0,1,3.38.82h0L86.29,31.79a3.57,3.57,0,0,1,1.15,1A2.11,2.11,0,0,1,87.82,34a2.48,2.48,0,0,1-1.45,2L67.52,46.9a7.69,7.69,0,0,1-7,0L10.63,18A2.46,2.46,0,0,1,9.2,16a2.76,2.76,0,0,1,1.56-2.22Z"/><path class="b" d="M2.13,19.42l50,28.91a7.7,7.7,0,0,0,7.74,0L78.68,37.5a4.28,4.28,0,0,0,0-7.42c-15.27-8.87-34.76-20-50-28.91a7.71,7.71,0,0,0-7.73,0L2.14,12A4.29,4.29,0,0,0,2.13,19.42Z"/><path class="c" d="M21.4.82h0A7.09,7.09,0,0,1,24.78,0a6.83,6.83,0,0,1,3.38.82h0l50.13,29a3.57,3.57,0,0,1,1.15,1A2.11,2.11,0,0,1,79.82,32a2.48,2.48,0,0,1-1.45,2L59.52,44.9a7.69,7.69,0,0,1-7,0l-50.13-29a2.44,2.44,0,0,1-1.43-2A2.8,2.8,0,0,1,2.56,11.7Z"/><path class="d" d="M22.8,1.61l-1.89,1.1c-.33.19-.33.49,0,.68l.26.15c.75.44.74,1.14,0,1.58L10.89,11a3,3,0,0,1-2.71,0l-.26-.15a1.31,1.31,0,0,0-1.19,0L4.84,12c-1.32.76-1.32,2,0,2.75L54.15,43.37a5.23,5.23,0,0,0,4.75,0L76.86,33c1.32-.76,1.32-2,0-2.76L27.55,1.61a5.23,5.23,0,0,0-4.75,0"/><path class="e" d="M69.87,34.54a.41.41,0,0,1-.19.18l-8.3,4.8a.49.49,0,0,1-.68-.18.51.51,0,0,1,.18-.69l8.3-4.79a.51.51,0,0,1,.69.18A.52.52,0,0,1,69.87,34.54Z"/></svg>