<svg xmlns="http://www.w3.org/2000/svg" xmlns:xlink="http://www.w3.org/1999/xlink" viewBox="0 0 88.9 49.38"><defs><style>.a{fill:url(#a);}.b{fill:url(#b);}.c{fill:url(#c);}.d{fill:url(#d);}.e{fill:url(#e);}.f{fill:url(#f);}</style><linearGradient id="a" x1="4.68" y1="36.71" x2="104.02" y2="9.59" gradientUnits="userSpaceOnUse"><stop offset="0" stop-color="#292376"/><stop offset="1" stop-color="#5d278f" stop-opacity="0"/></linearGradient><linearGradient id="b" x1="-104.92" y1="24.75" x2="-24.09" y2="24.75" gradientTransform="translate(104.92)" gradientUnits="userSpaceOnUse"><stop offset="0" stop-color="#c0dde2"/><stop offset="1" stop-color="#dbf9ea"/></linearGradient><linearGradient id="c" x1="-20.84" y1="15.7" x2="-110.05" y2="30.34" gradientTransform="translate(104.92)" gradientUnits="userSpaceOnUse"><stop offset="0" stop-color="#fff"/><stop offset="1" stop-color="#dbf9ea"/></linearGradient><linearGradient id="d" x1="-115.7" y1="-11.24" x2="-63.63" y2="-38.03" gradientTransform="matrix(-0.5, -0.87, -0.87, 0.5, -26.03, -39.48)" gradientUnits="userSpaceOnUse"><stop offset="0" stop-color="#25e581"/><stop offset="1" stop-color="#c4e138"/></linearGradient><linearGradient id="e" x1="-89.5" y1="3.5" x2="-84" y2="0.66" gradientTransform="matrix(-0.5, -0.87, -0.87, 0.5, -26.03, -39.48)" gradientUnits="userSpaceOnUse"><stop offset="0" stop-color="#dbf9ea"/><stop offset="0.97" stop-color="#fff"/></linearGradient><linearGradient id="f" x1="2.62" y1="40.14" x2="79.28" y2="0.7" gradientUnits="userSpaceOnUse"><stop offset="0" stop-color="#fff" stop-opacity="0.25"/><stop offset="1" stop-color="#dbf9ea" stop-opacity="0"/></linearGradient></defs><title>iPhone_2</title><path class="a" d="M68.5,2.23h0a7,7,0,0,0-3.39-.83,6.8,6.8,0,0,0-3.38.83h0l-51,29.59a3.37,3.37,0,0,0-1.14,1A2,2,0,0,0,9.24,34a2.46,2.46,0,0,0,1.46,2L29.54,46.92a7.63,7.63,0,0,0,7,0l51-29.58a2.46,2.46,0,0,0,1.43-2,2.78,2.78,0,0,0-1.56-2.22Z"/><path class="b" d="M78.69,19.42l-50,28.91a7.69,7.69,0,0,1-7.73,0L2.14,37.5a4.29,4.29,0,0,1,0-7.42c15.27-8.87,34.77-20,50-28.91a7.71,7.71,0,0,1,7.73,0L78.68,12A4.28,4.28,0,0,1,78.69,19.42Z"/><path class="c" d="M59.43.82h0A7.1,7.1,0,0,0,56,0a6.83,6.83,0,0,0-3.38.82h0l-50.13,29a3.49,3.49,0,0,0-1.14,1A2.15,2.15,0,0,0,1,32a2.5,2.5,0,0,0,1.46,2L21.3,44.9a7.71,7.71,0,0,0,7,0l50.13-29a2.44,2.44,0,0,0,1.43-2,2.82,2.82,0,0,0-1.56-2.23Z"/><path class="d" d="M58,1.61l1.89,1.1c.33.19.33.49,0,.68l-.25.15c-.75.44-.74,1.14,0,1.58L69.93,11a3,3,0,0,0,2.72,0l.26-.15a1.29,1.29,0,0,1,1.18,0L76,12c1.32.76,1.33,2,0,2.75L26.68,43.37a5.23,5.23,0,0,1-4.75,0L4,33c-1.32-.76-1.33-2,0-2.76L53.28,1.61a5.23,5.23,0,0,1,4.75,0"/><path class="e" d="M11,34.54a.39.39,0,0,0,.18.18l8.31,4.8a.49.49,0,0,0,.68-.18.51.51,0,0,0-.18-.69l-8.31-4.79a.5.5,0,0,0-.68.68Z"/><path class="f" d="M74.17,15.8,76,14.73c1.31-.76,1.3-2,0-2.75l-1.89-1.09a1.29,1.29,0,0,0-1.18,0l-.26.15a3,3,0,0,1-2.72,0L59.68,5.12c-.75-.44-.76-1.14,0-1.58l.25-.15c.33-.19.33-.49,0-.68L58,1.61a5.23,5.23,0,0,0-4.75,0l-39,22.65Z"/></svg>