<svg xmlns="http://www.w3.org/2000/svg" xmlns:xlink="http://www.w3.org/1999/xlink" viewBox="0 0 135.21 82.94"><defs><style>.a{isolation:isolate;}.b{fill:url(#a);}.c{fill:url(#b);}.d{fill:url(#c);}.e{fill:url(#d);}.f{fill:url(#e);}.g{fill:url(#f);}.h{fill:url(#g);}.i{fill:url(#h);}.j{fill:url(#i);}.k{fill:url(#j);}.l{fill:url(#k);}</style><linearGradient id="a" x1="31.65" y1="44.46" x2="143.49" y2="44.63" gradientUnits="userSpaceOnUse"><stop offset="0" stop-color="#292376"/><stop offset="1" stop-color="#5d278f" stop-opacity="0"/></linearGradient><linearGradient id="b" x1="0.45" y1="39.99" x2="127.91" y2="39.99" gradientUnits="userSpaceOnUse"><stop offset="0" stop-color="#dbf9ea"/><stop offset="1" stop-color="#c0dde2"/></linearGradient><linearGradient id="c" x1="122.49" y1="53.03" x2="4.63" y2="53.03" xlink:href="#b"/><linearGradient id="d" x1="128.27" y1="5.33" x2="48.27" y2="39.58" gradientUnits="userSpaceOnUse"><stop offset="0" stop-color="#dbf9ea"/><stop offset="0.97" stop-color="#fff"/></linearGradient><linearGradient id="e" x1="84.77" y1="20.72" x2="122.34" y2="20.72" xlink:href="#d"/><linearGradient id="f" x1="131.38" y1="12.61" x2="51.38" y2="46.86" xlink:href="#d"/><linearGradient id="g" x1="6.23" y1="59.1" x2="85.51" y2="59.1" xlink:href="#d"/><linearGradient id="h" x1="126.65" y1="1.56" x2="46.65" y2="35.81" xlink:href="#d"/><linearGradient id="i" x1="132.6" y1="15.45" x2="52.6" y2="49.7" xlink:href="#d"/><linearGradient id="j" x1="66.34" y1="26.66" x2="92.17" y2="26.66" xlink:href="#d"/><linearGradient id="k" x1="81.37" y1="36.43" x2="103.94" y2="36.43" xlink:href="#d"/></defs><title>Keyboard_1</title><g class="a"><path class="b" d="M9.38,62.54,103,8.48a6.21,6.21,0,0,1,5.66,0l25.37,14.74c1.56.91,1.55,2.37,0,3.28L40.39,80.56a6.19,6.19,0,0,1-5.65,0L9.37,65.82c-1.57-.91-1.56-2.38,0-3.28"/></g><g class="a"><path class="c" d="M96.45.55a5.4,5.4,0,0,1,5.61.54l24.75,19.77c1.52,1.21,1.46,2.94-.12,3.85L31.92,79.43a5.43,5.43,0,0,1-5.63-.54L1.55,59.12C0,57.91.09,56.19,1.67,55.27Z"/><path class="d" d="M.47,56.87a2.45,2.45,0,0,0,1.08,2.25L26.29,78.89a5.43,5.43,0,0,0,5.63.54l94.77-54.72a2.25,2.25,0,0,0,1.2-1.59l-.45,3a2.25,2.25,0,0,1-1.2,1.59L31.47,82.39a5.4,5.4,0,0,1-5.62-.55L1.1,62.08A2.48,2.48,0,0,1,0,59.82Z"/></g><g class="a"><path class="e" d="M85.3,10.39a.55.55,0,0,0,0,1l22,17.57a1.36,1.36,0,0,0,1.41.13L122,21.34a.54.54,0,0,0,0-1l-22-17.58a1.36,1.36,0,0,0-1.41-.13Z"/><path class="f" d="M122,21.34l-13.37,7.72a1.36,1.36,0,0,1-1.41-.13l-22-17.57a.64.64,0,0,1-.26-.57l-.22,1.45a.64.64,0,0,0,.26.57l22,17.57a1.36,1.36,0,0,0,1.41.13l13.37-7.72a.54.54,0,0,0,.3-.4l.22-1.45A.55.55,0,0,1,122,21.34Z"/></g><g class="a"><path class="g" d="M6.76,55.74a.54.54,0,0,0,0,1l22,17.57a1.34,1.34,0,0,0,1.4.13L85.21,42.6a.54.54,0,0,0,0-1l-22-17.57a1.37,1.37,0,0,0-1.4-.14Z"/><path class="h" d="M85.21,42.6,30.13,74.4a1.34,1.34,0,0,1-1.4-.13L6.73,56.7a.63.63,0,0,1-.27-.57l-.22,1.45a.62.62,0,0,0,.27.57l22,17.57a1.34,1.34,0,0,0,1.4.13L85,44.05a.54.54,0,0,0,.3-.39l.22-1.46A.54.54,0,0,1,85.21,42.6Z"/></g><path class="i" d="M66.86,21a.54.54,0,0,0,0,1l10.22,8.17a1.39,1.39,0,0,0,1.41.14l13.41-7.75a.54.54,0,0,0,0-1L81.67,13.43a1.37,1.37,0,0,0-1.4-.14Z"/><g class="a"><path class="j" d="M81.9,33.05a.54.54,0,0,0,0,1l7,5.56a1.34,1.34,0,0,0,1.4.13L103.64,32a.54.54,0,0,0,0-1l-7-5.56a1.35,1.35,0,0,0-1.4-.13Z"/><path class="k" d="M92,23.62l.22-1.45a.54.54,0,0,1-.3.39L78.46,30.31a1.39,1.39,0,0,1-1.41-.14L66.83,22a.63.63,0,0,1-.27-.57l-.22,1.46a.61.61,0,0,0,.27.56l10.22,8.17a1.38,1.38,0,0,0,1.42.14L91.65,24A.55.55,0,0,0,92,23.62Z"/><path class="l" d="M103.64,32,90.23,39.7a1.34,1.34,0,0,1-1.4-.13l-7-5.56a.61.61,0,0,1-.27-.56l-.22,1.45a.6.6,0,0,0,.27.56l7,5.56a1.37,1.37,0,0,0,1.4.14l13.41-7.75a.54.54,0,0,0,.3-.39l.22-1.45A.54.54,0,0,1,103.64,32Z"/></g></svg>