<svg xmlns="http://www.w3.org/2000/svg" xmlns:xlink="http://www.w3.org/1999/xlink" viewBox="0 0 135.72 82.94"><defs><style>.a{isolation:isolate;}.b{fill:url(#a);}.c{fill:url(#b);}.d{fill:url(#c);}.e{fill:url(#d);}.f{fill:url(#e);}.g{fill:url(#f);}.h{fill:url(#g);}.i{fill:url(#h);}.j{fill:url(#i);}.k{fill:url(#j);}.l{fill:url(#k);}</style><linearGradient id="a" x1="63.45" y1="49.39" x2="118.61" y2="18.72" gradientUnits="userSpaceOnUse"><stop offset="0" stop-color="#292376"/><stop offset="1" stop-color="#5d278f" stop-opacity="0"/></linearGradient><linearGradient id="b" y1="39.99" x2="127.47" y2="39.99" gradientUnits="userSpaceOnUse"><stop offset="0" stop-color="#dbf9ea"/><stop offset="1" stop-color="#c0dde2"/></linearGradient><linearGradient id="c" x1="132.52" y1="53.03" x2="-2.82" y2="53.03" xlink:href="#b"/><linearGradient id="d" x1="120.84" y1="54.96" x2="50.84" y2="29.96" gradientUnits="userSpaceOnUse"><stop offset="0" stop-color="#dbf9ea"/><stop offset="0.97" stop-color="#fff"/></linearGradient><linearGradient id="e" x1="5.58" y1="37.84" x2="84.85" y2="37.84" xlink:href="#d"/><linearGradient id="f" x1="120.26" y1="56.6" x2="50.26" y2="31.6" xlink:href="#d"/><linearGradient id="g" x1="115.35" y1="70.33" x2="45.35" y2="45.33" xlink:href="#d"/><linearGradient id="h" x1="77.45" y1="50.74" x2="103.28" y2="50.74" xlink:href="#d"/><linearGradient id="i" x1="65.68" y1="60.51" x2="88.24" y2="60.51" xlink:href="#d"/><linearGradient id="j" x1="116.82" y1="66.22" x2="46.82" y2="41.22" xlink:href="#d"/><linearGradient id="k" x1="84.11" y1="66.06" x2="121.68" y2="66.06" xlink:href="#d"/></defs><title>Keyboard_2</title><g class="a"><path class="b" d="M134.54,62.54,40.89,8.48a6.19,6.19,0,0,0-5.65,0L9.86,23.22c-1.55.91-1.54,2.37,0,3.28l93.65,54.06a6.19,6.19,0,0,0,5.65,0l25.37-14.74c1.56-.91,1.55-2.38,0-3.28"/></g><g class="a"><path class="c" d="M126.24,55.27c1.58.92,1.64,2.64.12,3.85L101.62,78.89a5.42,5.42,0,0,1-5.62.54L1.22,24.71c-1.58-.91-1.63-2.64-.11-3.85L25.85,1.09A5.41,5.41,0,0,1,31.47.55Z"/><path class="d" d="M127.44,56.87a2.45,2.45,0,0,1-1.08,2.25L101.62,78.89a5.42,5.42,0,0,1-5.62.54L1.22,24.71A2.28,2.28,0,0,1,0,23.12l.45,3a2.25,2.25,0,0,0,1.2,1.59L96.44,82.39a5.41,5.41,0,0,0,5.63-.55l24.74-19.76a2.46,2.46,0,0,0,1.08-2.26Z"/></g><g class="a"><path class="e" d="M84.33,34.47a.55.55,0,0,1,0,1L62.36,53a1.35,1.35,0,0,1-1.4.13L5.88,21.34a.54.54,0,0,1,0-1l22-17.57a1.39,1.39,0,0,1,1.41-.14Z"/><path class="f" d="M84.63,34.87a.63.63,0,0,1-.27.57L62.36,53a1.35,1.35,0,0,1-1.4.13L5.88,21.34a.54.54,0,0,1-.3-.4L5.8,22.4a.54.54,0,0,0,.3.39l55.08,31.8a1.35,1.35,0,0,0,1.4-.13l22-17.57a.63.63,0,0,0,.27-.57Z"/></g><path class="g" d="M102.76,45.11a.55.55,0,0,1,0,1L92.56,54.24a1.34,1.34,0,0,1-1.41.14L77.74,46.64a.54.54,0,0,1,0-1L88,37.51a1.37,1.37,0,0,1,1.4-.14Z"/><g class="a"><path class="h" d="M87.72,57.13a.54.54,0,0,1,0,1l-7,5.56a1.35,1.35,0,0,1-1.4.13L66,56a.54.54,0,0,1,0-1l7-5.56a1.34,1.34,0,0,1,1.4-.13Z"/><path class="i" d="M103.06,45.51a.63.63,0,0,1-.27.57L92.56,54.24a1.34,1.34,0,0,1-1.41.14L77.74,46.64a.55.55,0,0,1-.29-.39l.21,1.45a.59.59,0,0,0,.3.39l13.41,7.75a1.39,1.39,0,0,0,1.41-.14L103,47.53a.63.63,0,0,0,.27-.57Z"/><path class="j" d="M87.75,58.09l-7,5.56a1.35,1.35,0,0,1-1.4.13L66,56a.54.54,0,0,1-.3-.4l.22,1.45a.54.54,0,0,0,.3.4l13.41,7.74A1.35,1.35,0,0,0,81,65.1l7-5.56a.61.61,0,0,0,.27-.56L88,57.52A.63.63,0,0,1,87.75,58.09Z"/></g><g class="a"><path class="k" d="M121.15,55.73a.55.55,0,0,1,0,1l-22,17.57a1.36,1.36,0,0,1-1.41.13L84.41,66.68a.54.54,0,0,1,0-1l22-17.57a1.34,1.34,0,0,1,1.41-.13Z"/><path class="l" d="M121.45,56.13a.62.62,0,0,1-.27.57l-22,17.57a1.36,1.36,0,0,1-1.41.13L84.41,66.68a.54.54,0,0,1-.3-.4l.22,1.45a.57.57,0,0,0,.3.41L98,75.85a1.36,1.36,0,0,0,1.41-.13l22-17.57a.61.61,0,0,0,.27-.56Z"/></g></svg>