<svg xmlns="http://www.w3.org/2000/svg" xmlns:xlink="http://www.w3.org/1999/xlink" viewBox="0 0 92.02 140.35"><defs><style>.a{fill:url(#a);}.b{isolation:isolate;}.c{fill:url(#b);}.d{fill:url(#c);}.e{fill:url(#d);}.f{fill:url(#e);}.g{fill:url(#f);}.h{fill:url(#g);}.i{fill:url(#h);}.j{fill:url(#i);}.k{fill:url(#j);}.l{fill:url(#k);}.m{fill:url(#l);}.n{fill:url(#m);}.o{fill:url(#n);}.p{fill:url(#o);}.q{fill:url(#p);}.r{fill:#fff;}.s{fill:url(#q);}</style><linearGradient id="a" x1="-158.36" y1="120.02" x2="-216.54" y2="126.53" gradientTransform="matrix(-1, 0, 0, 1, -139.62, 0)" gradientUnits="userSpaceOnUse"><stop offset="0" stop-color="#292376"/><stop offset="1" stop-color="#5d278f" stop-opacity="0"/></linearGradient><linearGradient id="b" x1="-215.74" y1="133.15" x2="-144.41" y2="120.47" gradientTransform="matrix(-1, 0, 0, 1, -139.62, 0)" gradientUnits="userSpaceOnUse"><stop offset="0" stop-color="#fbb03b"/><stop offset="1" stop-color="#f15a24"/></linearGradient><linearGradient id="c" x1="-152" y1="113.66" x2="-210.18" y2="120.18" xlink:href="#b"/><linearGradient id="d" x1="-178.18" y1="107.24" x2="-172.82" y2="119.87" gradientTransform="matrix(-1, 0, 0, 1, -139.62, 0)" gradientUnits="userSpaceOnUse"><stop offset="0" stop-color="#fef100"/><stop offset="1" stop-color="#b0e021"/></linearGradient><linearGradient id="e" x1="-180.93" y1="116.71" x2="-173.66" y2="109.59" xlink:href="#d"/><linearGradient id="f" x1="-183.99" y1="106.35" x2="-170.04" y2="106.35" xlink:href="#b"/><linearGradient id="g" x1="-175.92" y1="108.81" x2="-169.03" y2="108.81" xlink:href="#b"/><linearGradient id="h" x1="-146.88" y1="45.12" x2="-177.46" y2="106.71" gradientTransform="matrix(-1, 0, 0, 1, -139.62, 0)" gradientUnits="userSpaceOnUse"><stop offset="0" stop-color="#b0e021"/><stop offset="1" stop-color="#fef100"/></linearGradient><linearGradient id="i" x1="-176.27" y1="80.79" x2="-138.18" y2="54.02" xlink:href="#h"/><linearGradient id="j" x1="-193.1" y1="51.63" x2="-237.17" y2="22.32" gradientTransform="matrix(-1, 0, 0, 1, -139.62, 0)" gradientUnits="userSpaceOnUse"><stop offset="0" stop-color="#f3d7c3"/><stop offset="0.97" stop-color="#fff"/></linearGradient><linearGradient id="k" x1="-154.57" y1="37.5" x2="-140.62" y2="37.5" xlink:href="#b"/><linearGradient id="l" x1="-146.51" y1="39.96" x2="-139.62" y2="39.96" xlink:href="#b"/><linearGradient id="m" x1="-186.95" y1="35.54" x2="-147.84" y2="35.54" xlink:href="#h"/><linearGradient id="n" x1="-152.59" y1="35.72" x2="-187.94" y2="30.75" xlink:href="#h"/><linearGradient id="o" x1="36.92" y1="46.58" x2="86.26" y2="17.2" gradientTransform="matrix(1, 0, 0, 1, 0, 0)" xlink:href="#b"/><linearGradient id="p" x1="33.37" y1="22.92" x2="58.4" y2="1.15" gradientTransform="matrix(1, 0, 0, 1, 0, 0)" xlink:href="#d"/><linearGradient id="q" x1="90.75" y1="31.52" x2="52.66" y2="46.4" gradientUnits="userSpaceOnUse"><stop offset="0" stop-color="#f1ffff"/><stop offset="0.97" stop-color="#f1ec83"/></linearGradient></defs><title>Lamp</title><path class="a" d="M23.76,111.27c-11,6.37-11.09,16.7-.13,23.07s28.79,6.37,39.82,0,11.1-16.7.14-23.07S34.8,104.9,23.76,111.27Z"/><g class="b"><path class="c" d="M9.09,116.53l0,7.59c0,4.15,2.73,8.29,8.18,11.45,11,6.37,28.79,6.37,39.82,0,5.55-3.2,8.33-7.41,8.32-11.62l0-7.58c0,4.2-2.77,8.41-8.32,11.62-11,6.36-28.86,6.36-39.82,0C11.83,124.82,9.11,120.68,9.09,116.53Z"/></g><path class="d" d="M17.41,104.92c-11,6.37-11.09,16.7-.13,23.06s28.79,6.37,39.82,0,11.09-16.71.13-23.08S28.44,98.55,17.41,104.92Z"/><path class="e" d="M37.15,111.59a3.1,3.1,0,0,1-1.48-.47,6.21,6.21,0,0,1-1.47-1.23l0,6.63,3,1.7Z"/><polygon class="f" points="37.13 118.22 40.06 116.52 40.08 109.89 37.15 111.59 37.13 118.22"/><path class="g" d="M38.48,99.93a2.4,2.4,0,0,1,2.45.24,7.57,7.57,0,0,1,3.44,5.94,2.42,2.42,0,0,1-1,2.21L35.3,113a2.41,2.41,0,0,0,1-2.21,7.56,7.56,0,0,0-3.43-6,2.44,2.44,0,0,0-2.45-.24Z"/><path class="h" d="M32.87,104.85c-1.9-1.09-3.45-.21-3.45,2a7.55,7.55,0,0,0,3.42,6c1.91,1.1,3.46.22,3.46-2A7.56,7.56,0,0,0,32.87,104.85Z"/><path class="i" d="M9.2,42.07a2,2,0,0,1-2.48.44l26,60.9a2,2,0,0,1,2.47-.44Z"/><polygon class="j" points="35.22 102.97 38.15 101.27 12.13 40.37 9.2 42.08 35.22 102.97"/><path class="k" d="M58.78,59.7c-3.45,0-5.46-2.05-5.46-5.85C53.32,40.72,74.7,18,86.57,18,90,18,92,20.09,92,23.88,92,37,70.68,59.7,58.78,59.7ZM89.5,29.39a15,15,0,0,0,.66-4.07c0-3.43-1.82-5.29-4.93-5.29-10.78,0-30,20.55-30,32.38,0,3.43,1.81,5.29,4.92,5.29C69.37,57.7,85.82,42,89.5,29.39"/><path class="l" d="M9.07,31.08a2.42,2.42,0,0,1,2.45.24,7.55,7.55,0,0,1,3.43,6,2.39,2.39,0,0,1-1,2.2L5.88,44.16a2.42,2.42,0,0,0,1-2.21,7.6,7.6,0,0,0-3.44-6A2.43,2.43,0,0,0,1,35.76Z"/><path class="m" d="M3.45,36C1.55,34.91,0,35.79,0,38a7.56,7.56,0,0,0,3.43,5.94c1.9,1.09,3.45.22,3.46-2A7.6,7.6,0,0,0,3.45,36Z"/><path class="n" d="M8.22,36.17A7.66,7.66,0,0,1,9.7,40l37.62-3.49V32.81l-2.95-1.7v1.71Z"/><polygon class="o" points="44.38 32.82 47.31 31.11 11.15 34.47 8.22 36.17 44.38 32.82"/><path class="p" d="M86.57,18a5.47,5.47,0,0,1,3.77,1.26C83.63,13.5,76,9.86,67.09,9.86a26.93,26.93,0,0,0-7.52,1.06c-6.33,1.85-14.84,11.23-16,17.79a23.74,23.74,0,0,0-.41,4.76c0,9.7,4.89,18.64,11.9,25a5.92,5.92,0,0,1-1.69-4.59C53.32,40.76,74.64,18,86.57,18Z"/><path class="q" d="M31.13,14.26A14.3,14.3,0,0,1,55,3.68l7.32,6.6c-.94.17-1.85.39-2.77.64-6.32,1.85-14.83,11.23-16,17.79-.2,1.32-.3,2.1-.35,2.8l-7.32-6.6a1.79,1.79,0,0,1-.27-.28,1.79,1.79,0,0,0,.27.28A14.22,14.22,0,0,1,31.13,14.26Z"/><path class="r" d="M89.5,29.39C85.82,42,69.37,57.7,60.11,57.7c-3.11,0-4.92-1.86-4.92-5.29,0-11.83,19.26-32.38,30-32.38,3.11,0,4.93,1.86,4.93,5.29a15,15,0,0,1-.66,4.07"/><path class="s" d="M73.32,25.29A12.93,12.93,0,1,1,59.11,41.07,58.18,58.18,0,0,1,73.32,25.29Z"/></svg>