<svg xmlns="http://www.w3.org/2000/svg" xmlns:xlink="http://www.w3.org/1999/xlink" viewBox="0 0 170.38 153.26"><defs><style>.a{fill:none;}.b{fill:url(#a);}.c{fill:url(#b);}.d{isolation:isolate;}.e{fill:#160c0c;}.f{clip-path:url(#c);}.g{fill:url(#d);}.h{fill:url(#e);}.i{fill:url(#f);}.j{fill:url(#g);}.k{fill:url(#h);}.l{clip-path:url(#j);}.m{fill:url(#k);}.n{fill:url(#l);}.o{fill:url(#m);}.p,.q,.r{opacity:0.05;}.p{fill:url(#n);}.q{fill:url(#o);}.r{fill:url(#p);}.s{fill:url(#q);}.t{fill:url(#r);}</style><linearGradient id="a" x1="134.21" y1="101.27" x2="33.83" y2="111.14" gradientUnits="userSpaceOnUse"><stop offset="0" stop-color="#dbf9ea"/><stop offset="1" stop-color="#c0dde2"/></linearGradient><linearGradient id="b" x1="58.08" y1="116.74" x2="197.33" y2="103.99" gradientUnits="userSpaceOnUse"><stop offset="0" stop-color="#292376"/><stop offset="1" stop-color="#5d278f" stop-opacity="0"/></linearGradient><clipPath id="c"><path class="a" d="M5.19,43.34c-2.05,1.18-3,4.27-2.09,6.9l21.51,63.45c.9,2.63,3.28,3.81,5.32,2.63l74.18-42.83c2-1.18,3-4.27,2.09-6.91L84.68,3.14C83.79.51,81.41-.66,79.36.52Z"/></clipPath><linearGradient id="d" x1="10.54" y1="32.95" x2="98.76" y2="83.89" gradientUnits="userSpaceOnUse"><stop offset="0" stop-color="#5d278f"/><stop offset="1" stop-color="#292376"/></linearGradient><linearGradient id="e" x1="83.34" y1="58.39" x2="-4.1" y2="58.39" xlink:href="#a"/><linearGradient id="f" x1="5.18" y1="51.47" x2="117.85" y2="67.3" gradientUnits="userSpaceOnUse"><stop offset="0" stop-color="#25e581"/><stop offset="1" stop-color="#c4e138"/></linearGradient><linearGradient id="g" x1="28.74" y1="110.5" x2="162.38" y2="110.5" xlink:href="#a"/><linearGradient id="h" x1="28.74" y1="110.5" x2="162.38" y2="110.5" xlink:href="#a"/><clipPath id="j"><path class="b" d="M63,132.87l-21.84-12.7a1,1,0,0,1-.54-.84,1,1,0,0,1,.54-.84l68.61-39.61a2,2,0,0,1,1.92,0l21.84,12.69a.93.93,0,0,1,0,1.69L64.94,132.87a2,2,0,0,1-1,.24A1.93,1.93,0,0,1,63,132.87Z"/></clipPath><linearGradient id="k" x1="41.13" y1="105.24" x2="133.58" y2="105.24" xlink:href="#d"/><linearGradient id="l" x1="134.47" y1="101.43" x2="49.55" y2="127.1" xlink:href="#d"/><linearGradient id="m" x1="157.59" y1="128.29" x2="30.08" y2="128.29" xlink:href="#a"/><linearGradient id="n" x1="84.39" y1="119.83" x2="138.76" y2="119.83" xlink:href="#d"/><linearGradient id="o" x1="67.42" y1="54.58" x2="118.09" y2="80.24" xlink:href="#d"/><linearGradient id="p" x1="34.34" y1="119.88" x2="85.01" y2="145.55" xlink:href="#d"/><linearGradient id="q" x1="37.03" y1="97.55" x2="109.04" y2="97.55" gradientUnits="userSpaceOnUse"><stop offset="0.05" stop-color="#ed1e79"/><stop offset="0.32" stop-color="#d9e021"/><stop offset="1" stop-color="#29c7e2"/></linearGradient><linearGradient id="r" x1="10.44" y1="33.12" x2="55.96" y2="59.4" gradientUnits="userSpaceOnUse"><stop offset="0" stop-color="#fff" stop-opacity="0.25"/><stop offset="1" stop-color="#dbf9ea" stop-opacity="0"/></linearGradient></defs><title>MacBook_2</title><path class="c" d="M38.28,117.6c-2.05,1.19-2.06,3.1,0,4.28l49,28.49a8.16,8.16,0,0,0,7.39,0l74.17-42.82c2-1.18,2-3.1,0-4.28l-49-28.49a8.16,8.16,0,0,0-7.39,0L38.28,117.6"/><g class="d"><path class="e" d="M5.19,43.34c-2.05,1.18-3,4.27-2.09,6.9l21.51,63.45c.9,2.63,3.28,3.81,5.32,2.63l74.18-42.83c2-1.18,3-4.27,2.09-6.91L84.68,3.14C83.79.51,81.41-.66,79.36.52Z"/><g class="d"><g class="f"><path class="g" d="M5.19,43.34c-2.05,1.18-3,4.28-2.09,6.9l21.52,63.45c.89,2.63,3.27,3.81,5.32,2.62l74.17-42.82c2-1.18,3-4.27,2.09-6.9L84.68,3.14C83.79.51,81.4-.66,79.36.52L5.19,43.34"/></g></g><path class="h" d="M5.19,43.34,79.36.52A3.25,3.25,0,0,1,81.08.06L78.32,0A3.34,3.34,0,0,0,76.6.46L2.43,43.28c-2.05,1.18-3,4.28-2.09,6.9l21.51,63.45a4.12,4.12,0,0,0,3.61,3.09l2.76.06a4.14,4.14,0,0,1-3.61-3.09L3.1,50.24C2.21,47.61,3.14,44.52,5.19,43.34Z"/></g><polyline class="i" points="6.8 48.63 81.27 5.63 102.49 68.21 28.02 111.2 6.8 48.63"/><path class="j" d="M30.28,115.53c-2.05,1.18-2.06,3.1,0,4.28l49,28.48a8.13,8.13,0,0,0,7.39,0l74.18-42.83c2-1.18,2-3.09,0-4.28l-49-28.49a8.22,8.22,0,0,0-7.39,0Z"/><path class="a" d="M30.28,115.53c-2.05,1.18-2.06,3.1,0,4.28l49,28.48a8.13,8.13,0,0,0,7.39,0l74.18-42.83c2-1.18,2-3.09,0-4.28l-49-28.49a8.22,8.22,0,0,0-7.39,0Z"/><path class="k" d="M30.28,115.53c-2.05,1.18-2.06,3.1,0,4.28l49,28.49a8.16,8.16,0,0,0,7.39,0l74.17-42.83c2-1.18,2-3.09,0-4.27l-49-28.49a8.14,8.14,0,0,0-7.38,0L30.28,115.53"/><path class="b" d="M63,132.87l-21.84-12.7a1,1,0,0,1-.54-.84,1,1,0,0,1,.54-.84l68.61-39.61a2,2,0,0,1,1.92,0l21.84,12.69a.93.93,0,0,1,0,1.69L64.94,132.87a2,2,0,0,1-1,.24A1.93,1.93,0,0,1,63,132.87Z"/><g class="l"><g class="d"><path class="m" d="M41.43,118.29a.43.43,0,0,0,0,.82l21.85,12.7a1.58,1.58,0,0,0,1.42,0l68.6-39.61a.43.43,0,0,0,0-.81l-21.86-12.7a1.53,1.53,0,0,0-1.41,0Z"/><path class="n" d="M133.58,91.78a.48.48,0,0,1-.29.41L64.69,131.8a1.58,1.58,0,0,1-1.42,0l-21.85-12.7a.48.48,0,0,1-.29-.41v1.63a.5.5,0,0,0,.29.41l21.85,12.7a1.58,1.58,0,0,0,1.42,0l68.61-39.6a.53.53,0,0,0,.29-.42Z"/></g></g><path class="o" d="M30.25,119.81l49,28.48a8.13,8.13,0,0,0,7.39,0l74.18-42.83a2.6,2.6,0,0,0,1.54-2.15v4.08a2.62,2.62,0,0,1-1.54,2.15L86.67,152.37a8.16,8.16,0,0,1-7.39,0l-49-28.49a2.58,2.58,0,0,1-1.51-2.12v-4.08A2.61,2.61,0,0,0,30.25,119.81Z"/><path class="p" d="M85,123.65l33.28-19.21a3.1,3.1,0,0,1,2.83,0l17.09,9.93a.87.87,0,0,1,0,1.64l-33.28,19.21a3.1,3.1,0,0,1-2.83,0L85,125.29c-.78-.45-.78-1.18,0-1.64"/><path class="q" d="M137.55,90.37l-1.39.8a1.55,1.55,0,0,1-1.42,0l-25.91-15a.43.43,0,0,1,0-.82l1.39-.81a1.55,1.55,0,0,1,1.42,0l25.91,15.06c.39.22.39.59,0,.82"/><path class="r" d="M33.13,119l1.4-.8a1.53,1.53,0,0,1,1.41,0l25.92,15.06a.43.43,0,0,1,0,.81l-1.4.81a1.55,1.55,0,0,1-1.42,0l-25.91-15c-.39-.23-.38-.6,0-.83"/><path class="s" d="M37.32,116.53l68.61-39.61a1.59,1.59,0,0,1,1.41,0l1.41.82a.43.43,0,0,1,0,.82L40.14,118.17a1.55,1.55,0,0,1-1.42,0l-1.4-.82a.43.43,0,0,1,0-.82"/><path class="t" d="M79.36.52,5.19,43.34c-2.05,1.18-3,4.28-2.09,6.9l21.52,63.45Z"/></svg>