<svg xmlns="http://www.w3.org/2000/svg" xmlns:xlink="http://www.w3.org/1999/xlink" viewBox="0 0 162.39 153.26"><defs><style>.a{fill:none;}.b{fill:url(#a);}.c{fill:url(#b);}.d{isolation:isolate;}.e{fill:#160c0c;}.f{clip-path:url(#c);}.g{fill:url(#d);}.h{fill:url(#e);}.i{fill:url(#f);}.j{fill:url(#g);}.k{fill:url(#h);}.l{clip-path:url(#j);}.m{fill:url(#k);}.n{fill:url(#l);}.o{fill:url(#m);}.p{fill:url(#n);}.q,.r,.s{opacity:0.05;}.q{fill:url(#o);}.r{fill:url(#p);}.s{fill:url(#q);}.t{fill:url(#r);}</style><linearGradient id="a" x1="122.56" y1="119.33" x2="23.68" y2="91.33" gradientUnits="userSpaceOnUse"><stop offset="0" stop-color="#dbf9ea"/><stop offset="1" stop-color="#c0dde2"/></linearGradient><linearGradient id="b" x1="29.11" y1="78.97" x2="168.36" y2="66.22" gradientTransform="matrix(1, 0, 0, -1, 0, 188.14)" gradientUnits="userSpaceOnUse"><stop offset="0" stop-color="#292376"/><stop offset="1" stop-color="#5d278f" stop-opacity="0"/></linearGradient><clipPath id="c"><path class="a" d="M157.2,43.34c2.05,1.18,3,4.27,2.09,6.9l-21.52,63.45c-.89,2.63-3.27,3.81-5.32,2.63L58.28,73.49c-2.05-1.18-3-4.27-2.09-6.91L77.71,3.14C78.6.51,81-.66,83,.52Z"/></clipPath><linearGradient id="d" x1="61.18" y1="31.54" x2="154.3" y2="85.3" gradientUnits="userSpaceOnUse"><stop offset="0" stop-color="#5d278f"/><stop offset="1" stop-color="#292376"/></linearGradient><linearGradient id="e" x1="162.77" y1="54.59" x2="67.52" y2="61.34" xlink:href="#a"/><linearGradient id="f" x1="64.92" y1="33.69" x2="150.57" y2="83.14" gradientUnits="userSpaceOnUse"><stop offset="0" stop-color="#25e581"/><stop offset="1" stop-color="#c4e138"/></linearGradient><linearGradient id="g" x1="0.01" y1="110.5" x2="133.65" y2="110.5" xlink:href="#a"/><linearGradient id="h" x1="0.01" y1="110.5" x2="133.65" y2="110.5" xlink:href="#a"/><clipPath id="j"><path class="b" d="M98.41,133.11a2,2,0,0,1-1-.24L28.84,93.26a.93.93,0,0,1,0-1.69L50.68,78.88a2,2,0,0,1,1.92,0l68.61,39.61a1,1,0,0,1,.54.84,1,1,0,0,1-.54.84l-21.84,12.7A1.93,1.93,0,0,1,98.41,133.11Z"/></clipPath><linearGradient id="k" x1="28.8" y1="105.24" x2="121.26" y2="105.24" xlink:href="#d"/><linearGradient id="l" x1="120.66" y1="116.56" x2="25.83" y2="110.14" xlink:href="#d"/><linearGradient id="m" x1="130.7" y1="128.29" x2="7.94" y2="128.29" xlink:href="#a"/><linearGradient id="n" x1="53.35" y1="97.55" x2="125.36" y2="97.55" gradientUnits="userSpaceOnUse"><stop offset="0.05" stop-color="#ed1e79"/><stop offset="0.32" stop-color="#d9e021"/><stop offset="1" stop-color="#29c7e2"/></linearGradient><linearGradient id="o" x1="100.24" y1="126.54" x2="129.56" y2="126.54" xlink:href="#d"/><linearGradient id="p" x1="24.54" y1="82.83" x2="53.85" y2="82.83" xlink:href="#d"/><linearGradient id="q" x1="23.63" y1="119.83" x2="78" y2="119.83" xlink:href="#d"/><linearGradient id="r" x1="62.42" y1="29.4" x2="139.54" y2="73.93" gradientUnits="userSpaceOnUse"><stop offset="0" stop-color="#fff" stop-opacity="0.25"/><stop offset="1" stop-color="#dbf9ea" stop-opacity="0"/></linearGradient></defs><title>MacBook_1</title><path class="c" d="M9.31,108.3l74.17,42.82a8.14,8.14,0,0,0,7.38,0l49-28.49c2-1.18,2-3.09,0-4.27L65.7,75.53a8.16,8.16,0,0,0-7.39,0L9.28,104c-2,1.18-2,3.1,0,4.28"/><g class="d"><path class="e" d="M157.2,43.34c2.05,1.18,3,4.27,2.09,6.9l-21.52,63.45c-.89,2.63-3.27,3.81-5.32,2.63L58.28,73.49c-2.05-1.18-3-4.27-2.09-6.91L77.71,3.14C78.6.51,81-.66,83,.52Z"/><g class="d"><g class="f"><path class="g" d="M157.2,43.34,83,.52c-2-1.18-4.43,0-5.32,2.62L56.19,66.59c-.89,2.63.05,5.72,2.09,6.9l74.17,42.82c2.05,1.19,4.43,0,5.32-2.62l21.52-63.45c.89-2.62,0-5.72-2.09-6.9"/></g></g><path class="h" d="M160,43.28,85.79.46A3.34,3.34,0,0,0,84.07,0L81.31.06A3.25,3.25,0,0,1,83,.52L157.2,43.34c2.05,1.18,3,4.27,2.09,6.9l-21.52,63.45a4.12,4.12,0,0,1-3.6,3.09l2.76-.06a4.12,4.12,0,0,0,3.61-3.09l21.51-63.45C162.94,47.56,162,44.46,160,43.28Z"/></g><polyline class="i" points="155.59 48.63 81.12 5.63 59.9 68.21 134.37 111.2 155.59 48.63"/><path class="j" d="M132.11,115.53c2,1.18,2.06,3.1,0,4.28l-49,28.48a8.13,8.13,0,0,1-7.39,0L1.55,105.47c-2-1.18-2-3.09,0-4.28l49-28.49a8.2,8.2,0,0,1,7.38,0Z"/><path class="a" d="M132.11,115.53c2,1.18,2.06,3.1,0,4.28l-49,28.48a8.13,8.13,0,0,1-7.39,0L1.55,105.47c-2-1.18-2-3.09,0-4.28l49-28.49a8.2,8.2,0,0,1,7.38,0Z"/><path class="k" d="M132.11,115.53,57.94,72.71a8.16,8.16,0,0,0-7.39,0l-49,28.49c-2,1.18-2,3.09,0,4.27L75.72,148.3a8.16,8.16,0,0,0,7.39,0l49-28.49c2-1.18,2-3.1,0-4.28"/><path class="b" d="M98.41,133.11a2,2,0,0,1-1-.24L28.84,93.26a.93.93,0,0,1,0-1.69L50.68,78.88a2,2,0,0,1,1.92,0l68.61,39.61a1,1,0,0,1,.54.84,1,1,0,0,1-.54.84l-21.84,12.7A1.93,1.93,0,0,1,98.41,133.11Z"/><g class="l"><g class="d"><path class="m" d="M121,118.29a.43.43,0,0,1,0,.82l-21.85,12.7a1.58,1.58,0,0,1-1.42,0L29.1,92.19a.43.43,0,0,1,0-.81L51,78.68a1.53,1.53,0,0,1,1.41,0Z"/><path class="n" d="M121,119.11l-21.85,12.7a1.58,1.58,0,0,1-1.42,0L29.1,92.19a.49.49,0,0,1-.3-.41v1.63a.53.53,0,0,0,.29.42l68.61,39.6a1.58,1.58,0,0,0,1.42,0L121,120.74a.5.5,0,0,0,.29-.41V118.7A.5.5,0,0,1,121,119.11Z"/></g></g><path class="o" d="M132.14,119.81l-49,28.48a8.13,8.13,0,0,1-7.39,0L1.55,105.47A2.6,2.6,0,0,1,0,103.32v4.08a2.62,2.62,0,0,0,1.54,2.15l74.18,42.82a8.14,8.14,0,0,0,7.38,0l49-28.49a2.58,2.58,0,0,0,1.52-2.12v-4.08A2.61,2.61,0,0,1,132.14,119.81Z"/><path class="p" d="M125.07,116.53,56.46,76.92a1.59,1.59,0,0,0-1.41,0l-1.41.82a.43.43,0,0,0,0,.82l68.61,39.61a1.53,1.53,0,0,0,1.41,0l1.41-.82a.43.43,0,0,0,0-.82"/><path class="q" d="M129.26,119l-1.4-.8a1.53,1.53,0,0,0-1.41,0l-25.92,15.06a.43.43,0,0,0,0,.81l1.4.81a1.55,1.55,0,0,0,1.42,0l25.91-15a.44.44,0,0,0,0-.83"/><path class="r" d="M53.55,75.3l-1.39-.81a1.55,1.55,0,0,0-1.42,0L24.83,89.55c-.39.22-.39.59,0,.82l1.39.8a1.55,1.55,0,0,0,1.42,0l25.91-15a.43.43,0,0,0,0-.82"/><path class="s" d="M77.41,123.65,44.13,104.44a3.1,3.1,0,0,0-2.83,0l-17.09,9.93a.87.87,0,0,0,0,1.64L57.5,135.22a3.1,3.1,0,0,0,2.83,0l17.09-9.93c.78-.45.78-1.18,0-1.64"/><path class="t" d="M157.2,43.34,83,.52c-2-1.18-4.43,0-5.32,2.62L56.19,66.59Z"/></svg>