<svg xmlns="http://www.w3.org/2000/svg" xmlns:xlink="http://www.w3.org/1999/xlink" viewBox="0 0 41.96 24.38"><defs><style>.a{fill:url(#a);}.b{fill:url(#b);}.c{fill:url(#c);}</style><linearGradient id="a" x1="8.49" y1="18.07" x2="52.74" y2="4.7" gradientUnits="userSpaceOnUse"><stop offset="0" stop-color="#292376"/><stop offset="1" stop-color="#5d278f" stop-opacity="0"/></linearGradient><linearGradient id="b" x1="41.63" y1="6.82" x2="-2.73" y2="17.11" gradientUnits="userSpaceOnUse"><stop offset="0" stop-color="#dbf9ea"/><stop offset="0.97" stop-color="#fff"/></linearGradient><linearGradient id="c" x1="5.08" y1="12.27" x2="39.32" y2="7.02" xlink:href="#b"/></defs><title>Magic Mouse_2</title><path class="a" d="M40.46,11.41l-15.8,9.18a13,13,0,0,1-13,0l-1.47-.85a3,3,0,0,1,0-5.19L26,5.39a13,13,0,0,1,13,0l1.47.85A3,3,0,0,1,40.46,11.41Z"/><path class="b" d="M0,17.23c-.08,1.64,0,3.08,3.5,5.13,7.82,4.52,14.41.69,22.53-4,9.83-5.71,10.4-6.89,10.4-9.93h0a6.72,6.72,0,0,0-1.81-4.54c-4.93-5-10.55-4.59-16.48-1.71C15,3.69,6.48,8.48,3.55,10.92,1.42,12.69.14,14.51,0,17.23Z"/><path class="c" d="M35.41,4.87C34,2.68,31.12,1.11,28.8.41,23.16-1.29,16.92,2.5,8.38,7.63c-3.15,1.89-5.58,3.59-7,5.53a3.32,3.32,0,0,0,0,1,2.59,2.59,0,0,1,0-.47c0,1.23-.35,2.7,3.28,4.8,7.32,4.22,13.48.64,21.08-3.77C35.22,9.2,35.69,8,35.41,4.87Z"/></svg>