<svg xmlns="http://www.w3.org/2000/svg" xmlns:xlink="http://www.w3.org/1999/xlink" viewBox="0 0 99.64 59.57"><defs><style>.a{fill:none;}.b{fill:url(#a);}.c{isolation:isolate;}.d{fill:url(#b);}.e{clip-path:url(#c);}.f{fill:url(#d);}.g{fill:url(#e);}.h{fill:url(#f);}.i{fill:url(#g);}</style><linearGradient id="a" x1="10.23" y1="42.07" x2="122.23" y2="15.07" gradientUnits="userSpaceOnUse"><stop offset="0" stop-color="#292376"/><stop offset="1" stop-color="#5d278f" stop-opacity="0"/></linearGradient><linearGradient id="b" x1="0.86" y1="28.27" x2="91.76" y2="28.27" gradientUnits="userSpaceOnUse"><stop offset="0" stop-color="#dbf9ea"/><stop offset="1" stop-color="#c0dde2"/></linearGradient><clipPath id="c"><path class="a" d="M2.08,34.06C.49,35,.45,36.61,2,37.7l25,17.9a5.66,5.66,0,0,0,5.65.33L90.53,22.48c1.59-.92,1.64-2.56.1-3.66L65.67.93A5.67,5.67,0,0,0,60,.6Z"/></clipPath><linearGradient id="d" x1="0.86" y1="28.26" x2="91.76" y2="28.26" xlink:href="#b"/><linearGradient id="e" x1="98.57" y1="4.18" x2="52.74" y2="24.01" gradientUnits="userSpaceOnUse"><stop offset="0" stop-color="#dbf9ea"/><stop offset="0.97" stop-color="#fff"/></linearGradient><linearGradient id="f" x1="6.68" y1="35.82" x2="86.06" y2="35.82" xlink:href="#e"/><linearGradient id="g" x1="88.16" y1="40.19" x2="-1.93" y2="40.19" xlink:href="#b"/></defs><title>Magic Keyboard_1</title><path class="b" d="M10.19,39,67.45,5.9a6.19,6.19,0,0,1,5.65,0L98.47,20.64c1.56.91,1.55,2.38,0,3.28L41.2,57a6.24,6.24,0,0,1-5.66,0L10.17,42.23c-1.55-.91-1.54-2.37,0-3.28"/><g class="c"><path class="d" d="M2.08,34.06C.49,35,.45,36.61,2,37.7l25,17.9a5.66,5.66,0,0,0,5.65.33L90.53,22.48c1.59-.92,1.64-2.56.1-3.66L65.67.93A5.67,5.67,0,0,0,60,.6Z"/><g class="c"><g class="e"><path class="f" d="M2.08,34.06C.5,35,.45,36.61,2,37.71l25,17.89a5.69,5.69,0,0,0,5.65.33l58-33.46c1.59-.91,1.63-2.55.09-3.65L65.68.93A5.66,5.66,0,0,0,60,.6L2.08,34.06"/></g></g></g><g class="c"><path class="g" d="M7.11,34.19a.5.5,0,0,0,0,.91L29.27,51a1.43,1.43,0,0,0,1.41.09l55.08-31.8a.5.5,0,0,0,0-.91L63.59,2.47a1.42,1.42,0,0,0-1.41-.08Z"/><path class="h" d="M85.76,19.29,30.68,51.09A1.43,1.43,0,0,1,29.27,51L7.08,35.1a.56.56,0,0,1-.27-.5l-.13,1.53a.57.57,0,0,0,.28.49L29.15,52.53a1.42,1.42,0,0,0,1.41.08l55.07-31.8a.51.51,0,0,0,.3-.41l.13-1.53A.58.58,0,0,1,85.76,19.29Z"/></g><path class="i" d="M.87,35.72h0a2.29,2.29,0,0,0,1.11,2l25,17.89.43.25c.13.08.27.13.4.2a5.67,5.67,0,0,0,4.82-.12L90.53,22.48a2.19,2.19,0,0,0,1.22-1.67l-.25,3.05a2.15,2.15,0,0,1-1.21,1.66L32.34,59a5.14,5.14,0,0,1-2.73.59h0A5.62,5.62,0,0,1,27,58.82h0l-25.8-15A2,2,0,0,1,0,42.1H0Z"/></svg>