<svg xmlns="http://www.w3.org/2000/svg" xmlns:xlink="http://www.w3.org/1999/xlink" viewBox="0 0 99.51 59.57"><defs><style>.a{fill:none;}.b{isolation:isolate;}.c{fill:url(#a);}.d{fill:url(#b);}.e{clip-path:url(#c);}.f{fill:url(#d);}.g{fill:url(#e);}.h{fill:url(#f);}.i{fill:url(#g);}</style><linearGradient id="a" x1="47.16" y1="34.95" x2="89.63" y2="11.34" gradientUnits="userSpaceOnUse"><stop offset="0" stop-color="#292376"/><stop offset="1" stop-color="#5d278f" stop-opacity="0"/></linearGradient><linearGradient id="b" y1="28.27" x2="90.9" y2="28.27" gradientUnits="userSpaceOnUse"><stop offset="0" stop-color="#dbf9ea"/><stop offset="1" stop-color="#c0dde2"/></linearGradient><clipPath id="c"><path class="a" d="M89.68,34.06c1.58.91,1.63,2.55.1,3.64l-25,17.9a5.67,5.67,0,0,1-5.65.33L1.22,22.48c-1.59-.92-1.63-2.56-.1-3.66L26.08.93A5.69,5.69,0,0,1,31.73.6Z"/></clipPath><linearGradient id="d" x1="0" y1="28.26" x2="90.89" y2="28.26" xlink:href="#b"/><linearGradient id="e" x1="98.74" y1="45.5" x2="18.08" y2="17.17" gradientUnits="userSpaceOnUse"><stop offset="0" stop-color="#dbf9ea"/><stop offset="0.97" stop-color="#fff"/></linearGradient><linearGradient id="f" x1="-8.99" y1="33.48" x2="81.19" y2="38.42" xlink:href="#e"/><linearGradient id="g" x1="91.99" y1="40.19" x2="-10.93" y2="40.19" xlink:href="#b"/></defs><title>Magic Keyboard_2</title><g class="b"><path class="c" d="M98.34,38.88,40.48,5.5a6.24,6.24,0,0,0-5.66,0L9.45,20.25c-1.55.9-1.54,2.37,0,3.27L67.32,56.9a6.27,6.27,0,0,0,5.66,0L98.35,42.15c1.56-.9,1.55-2.37,0-3.27"/></g><g class="b"><path class="d" d="M89.68,34.06c1.58.91,1.63,2.55.1,3.64l-25,17.9a5.67,5.67,0,0,1-5.65.33L1.22,22.48c-1.59-.92-1.63-2.56-.1-3.66L26.08.93A5.69,5.69,0,0,1,31.73.6Z"/><g class="b"><g class="e"><path class="f" d="M89.68,34.06,31.73.6a5.66,5.66,0,0,0-5.65.33l-25,17.89c-1.53,1.1-1.49,2.74.1,3.65l58,33.46a5.69,5.69,0,0,0,5.65-.33l25-17.89c1.54-1.1,1.49-2.74-.09-3.65"/></g></g></g><g class="b"><path class="g" d="M84.65,34.19a.5.5,0,0,1,0,.91L62.49,51a1.43,1.43,0,0,1-1.41.09L6,19.29a.5.5,0,0,1,0-.91L28.17,2.47a1.42,1.42,0,0,1,1.41-.08Z"/><path class="h" d="M85,34.6a.57.57,0,0,1-.28.5L62.49,51a1.43,1.43,0,0,1-1.41.09L6,19.29a.53.53,0,0,1-.3-.42l.12,1.53a.54.54,0,0,0,.31.41L61.2,52.61a1.42,1.42,0,0,0,1.41-.08L84.8,36.62a.57.57,0,0,0,.28-.49Z"/></g><path class="i" d="M90.89,35.72h0a2.29,2.29,0,0,1-1.11,2l-25,17.89c-.14.09-.29.17-.44.25a3.73,3.73,0,0,1-.4.2,5.65,5.65,0,0,1-4.81-.12L1.22,22.48A2.18,2.18,0,0,1,0,20.81l.24,3.05a2.16,2.16,0,0,0,1.22,1.66L59.42,59a5.14,5.14,0,0,0,2.73.59h0a5.66,5.66,0,0,0,2.61-.75h0l25.79-15a2,2,0,0,0,1.16-1.71h0Z"/></svg>