<svg xmlns="http://www.w3.org/2000/svg" xmlns:xlink="http://www.w3.org/1999/xlink" viewBox="0 0 44.34 24.37"><defs><style>.a{fill:url(#a);}.b{fill:url(#b);}.c{fill:url(#c);}</style><linearGradient id="a" x1="17.07" y1="16.41" x2="41.11" y2="5.81" gradientUnits="userSpaceOnUse"><stop offset="0" stop-color="#292376"/><stop offset="1" stop-color="#5d278f" stop-opacity="0"/></linearGradient><linearGradient id="b" x1="39.11" y1="16.6" x2="-15.91" y2="3.24" gradientUnits="userSpaceOnUse"><stop offset="0" stop-color="#dbf9ea"/><stop offset="0.97" stop-color="#fff"/></linearGradient><linearGradient id="c" x1="11.13" y1="0.38" x2="46.48" y2="36.4" xlink:href="#b"/></defs><title>Magic Mouse_1</title><path class="a" d="M44.33,16.22c.07,1.64,0,3.08-3.51,5.14-7.82,4.51-14.41.68-22.53-4C8.46,11.61,9.75,12,9.74,8.9h0c0-3.23,1.94-5,4.54-6.62h0C21.09-1.73,24.82-.07,36,6.62,41.64,10,44.15,12.34,44.33,16.22Z"/><path class="b" d="M39.33,17.22c.07,1.64,0,3.08-3.51,5.14-7.82,4.51-14.41.68-22.53-4C3.46,12.61,2.9,11.43,2.89,8.39h0c0-3.23,1.94-5,4.54-6.62h0C14.24-2.24,19.82.93,31,7.62,36.64,11,39.15,13.34,39.33,17.22Z"/><path class="c" d="M3.93,4.86a9.12,9.12,0,0,1,3.5-3.09h0c4.65-2.74,8.77-2,13.75.37,1.86.9,14,7.19,16.77,11a3.26,3.26,0,0,1,0,1,2.42,2.42,0,0,0,0-.47c0,1.24.35,2.71-3.28,4.8-7.32,4.23-13.48.65-21.08-3.77C4.12,9.19,3.65,8,3.93,4.86Z"/></svg>