<svg xmlns="http://www.w3.org/2000/svg" xmlns:xlink="http://www.w3.org/1999/xlink" viewBox="0 0 53.91 116.29"><defs><style>.a{fill:url(#a);}.b{fill:url(#b);}.c{opacity:0.25;fill:url(#c);}.d{fill:url(#d);}.e{opacity:0.35;}.f{fill:url(#e);}.g{fill:url(#f);}.h{fill:url(#g);}.i{fill:url(#h);}.j{fill:url(#i);}</style><linearGradient id="a" x1="14.67" y1="108.02" x2="53.99" y2="94.32" gradientUnits="userSpaceOnUse"><stop offset="0" stop-color="#292376"/><stop offset="1" stop-color="#5d278f" stop-opacity="0"/></linearGradient><linearGradient id="b" x1="44.19" y1="86.55" x2="53.88" y2="86.55" gradientUnits="userSpaceOnUse"><stop offset="0" stop-color="#e76384"/><stop offset="1" stop-color="#fbb78e"/></linearGradient><linearGradient id="c" x1="50.01" y1="81.57" x2="48.07" y2="87.98" gradientUnits="userSpaceOnUse"><stop offset="0" stop-color="#ad4b5c"/><stop offset="1" stop-color="#fb4e45" stop-opacity="0"/></linearGradient><linearGradient id="d" x1="-0.77" y1="93.79" x2="56.06" y2="93.79" xlink:href="#b"/><linearGradient id="e" x1="23.11" y1="97.06" x2="41.99" y2="97.06" gradientUnits="userSpaceOnUse"><stop offset="0.03" stop-color="#fff"/><stop offset="1" stop-color="#dbf9ea" stop-opacity="0"/></linearGradient><linearGradient id="f" x1="13.28" y1="94.47" x2="37.51" y2="73.58" gradientUnits="userSpaceOnUse"><stop offset="0" stop-color="#dbf9ea"/><stop offset="0.97" stop-color="#fff"/></linearGradient><linearGradient id="g" x1="39.51" y1="75.66" x2="10.45" y2="94.72" gradientUnits="userSpaceOnUse"><stop offset="0" stop-color="#dbf9ea" stop-opacity="0"/><stop offset="1" stop-color="#8ccace"/></linearGradient><linearGradient id="h" x1="8.1" y1="92.16" x2="50.35" y2="84.29" gradientUnits="userSpaceOnUse"><stop offset="0" stop-color="#534741"/><stop offset="1" stop-color="#d1985c"/></linearGradient><linearGradient id="i" x1="26.95" y1="3.92" x2="26.95" y2="86.43" gradientUnits="userSpaceOnUse"><stop offset="0" stop-color="#fff" stop-opacity="0.25"/><stop offset="1" stop-color="#dbf9ea" stop-opacity="0"/></linearGradient></defs><title>Mug_1</title><path class="a" d="M47.44,93.09c-8.4-4.85-22-4.85-30.33,0s-8.3,12.72.09,17.56,22,4.86,30.34,0,8.3-12.71-.1-17.56"/><path class="b" d="M48,95.39Q48,96,48,96.5c3.61-4.31,5.91-9.23,5.91-13.15a6.44,6.44,0,0,0-3-5.8,5.85,5.85,0,0,0-3.15-1,7.34,7.34,0,0,0-3.59,1c.28.25.54.52.8.8a11.89,11.89,0,0,1,2,2.92,3.42,3.42,0,0,1,1.46-.44,1.15,1.15,0,0,1,.26,0,3.13,3.13,0,0,1,.53,2A12.34,12.34,0,0,1,48,87.69c0,.3,0,.6,0,.92,0,1.52,0,3.38,0,5.72Z"/><path class="c" d="M50.34,84A3.34,3.34,0,0,0,49,81a.73.73,0,0,0-.21-.06c.77.93.74,3.51-.7,6.78,0,.3,0,.62,0,.94,0,.65,0,1.37,0,2.16A13.57,13.57,0,0,0,50.34,84Z"/><path class="d" d="M24.91,116.29c11.36,0,22.74-6.91,23.12-20.9V94.33c0-2.34,0-4.2,0-5.72,0-4.49,0-6.9-3.06-10.22-4.39-4.76-12.19-7.1-20-7.1-8.47,0-16.94,2.77-21,8.22a11.8,11.8,0,0,0-1.47,2.63,9.7,9.7,0,0,0-.63,2.7c0,.22,0,.44,0,1.49,0,1.3,0,3.85,0,9.2C2.07,109.31,13.48,116.29,24.91,116.29Z"/><g class="e"><path class="f" d="M24.87,100h-.7a1.08,1.08,0,0,1-1.06-1.1,1.11,1.11,0,0,1,1.1-1.07,32.78,32.78,0,0,0,16.17-3.6,1.07,1.07,0,0,1,1.47.41,1.09,1.09,0,0,1-.42,1.48A34.57,34.57,0,0,1,24.87,100Z"/></g><path class="g" d="M25,96.17c-11.57,0-21.55-4.83-21.55-11.33,0-8.43,12.71-12.49,21.33-12.49,11.05,0,21.58,5,21.6,12.39C46.22,91.07,36.55,96.17,25,96.17Z"/><path class="h" d="M25,95.5c-10.11,0-18.83-4.22-18.83-9.9,0-7.37,11.1-10.91,18.64-10.91,9.65,0,18.85,4.37,18.87,10.82C43.53,91,35.08,95.5,25,95.5Z"/><path class="i" d="M25,95.5c7.65,0,14.35-2.57,17.21-6.22a10.8,10.8,0,0,0-1.9-2,16.38,16.38,0,0,0-3.11-2.11c-1.15-.54-2.41-.8-3.59-1.27a14.59,14.59,0,0,0-2.91-1.09,9.31,9.31,0,0,0-3,.17,37.27,37.27,0,0,1-5.88.43c-2.44,0-5-.26-7.25.59a18.22,18.22,0,0,0-6,4.13,8.68,8.68,0,0,0-1,1.23C10.43,93.05,17.31,95.5,25,95.5Z"/><path class="j" d="M26.85,89.68c-3.73,0-7.74-7.17-9.81-9.61s-4.19-5.24-4.19-8.24c0-3.9,3.51-5.21,3.51-10.39C16.36,50.94,0,49.37,0,36.11c0-7,6.16-10.81,12.66-13.44,17-6.89,13.07-10,17.46-15.9C32.7,3.3,40.05,0,42.18,0c3.09,0,11.73,5.93,11.73,14.3,0,10-9.71,18-9.71,22.71,0,4.11,5.66,8.47,5.66,16.72s-5.71,10.69-7.93,12.44C34.29,72.23,32.52,89.68,26.85,89.68Z"/></svg>