<svg xmlns="http://www.w3.org/2000/svg" xmlns:xlink="http://www.w3.org/1999/xlink" viewBox="0 0 58.64 118.79"><defs><style>.a{fill:url(#a);}.b{fill:url(#b);}.c{opacity:0.5;fill:url(#c);}.d{fill:url(#d);}.e{opacity:0.35;}.f{fill:url(#e);}.g{fill:url(#f);}.h{fill:url(#g);}.i{fill:url(#h);}.j{fill:url(#i);}</style><linearGradient id="a" x1="19.54" y1="110.25" x2="58.86" y2="96.55" gradientUnits="userSpaceOnUse"><stop offset="0" stop-color="#292376"/><stop offset="1" stop-color="#5d278f" stop-opacity="0"/></linearGradient><linearGradient id="b" x1="12.18" y1="89.05" x2="-2.9" y2="89.05" gradientUnits="userSpaceOnUse"><stop offset="0" stop-color="#d9e021"/><stop offset="1" stop-color="#f7931e"/></linearGradient><linearGradient id="c" x1="7.04" y1="92.54" x2="3.51" y2="82.89" gradientUnits="userSpaceOnUse"><stop offset="0" stop-color="#d9e021"/><stop offset="1" stop-color="#f15a24"/></linearGradient><linearGradient id="d" x1="60.1" y1="96.29" x2="1.57" y2="96.29" gradientUnits="userSpaceOnUse"><stop offset="0" stop-color="#f7931e"/><stop offset="1" stop-color="#d9e021"/></linearGradient><linearGradient id="e" x1="21.48" y1="99.56" x2="40.36" y2="99.56" gradientTransform="translate(5.88)" gradientUnits="userSpaceOnUse"><stop offset="0.03" stop-color="#fff"/><stop offset="1" stop-color="#dbf9ea" stop-opacity="0"/></linearGradient><linearGradient id="f" x1="12.22" y1="96.78" x2="45.84" y2="77.28" gradientUnits="userSpaceOnUse"><stop offset="0" stop-color="#dbf9ea"/><stop offset="0.97" stop-color="#fff"/></linearGradient><linearGradient id="g" x1="47.22" y1="78.74" x2="11.34" y2="96.61" gradientUnits="userSpaceOnUse"><stop offset="0" stop-color="#dbf9ea" stop-opacity="0"/><stop offset="1" stop-color="#8ccace"/></linearGradient><linearGradient id="h" x1="10.83" y1="93.7" x2="53.95" y2="84.58" gradientUnits="userSpaceOnUse"><stop offset="0" stop-color="#534741"/><stop offset="1" stop-color="#d1985c"/></linearGradient><linearGradient id="i" x1="28.54" y1="0.27" x2="28.54" y2="82.46" gradientUnits="userSpaceOnUse"><stop offset="0" stop-color="#fff" stop-opacity="0.25"/><stop offset="1" stop-color="#dbf9ea" stop-opacity="0"/></linearGradient></defs><title>Mug_2</title><path class="a" d="M52.31,95.32c-8.4-4.85-22-4.85-30.33,0s-8.3,12.72.1,17.56,22,4.86,30.33,0,8.31-12.71-.1-17.56"/><path class="b" d="M6.32,79.09a5.82,5.82,0,0,0-3.15,1,6.44,6.44,0,0,0-2.95,5.8c0,3.92,2.3,8.84,5.91,13.15q0-.54-.06-1.11l0-6.78c0-.32,0-.62,0-.92a12.34,12.34,0,0,1-1.24-4.82,3.13,3.13,0,0,1,.53-2,1.09,1.09,0,0,1,.26,0,3.42,3.42,0,0,1,1.46.44,11.89,11.89,0,0,1,2-2.92c.26-.28.52-.55.8-.8A7.34,7.34,0,0,0,6.32,79.09Z"/><path class="c" d="M6.06,90.17c-1.44-3.27-1.47-5.85-.7-6.78a.65.65,0,0,0-.21.06,3.34,3.34,0,0,0-1.39,3,13.44,13.44,0,0,0,2.3,6.76V91.11C6.05,90.79,6.05,90.47,6.06,90.17Z"/><path class="d" d="M6.05,91.11c0-4.48,0-6.89,3.06-10.22,4.4-4.75,12.2-7.09,20-7.09,8.48,0,16.95,2.77,21,8.22a10.86,10.86,0,0,1,1.47,2.63,9.37,9.37,0,0,1,.63,2.69,11.82,11.82,0,0,1,0,1.5c0,1.29,0,3.84,0,9.19-.2,13.78-11.61,20.76-23,20.76S6.45,111.88,6.07,97.9Z"/><g class="e"><path class="f" d="M29.12,102.52h-.7a1.08,1.08,0,0,1-1.06-1.1,1.1,1.1,0,0,1,1.1-1.06,32.79,32.79,0,0,0,16.17-3.61,1.08,1.08,0,0,1,1,1.89A34.45,34.45,0,0,1,29.12,102.52Z"/></g><path class="g" d="M7.71,87.24c0-7.39,10.56-12.38,21.6-12.38,8.63,0,21.33,4,21.33,12.49,0,6.5-10,11.33-21.55,11.33S7.89,93.57,7.71,87.24Z"/><path class="h" d="M10.42,88c0-6.45,9.23-10.82,18.87-10.82,7.54,0,18.64,3.55,18.64,10.92,0,5.67-8.72,9.89-18.83,9.89S10.58,93.55,10.42,88Z"/><path class="i" d="M11,90.32C13.05,94.73,20.47,98,29.1,98s16.27-3.09,18.29-7.54A9.06,9.06,0,0,0,45,87.15c-.94-.83-2.07-1.39-3-2.18a9.93,9.93,0,0,0-3.47-2.23,9.45,9.45,0,0,0-2.18-.29c-2.31-.12-4.66-.26-7-.26-3.73,0-7.55-.12-11.12,1.18A10,10,0,0,0,16,84.46a19.14,19.14,0,0,0-3.82,4A8.26,8.26,0,0,0,11,90.32Z"/><path class="j" d="M24.7,80.33c-3-2-10.4-2.14-10.4-7.28,0-2.88,3.3-7.11,3.3-12.4C17.6,48.47,0,47.28,0,34.07,0,20,15.49,20,22.81,17.26,33.18,13.4,44.23,0,48.31,0c2.59,0,8,3.63,8,11.8,0,9.87-9.43,18.53-9.43,24.55,0,4.72,10.21,14.19,10.21,22.38,0,15.05-21.55,1.93-21.55,23.52,0,.35,0,1.06,0,1.51,0,1.87-.15,3.78-1.51,5a4.63,4.63,0,0,1-3,1.06C25.74,89.78,29.92,83.74,24.7,80.33Z"/></svg>