<svg xmlns="http://www.w3.org/2000/svg" xmlns:xlink="http://www.w3.org/1999/xlink" viewBox="0 0 59.35 110.17"><defs><style>.a{fill:url(#a);}.b{isolation:isolate;}.c{fill:url(#b);}.d{fill:url(#c);}.e{fill:url(#d);}.f{fill:url(#e);}.g{fill:url(#f);}.h{fill:url(#g);}.i{fill:url(#h);}.j{fill:url(#i);}.k{fill:url(#j);}.l{fill:url(#k);}</style><linearGradient id="a" x1="12.89" y1="102.17" x2="52.21" y2="88.47" gradientUnits="userSpaceOnUse"><stop offset="0" stop-color="#292376"/><stop offset="1" stop-color="#5d278f" stop-opacity="0"/></linearGradient><linearGradient id="b" x1="42.22" y1="62.81" x2="50.61" y2="62.81" gradientUnits="userSpaceOnUse"><stop offset="0" stop-color="#292376"/><stop offset="1" stop-color="#5d278f"/></linearGradient><linearGradient id="c" x1="43.86" y1="77.52" x2="55.73" y2="72.55" gradientUnits="userSpaceOnUse"><stop offset="0" stop-color="#5d278f"/><stop offset="1" stop-color="#292376"/></linearGradient><linearGradient id="d" x1="41.55" y1="84.25" x2="48.49" y2="71.69" xlink:href="#b"/><linearGradient id="e" x1="22.24" y1="74.8" x2="22.24" y2="53.92" gradientUnits="userSpaceOnUse"><stop offset="0" stop-color="#dbf9ea"/><stop offset="0.97" stop-color="#fff"/></linearGradient><linearGradient id="f" x1="1.61" y1="86.95" x2="42.77" y2="86.95" xlink:href="#c"/><linearGradient id="g" x1="1.71" y1="63.78" x2="42.77" y2="63.78" xlink:href="#e"/><linearGradient id="h" x1="36.47" y1="63.79" x2="-3.71" y2="63.79" gradientUnits="userSpaceOnUse"><stop offset="0" stop-color="#dbf9ea" stop-opacity="0"/><stop offset="1" stop-color="#8ccace"/></linearGradient><linearGradient id="i" x1="34.57" y1="68.76" x2="-0.16" y2="68.76" gradientUnits="userSpaceOnUse"><stop offset="0" stop-color="#d1985c"/><stop offset="1" stop-color="#534741"/></linearGradient><linearGradient id="j" x1="29.67" y1="1.99" x2="29.67" y2="68.13" gradientUnits="userSpaceOnUse"><stop offset="0" stop-color="#fff" stop-opacity="0.25"/><stop offset="1" stop-color="#dbf9ea" stop-opacity="0"/></linearGradient><linearGradient id="k" x1="42.71" y1="64.29" x2="42.77" y2="64.29" xlink:href="#c"/></defs><title>Mug_3</title><path class="a" d="M45.66,87.24c-8.4-4.85-22-4.85-30.33,0S7,100,15.43,104.81s22,4.85,30.33,0,8.31-12.72-.1-17.57"/><g class="b"><path class="c" d="M50.61,64.12c-2-1.18-4.82-1.06-7.9.63a7,7,0,0,0,.06-.93A7.46,7.46,0,0,0,42.22,61a6.25,6.25,0,0,1,4.16.69Z"/></g><path class="d" d="M54,71.52c0,7.23-5,16.06-11.29,19.82v-4.1c4.3-2.63,7.75-8.69,7.73-13.67s-3.42-7-7.67-4.77V64.72C49,61.36,54,64.34,54,71.52Z"/><path class="e" d="M50.43,73.57c0,5-3.43,11-7.73,13.67l0-6.49a17.11,17.11,0,0,0,3.48-9.64,7.4,7.4,0,0,0-.63-3.19,4.24,4.24,0,0,1,2.53.52C49.53,69.28,50.43,71.05,50.43,73.57Z"/><g class="b"><path class="f" d="M39.17,63.81v0c0,6.74-10.16,9.76-16.87,9.76a24.48,24.48,0,0,1-12-2.87c-3.32-1.92-5-4.45-5-7h0C5.33,57,15.44,54,22.2,54S39.17,57.05,39.17,63.81Z"/><path class="g" d="M42.77,63.84l-.1,34.5c0,8.14-12.25,11.83-20.46,11.83s-20.6-3.73-20.6-11.93v0l.1-34.5v0c0,8.2,12.34,11.93,20.6,11.93S42.75,72,42.77,63.84Z"/><path class="h" d="M22.17,51.89c8.28,0,20.6,3.74,20.6,11.93S30.46,75.67,22.31,75.67,1.71,72,1.71,63.74,14,51.89,22.17,51.89ZM10.3,70.72a24.59,24.59,0,0,0,12,2.87c6.72,0,16.87-3,16.87-9.78S29,54,22.19,54,5.31,57,5.31,63.75c0,2.53,1.67,5,5,7"/></g><path class="i" d="M39.17,63.81v0c0,6.74-10.16,9.76-16.87,9.76a24.48,24.48,0,0,1-12-2.87c-3.32-1.92-5-4.45-5-7h0C5.33,57,15.44,54,22.2,54S39.17,57.05,39.17,63.81Z"/><path class="j" d="M7.65,68.71a12.61,12.61,0,0,0,2.65,2,24.48,24.48,0,0,0,12,2.87c4.75,0,11.21-1.51,14.59-4.78.2-.2-3.74-2.49-4.09-2.64-.66-.3-1.41-.44-2-.74a13.18,13.18,0,0,0-2.54-1.36,8.07,8.07,0,0,0-3,0c-1.55.19-2.85-.08-4.36,0a24.46,24.46,0,0,0-4.82.69,23.72,23.72,0,0,0-4.71,1.58C11,66.43,7.48,68.54,7.65,68.71Z"/><path class="k" d="M13.46,59.21c-2.16-5.46,2-12.68-1.89-17.09-1.58-1.79-4-2.46-6.07-3.71a11.61,11.61,0,0,1-1-19c2.64-2.05,6.1-2.9,8.56-5.16,2.22-2,3.37-5,4.75-7.64S21.11,1.17,24,.3a10.06,10.06,0,0,1,6.12.46,13.38,13.38,0,0,1,5.06,2.93c4.91,4.83,3.91,13.93,9.46,18,2.72,2,6.37,2.21,9.32,3.86a11,11,0,0,1,4.79,13c-1.48,4-5.21,6.75-9.12,8.42s-8.14,2.49-12.13,4A6.83,6.83,0,0,0,35,52.35c-1.54,1.54-1.44,4-2.19,6.09-1,2.75-3.51,4.63-5.89,6.34-1,.72-3.34,3.18-4.54,3.21s-2.26-1.57-3.12-2.33C17.08,63.74,14.57,62,13.46,59.21Z"/><path class="l" d="M42.77,63.84v.88a.09.09,0,0,0-.06,0A6.73,6.73,0,0,0,42.77,63.84Z"/></svg>