<svg xmlns="http://www.w3.org/2000/svg" xmlns:xlink="http://www.w3.org/1999/xlink" viewBox="0 0 92.95 54.67"><defs><style>.a{isolation:isolate;}.b{fill:url(#a);}.c{fill:url(#b);}</style><linearGradient id="a" x1="-436.97" y1="26.93" x2="-344.02" y2="26.93" gradientTransform="matrix(-1, 0, 0, 1, -344.02, 0)" gradientUnits="userSpaceOnUse"><stop offset="0" stop-color="#00a8ff"/><stop offset="1" stop-color="#1feaec"/></linearGradient><linearGradient id="b" x1="-436.97" y1="39.21" x2="-344.02" y2="39.21" gradientTransform="matrix(-1, 0, 0, 1, -344.02, 0)" gradientUnits="userSpaceOnUse"><stop offset="0" stop-color="#dbf9ea"/><stop offset="1" stop-color="#c0dde2"/></linearGradient></defs><title>pad</title><g class="a"><path class="b" d="M.89,22.51A1.3,1.3,0,0,0,.87,25L49.71,53.35a4.66,4.66,0,0,0,4.24,0l38.11-22a1.3,1.3,0,0,0,0-2.46L43.23.51A4.64,4.64,0,0,0,39,.51Z"/><path class="c" d="M.87,25,49.71,53.35a4.66,4.66,0,0,0,4.24,0l38.11-22A1.51,1.51,0,0,0,93,30.11v.82a1.49,1.49,0,0,1-.89,1.23L54,54.17a4.7,4.7,0,0,1-4.23,0L.87,25.78A1.49,1.49,0,0,1,0,24.56v-.81A1.49,1.49,0,0,0,.87,25Z"/></g></svg>