<svg xmlns="http://www.w3.org/2000/svg" xmlns:xlink="http://www.w3.org/1999/xlink" viewBox="0 0 132.39 77.02"><defs><style>.a{fill:url(#a);}.b{fill:url(#b);}.c{fill:url(#c);}.d{isolation:isolate;}.e{fill:url(#d);}.f{fill:url(#e);}.g{fill:url(#f);}.h{fill:url(#g);}.i{fill:url(#h);}.j{opacity:0.15;}.k,.l,.m,.n,.o{fill:none;stroke:#4e7fff;stroke-linecap:round;stroke-miterlimit:10;}.l{stroke-dasharray:1.93 1.93;}.m{stroke-dasharray:2.02 2.02;}.n{stroke-dasharray:1.97 1.97;}.o{stroke-dasharray:2.06 2.06;}</style><linearGradient id="a" x1="12.95" y1="56.92" x2="137.28" y2="17.42" gradientUnits="userSpaceOnUse"><stop offset="0" stop-color="#292376"/><stop offset="1" stop-color="#5d278f" stop-opacity="0"/></linearGradient><linearGradient id="b" x1="-1.25" y1="25.16" x2="37.88" y2="14.03" gradientUnits="userSpaceOnUse"><stop offset="0" stop-color="#dbf9ea"/><stop offset="1" stop-color="#c0dde2"/></linearGradient><linearGradient id="c" x1="-2.65" y1="20.22" x2="36.47" y2="9.09" xlink:href="#b"/><linearGradient id="d" y1="37.21" x2="127.39" y2="37.21" gradientUnits="userSpaceOnUse"><stop offset="0" stop-color="#fbb78e"/><stop offset="1" stop-color="#e76384"/></linearGradient><linearGradient id="e" y1="53.84" x2="127.39" y2="53.84" gradientUnits="userSpaceOnUse"><stop offset="0" stop-color="#e76384"/><stop offset="1" stop-color="#fbb78e"/></linearGradient><linearGradient id="f" x1="1.13" y1="35.61" x2="124.16" y2="35.61" gradientUnits="userSpaceOnUse"><stop offset="0.03" stop-color="#fff"/><stop offset="1" stop-color="#dbf9ea"/></linearGradient><linearGradient id="g" x1="1.12" y1="50.83" x2="124.16" y2="50.83" gradientUnits="userSpaceOnUse"><stop offset="0" stop-color="#dbf9ea"/><stop offset="0.97" stop-color="#fff"/></linearGradient><linearGradient id="h" x1="-1.83" y1="23.12" x2="37.3" y2="12" xlink:href="#b"/></defs><title>pad_1</title><polygon class="a" points="132.39 45.75 80.21 76.08 5 32.66 57.18 2.34 132.39 45.75"/><path class="b" d="M17.65,21.3h-1.5V20A1.74,1.74,0,0,1,17,18.5a1.72,1.72,0,0,1,1.75,0L18,19.8a.26.26,0,0,0-.38.22Z"/><path class="c" d="M35.64,10.84h-1.5V9.56a1.76,1.76,0,0,1,2.63-1.51L36,9.34a.27.27,0,0,0-.25,0,.26.26,0,0,0-.13.22Z"/><g class="d"><polygon class="e" points="127.39 43.75 75.21 74.08 0 30.66 52.18 0.34 127.39 43.75"/><polygon class="f" points="75.21 74.08 0 30.66 0 33.61 75.21 77.02 127.38 46.7 127.39 43.75 75.21 74.08"/></g><g class="d"><polygon class="g" points="124.17 41.73 73.39 71.23 1.13 29.5 51.9 0 124.17 41.73"/><polygon class="h" points="73.39 71.23 1.13 29.5 1.12 30.43 73.39 72.15 124.16 42.65 124.17 41.73 73.39 71.23"/></g><path class="i" d="M21,20.78a4.36,4.36,0,0,1-2.15-.53L18,19.8a.75.75,0,1,1,.75-1.3l.79.46a3.22,3.22,0,0,0,2.81,0l5-3a1.37,1.37,0,0,1,1.38-.07l.24.14c.07,0,.27,0,.52-.13a2.88,2.88,0,0,0,1-1l.24-.42a2.51,2.51,0,0,1,.9-.93l5.13-3c.24-.14.35-.29.35-.37s-.11-.25-.36-.39L36,9.34a.75.75,0,1,1,.75-1.29l.79.45a2,2,0,0,1,1.11,1.68,2,2,0,0,1-1.1,1.68l-5.13,3a1.14,1.14,0,0,0-.35.39l-.25.42a4.29,4.29,0,0,1-1.53,1.6,2,2,0,0,1-2,.13l-.13-.07-5,3A4.37,4.37,0,0,1,21,20.78Z"/><g class="j"><line class="k" x1="55.96" y1="13.46" x2="56.25" y2="14.42"/><line class="l" x1="56.8" y1="16.26" x2="68.77" y2="55.89"/><line class="k" x1="69.04" y1="56.81" x2="69.33" y2="57.77"/><line class="k" x1="24.38" y1="31.81" x2="25.37" y2="31.91"/><line class="m" x1="27.39" y1="32.11" x2="98.91" y2="39.22"/><line class="k" x1="99.92" y1="39.32" x2="100.91" y2="39.42"/><line class="k" x1="87.58" y1="50.01" x2="86.71" y2="49.51"/><line class="n" x1="85.01" y1="48.53" x2="41.57" y2="23.44"/><line class="k" x1="40.71" y1="22.95" x2="39.85" y2="22.45"/><line class="k" x1="82.92" y1="23.65" x2="82.06" y2="24.15"/><line class="o" x1="80.28" y1="25.19" x2="45.55" y2="45.37"/><line class="k" x1="44.66" y1="45.88" x2="43.79" y2="46.39"/><path class="k" d="M77.76,26.83c-8.4-4.85-22-4.85-30.33,0s-8.3,12.72.1,17.57,22,4.85,30.33,0,8.31-12.72-.1-17.57"/></g></svg>