<svg xmlns="http://www.w3.org/2000/svg" xmlns:xlink="http://www.w3.org/1999/xlink" viewBox="0 0 92.95 54.67"><defs><style>.a{isolation:isolate;}.b{fill:url(#a);}.c{fill:url(#b);}</style><linearGradient id="a" y1="26.93" x2="92.95" y2="26.93" gradientUnits="userSpaceOnUse"><stop offset="0" stop-color="#d9e021"/><stop offset="1" stop-color="#f7931e"/></linearGradient><linearGradient id="b" y1="39.21" x2="92.95" y2="39.21" gradientUnits="userSpaceOnUse"><stop offset="0" stop-color="#c0dde2"/><stop offset="1" stop-color="#dbf9ea"/></linearGradient></defs><title>pad_2</title><g class="a"><path class="b" d="M92.06,22.51a1.3,1.3,0,0,1,0,2.46L43.24,53.35a4.66,4.66,0,0,1-4.24,0L.89,31.35a1.3,1.3,0,0,1,0-2.46L49.72.51A4.64,4.64,0,0,1,54,.51Z"/><path class="c" d="M92.08,25,43.24,53.35a4.66,4.66,0,0,1-4.24,0L.89,31.35A1.51,1.51,0,0,1,0,30.11v.82a1.49,1.49,0,0,0,.89,1.23L39,54.17a4.7,4.7,0,0,0,4.23,0L92.08,25.78A1.49,1.49,0,0,0,93,24.56v-.81A1.49,1.49,0,0,1,92.08,25Z"/></g></svg>