<svg xmlns="http://www.w3.org/2000/svg" xmlns:xlink="http://www.w3.org/1999/xlink" viewBox="0 0 69.29 38.14"><defs><style>.a{fill:url(#a);}.b{isolation:isolate;}.c{fill:url(#b);}.d{fill:url(#c);}.e{fill:url(#d);}.f{fill:url(#e);}.g{fill:url(#f);}.h{fill:url(#g);}.i{fill:url(#h);}.j{fill:url(#i);}.k{fill:url(#j);}.l{fill:url(#k);}</style><linearGradient id="a" x1="27.96" y1="30.56" x2="47.66" y2="6.55" gradientUnits="userSpaceOnUse"><stop offset="0" stop-color="#292376"/><stop offset="1" stop-color="#5d278f" stop-opacity="0"/></linearGradient><linearGradient id="b" x1="111.9" y1="4.73" x2="120.12" y2="4.73" gradientTransform="matrix(-1, 0, 0, 1, 120.12, 0)" gradientUnits="userSpaceOnUse"><stop offset="0" stop-color="#00a8ff"/><stop offset="1" stop-color="#1feaec"/></linearGradient><linearGradient id="c" x1="86.4" y1="12.79" x2="117.76" y2="12.79" gradientTransform="matrix(-1, 0, 0, 1, 120.12, 0)" gradientUnits="userSpaceOnUse"><stop offset="0" stop-color="#e3d321"/><stop offset="1" stop-color="#fef100"/></linearGradient><linearGradient id="d" x1="65.6" y1="31.19" x2="74.53" y2="31.19" gradientTransform="matrix(-0.5, -0.86, -0.86, 0.5, 112.23, 76.1)" gradientUnits="userSpaceOnUse"><stop offset="0" stop-color="#5d278f"/><stop offset="1" stop-color="#292376"/></linearGradient><linearGradient id="e" x1="66.91" y1="25.49" x2="93.63" y2="25.49" gradientTransform="matrix(-1, 0, 0, 1, 120.12, 0)" xlink:href="#d"/><linearGradient id="f" x1="60.43" y1="31.91" x2="73.97" y2="31.91" xlink:href="#c"/><linearGradient id="g" x1="60.27" y1="36.26" x2="62.43" y2="36.26" gradientTransform="matrix(-0.5, -0.86, -0.86, 0.5, 120.95, 71.08)" gradientUnits="userSpaceOnUse"><stop offset="0" stop-color="#fef100"/><stop offset="1" stop-color="#e3d321"/></linearGradient><linearGradient id="h" x1="58.92" y1="36.69" x2="62.15" y2="36.69" gradientTransform="matrix(-1, 0, 0, 1, 120.12, 0)" xlink:href="#d"/><linearGradient id="i" x1="93.05" y1="6.31" x2="109.81" y2="6.31" gradientTransform="matrix(-1, 0, 0, 1, 120.12, 0)" xlink:href="#d"/><linearGradient id="j" x1="96.99" y1="8.42" x2="109.81" y2="8.42" gradientTransform="matrix(-1, 0, 0, 1, 120.12, 0)" xlink:href="#d"/><linearGradient id="k" x1="93.04" y1="11.01" x2="96.99" y2="11.01" gradientTransform="matrix(-1, 0, 0, 1, 120.12, 0)" xlink:href="#d"/></defs><title>Pen (2)</title><path class="a" d="M65,29,39.11,14l-.48.28L15.8,1.12l-1.27.74L12.19.51a4.68,4.68,0,0,0-4.25,0l-1.25.73a1.3,1.3,0,0,0,0,2.46L9,5.05l-1.27.74L30.59,19l-.47.28L56,34.19l.56-.33,11,2.8,1.7-1-4.86-6.38L65,29"/><g class="b"><path class="c" d="M5.43.74l2.8,1.63a1.4,1.4,0,0,0-.73-.19c-1.82,0-4,2.76-4,5.15A2,2,0,0,0,4.3,9.12L1.5,7.49h0A3.15,3.15,0,0,1,0,4.69C0,2.55,1.8.34,4,.34a3.14,3.14,0,0,1,1.47.4"/><path class="d" d="M6.32,1.22A2.7,2.7,0,0,1,9,1L33.72,15.34a2.71,2.71,0,0,0-2.7.23,8.56,8.56,0,0,0-4,6.7,2.75,2.75,0,0,0,1.14,2.58L3.5,10.5A2.77,2.77,0,0,1,2.36,7.92,8.56,8.56,0,0,1,6.32,1.22Z"/></g><g class="b"><ellipse class="e" cx="50.06" cy="31.19" rx="6.29" ry="3.65" transform="translate(-2.06 58.8) rotate(-59.84)"/><path class="f" d="M31,14.92a3.1,3.1,0,0,1,3.1-.27l19.1,11.1a3.1,3.1,0,0,0-3.1.27,9.8,9.8,0,0,0-4.53,7.66,3.15,3.15,0,0,0,1.3,3L27.8,25.54a3.19,3.19,0,0,1-1.31-3A9.82,9.82,0,0,1,31,14.92Z"/><path class="g" d="M50.11,26.67c1.38-.77,2.59-.61,3.27.26l6.32,8.15a.67.67,0,0,0-.91-.07,2.35,2.35,0,0,0-1.09,1.85c0,.46.2.74.51.78L48,36.19C46.87,36,46.13,35,46.15,33.37A8.59,8.59,0,0,1,50.11,26.67Z"/><ellipse class="h" cx="58.78" cy="36.26" rx="1.52" ry="0.88" transform="translate(-2.11 68.86) rotate(-59.84)"/><path class="i" d="M60.65,36a1.13,1.13,0,0,1-1.14,2h0l-1.3-.75a.55.55,0,0,1-.23-.53,1.75,1.75,0,0,1,.81-1.38.56.56,0,0,1,.55,0l1.31.76"/></g><g class="b"><polygon class="j" points="10.31 3.72 23.13 11.17 27.08 8.89 14.26 1.44 10.31 3.72"/><polygon class="k" points="10.31 3.72 10.32 5.67 23.14 13.12 23.13 11.17 10.31 3.72"/><polygon class="l" points="23.13 11.17 23.14 13.12 27.09 10.84 27.08 8.89 23.13 11.17"/></g></svg>