<svg xmlns="http://www.w3.org/2000/svg" xmlns:xlink="http://www.w3.org/1999/xlink" viewBox="0 0 71.59 37.8"><defs><style>.a{isolation:isolate;}.b{fill:url(#a);}.c{fill:url(#b);}.d{fill:url(#c);}.e{fill:url(#d);}.f{fill:url(#e);}.g{fill:url(#f);}.h{fill:url(#g);}.i{fill:url(#h);}.j{fill:url(#i);}.k{fill:url(#j);}.l{fill:url(#k);}</style><linearGradient id="a" x1="11.29" y1="18.79" x2="71.59" y2="18.79" gradientUnits="userSpaceOnUse"><stop offset="0" stop-color="#292376"/><stop offset="1" stop-color="#5d278f" stop-opacity="0"/></linearGradient><linearGradient id="b" x1="52.98" y1="4.39" x2="61.21" y2="4.39" gradientUnits="userSpaceOnUse"><stop offset="0" stop-color="#fbb78e"/><stop offset="1" stop-color="#e76384"/></linearGradient><linearGradient id="c" x1="27.48" y1="12.45" x2="58.84" y2="12.45" gradientUnits="userSpaceOnUse"><stop offset="0" stop-color="#c0dde2"/><stop offset="1" stop-color="#dbf9ea"/></linearGradient><linearGradient id="d" x1="6.68" y1="30.85" x2="15.62" y2="30.85" gradientTransform="translate(17.01 -1.43) rotate(30.16)" xlink:href="#b"/><linearGradient id="e" x1="7.99" y1="25.15" x2="34.71" y2="25.15" xlink:href="#b"/><linearGradient id="f" x1="1.51" y1="31.57" x2="15.05" y2="31.57" gradientUnits="userSpaceOnUse"><stop offset="0" stop-color="#fff"/><stop offset="1" stop-color="#dbf9ea"/></linearGradient><linearGradient id="g" x1="1.35" y1="35.92" x2="3.51" y2="35.92" gradientTransform="translate(18.38 3.64) rotate(30.16)" xlink:href="#f"/><linearGradient id="h" y1="36.35" x2="3.23" y2="36.35" gradientUnits="userSpaceOnUse"><stop offset="0" stop-color="#5d278f"/><stop offset="1" stop-color="#292376"/></linearGradient><linearGradient id="i" x1="34.13" y1="5.97" x2="50.89" y2="5.97" xlink:href="#b"/><linearGradient id="j" x1="38.07" y1="8.08" x2="50.89" y2="8.08" xlink:href="#b"/><linearGradient id="k" x1="34.12" y1="10.66" x2="38.07" y2="10.66" xlink:href="#b"/></defs><title>Pen</title><g class="a"><path class="b" d="M70.7,2.51l-1.26-.73a4.66,4.66,0,0,0-4.24,0L62.87,3.14l-1.28-.75-24.1,14L37,16.12,15.51,28.61l.56.32-4.78,6.39,1.71,1,11-2.79.56.33,21.5-12.5-.48-.27,24.1-14-1.29-.74L70.72,5a1.3,1.3,0,0,0,0-2.46"/></g><g class="a"><path class="c" d="M55.78.4,53,2a1.37,1.37,0,0,1,.73-.19c1.82,0,4,2.76,4,5.15a2,2,0,0,1-.81,1.79l2.8-1.63h0a3.15,3.15,0,0,0,1.51-2.81c0-2.13-1.81-4.34-4-4.34a3,3,0,0,0-1.47.4"/><path class="d" d="M54.89.88A2.7,2.7,0,0,0,52.18.65L27.48,15a2.73,2.73,0,0,1,2.71.23,8.56,8.56,0,0,1,4,6.7A2.77,2.77,0,0,1,33,24.51l24.7-14.35a2.77,2.77,0,0,0,1.13-2.58A8.58,8.58,0,0,0,54.89.88Z"/></g><g class="a"><ellipse class="e" cx="11.15" cy="30.85" rx="3.65" ry="6.29" transform="translate(-13.99 9.78) rotate(-30.16)"/><path class="f" d="M30.18,14.58a3.1,3.1,0,0,0-3.1-.27L8,25.41a3.1,3.1,0,0,1,3.1.27,9.79,9.79,0,0,1,4.52,7.66,3.15,3.15,0,0,1-1.3,2.95L33.41,25.2a3.18,3.18,0,0,0,1.3-3A9.77,9.77,0,0,0,30.18,14.58Z"/><path class="g" d="M11.09,26.33c-1.38-.77-2.59-.61-3.26.26L1.51,34.74a.66.66,0,0,1,.9-.07,2.36,2.36,0,0,1,1.1,1.85c0,.46-.2.74-.51.78l10.21-1.45c1.12-.16,1.86-1.18,1.84-2.82A8.56,8.56,0,0,0,11.09,26.33Z"/><ellipse class="h" cx="2.43" cy="35.92" rx="0.88" ry="1.52" transform="translate(-17.72 6.08) rotate(-30.16)"/><path class="i" d="M.56,35.7a1.1,1.1,0,0,0-.5.62A1.13,1.13,0,0,0,1.7,37.65h0L3,36.9a.6.6,0,0,0,.23-.53A1.78,1.78,0,0,0,2.42,35a.58.58,0,0,0-.56-.05l-1.3.76"/></g><g class="a"><polygon class="j" points="50.89 3.38 38.07 10.83 34.13 8.55 46.95 1.1 50.89 3.38"/><polygon class="k" points="50.89 3.38 50.89 5.33 38.07 12.78 38.07 10.83 50.89 3.38"/><polygon class="l" points="38.07 10.83 38.07 12.78 34.12 10.5 34.13 8.55 38.07 10.83"/></g></svg>