<svg xmlns="http://www.w3.org/2000/svg" xmlns:xlink="http://www.w3.org/1999/xlink" viewBox="0 0 68.28 38.75"><defs><style>.a{fill:url(#a);}.b{fill:#ed5145;}.c{fill:#e6e6e6;}.d{fill:#e5c59a;}.e{fill:url(#b);}.f{fill:url(#c);}.g{fill:url(#d);}.h{fill:#333;}</style><linearGradient id="a" x1="32.14" y1="29.21" x2="52.74" y2="9.02" gradientUnits="userSpaceOnUse"><stop offset="0" stop-color="#292376"/><stop offset="1" stop-color="#5d278f" stop-opacity="0"/></linearGradient><linearGradient id="b" x1="-14.84" y1="5.35" x2="48.78" y2="32.85" gradientUnits="userSpaceOnUse"><stop offset="0" stop-color="#fbb03b"/><stop offset="1" stop-color="#f15a24"/></linearGradient><linearGradient id="c" x1="-15.54" y1="0.74" x2="97.83" y2="51.37" xlink:href="#b"/><linearGradient id="d" x1="5.2" y1="7.27" x2="118.7" y2="49.39" xlink:href="#b"/></defs><title>Pencil_4</title><path class="a" d="M58.46,36.13h0m-46-31-3,2.38,1.11,1.74L58.49,36.14l9.79,1.61-3.76-6.37L16.6,4.45l-4.13.64"/><path class="b" d="M2.64.87c2.53-2,4.77-.1,6.13.72l0,0h0l.07,0-.09,0c-2.65.36-5.42,4-5.42,7.33a4.8,4.8,0,0,0,.15,1.2,1.32,1.32,0,0,0,.29.24c-1.92-1.12-2.51-1.35-3-2C-.85,6.33.21,2.78,2.64.87Z"/><path class="c" d="M6.14,12.23c3,0,5.87-4.08,5.87-7.31,0-1.87-1-3.34-2.8-3.34-2.77,0-5.85,3.83-5.85,7.36C3.36,11.21,4.74,12.23,6.14,12.23Z"/><path class="d" d="M49.59,33a6.06,6.06,0,0,1,2.21-1.65l.26-.13a9.78,9.78,0,0,1,1.29-1.58,5.69,5.69,0,0,1,2.41-.56l6.52,9.66-10.19-.16h0a9.71,9.71,0,0,1-1.58-1.43A2,2,0,0,1,50.22,36s-.16-.35-.33-.82A3.51,3.51,0,0,1,49.59,33Z"/><path class="e" d="M50.22,36,4.35,9.33l1.87,2.61L52.09,38.59a10.29,10.29,0,0,1-1.6-1.44A2,2,0,0,1,50.22,36Z"/><path class="f" d="M52.07,31.23,6.2,4.58,4.35,9.33,50.22,36s-1-2.16-.63-3S52.07,31.23,52.07,31.23Z"/><path class="g" d="M55.76,29.09,9.89,2.44,6.2,4.58,52.07,31.23a9.52,9.52,0,0,1,1.28-1.58A5.72,5.72,0,0,1,55.76,29.09Z"/><path class="h" d="M57.88,38.69h0a1,1,0,0,1-.41-1,3.14,3.14,0,0,1,1.45-2.45,1,1,0,0,1,.94-.11l2.42,3.58Z"/></svg>