<svg xmlns="http://www.w3.org/2000/svg" xmlns:xlink="http://www.w3.org/1999/xlink" viewBox="0 0 37.45 20.85"><defs><style>.a{fill:url(#a);}.b{fill:#ed5145;}.c{fill:#e6e6e6;}.d{fill:url(#b);}.e{fill:url(#c);}.f{fill:url(#d);}.g{fill:#e5c59a;}.h{fill:#333;}</style><linearGradient id="a" x1="18.74" y1="16.38" x2="30.86" y2="4.5" gradientUnits="userSpaceOnUse"><stop offset="0" stop-color="#292376"/><stop offset="1" stop-color="#5d278f" stop-opacity="0"/></linearGradient><linearGradient id="b" x1="-10.87" y1="4.57" x2="18.8" y2="17.65" gradientUnits="userSpaceOnUse"><stop offset="0" stop-color="#fbb03b"/><stop offset="1" stop-color="#f15a24"/></linearGradient><linearGradient id="c" x1="-4.66" y1="3.8" x2="44.34" y2="24.93" xlink:href="#b"/><linearGradient id="d" x1="5.54" y1="4.06" x2="42.87" y2="18.31" xlink:href="#b"/></defs><title>Pencil_3</title><path class="a" d="M27.63,18.22h0M10.56,3.16l-3,2.38L8.66,7.28l19,11,9.79,1.62-3.76-6.38-19-11-4.13.64"/><path class="b" d="M2.64.87c2.53-2,4.77-.1,6.13.72l0,0h0l.07,0-.09,0c-2.65.36-5.42,4-5.42,7.33a4.8,4.8,0,0,0,.15,1.2,1.32,1.32,0,0,0,.29.24c-1.92-1.12-2.51-1.35-3-2C-.85,6.33.21,2.78,2.64.87Z"/><path class="c" d="M6.14,12.23c3,0,5.87-4.08,5.87-7.31,0-1.87-1-3.34-2.8-3.34-2.77,0-5.85,3.83-5.85,7.36C3.36,11.21,4.74,12.23,6.14,12.23Z"/><path class="d" d="M19.39,18.07l-15-8.74,1.86,2.61,15.05,8.75C20.06,19.78,19.27,19.15,19.39,18.07Z"/><path class="e" d="M21.24,13.32l-15-8.74L4.35,9.33l15,8.74s-2-2.68-1.65-3.48S21.24,13.32,21.24,13.32Z"/><path class="f" d="M24.93,11.19l-15-8.75L6.19,4.58l15,8.74a5.69,5.69,0,0,1,1-2C22.85,10.83,24.93,11.19,24.93,11.19Z"/><path class="g" d="M19.39,18.07s-2-2.68-1.65-3.48,3.5-1.27,3.5-1.27a5.69,5.69,0,0,1,1-2c.57-.49,2.64-.15,2.66-.14h0l6.52,9.66-10.19-.16C19.92,19.69,19.28,19.07,19.39,18.07Z"/><path class="h" d="M27.05,20.78h0a1,1,0,0,1-.41-1,3.14,3.14,0,0,1,1.45-2.46,1,1,0,0,1,.94-.11l2.42,3.59Z"/></svg>