<svg xmlns="http://www.w3.org/2000/svg" xmlns:xlink="http://www.w3.org/1999/xlink" viewBox="0 0 69.5 38.76"><defs><style>.a{isolation:isolate;}.b{fill:url(#a);}.c{fill:#ed5145;}.d{fill:#e6e6e6;}.e{fill:#e5c59a;}.f{fill:url(#b);}.g{fill:url(#c);}.h{fill:url(#d);}.i{fill:#333;}</style><linearGradient id="a" x1="10" y1="21.26" x2="69.5" y2="21.26" gradientUnits="userSpaceOnUse"><stop offset="0" stop-color="#292376"/><stop offset="1" stop-color="#5d278f" stop-opacity="0"/></linearGradient><linearGradient id="b" x1="-19.54" y1="50.18" x2="60.46" y2="11.05" gradientUnits="userSpaceOnUse"><stop offset="0" stop-color="#fbb03b"/><stop offset="1" stop-color="#f15a24"/></linearGradient><linearGradient id="c" x1="-4.51" y1="37.89" x2="87.24" y2="-3.99" xlink:href="#b"/><linearGradient id="d" x1="4.92" y1="28.69" x2="108.76" y2="-17.97" xlink:href="#b"/></defs><title>Pencil_2</title><g class="a"><path class="b" d="M19.82,37.13h0M66.61,4.26l-3-.47A1.74,1.74,0,0,0,62.4,4L13.76,32.38,10,38.76l9.79-1.62L68.61,8.67a1.72,1.72,0,0,0,.61-.59h0a1.8,1.8,0,0,0-.4-2.38L67.45,4.62A1.71,1.71,0,0,0,66.61,4.26Z"/></g><path class="c" d="M59.63.87c-2.52-2-4.76-.1-6.13.72l0,0h0l-.06,0,.09,0c2.65.36,5.42,4,5.42,7.33a4.36,4.36,0,0,1-.16,1.2,1.27,1.27,0,0,1-.28.24c1.92-1.12,2.5-1.35,3-2C63.12,6.33,62.07,2.78,59.63.87Z"/><path class="d" d="M58.92,8.94c0-3.53-3.08-7.36-5.85-7.36-1.79,0-2.8,1.47-2.8,3.34,0,3.23,2.92,7.31,5.87,7.31C57.54,12.23,58.92,11.21,58.92,8.94Z"/><path class="e" d="M12.69,33a5.92,5.92,0,0,0-2.21-1.65l-.27-.14a9.31,9.31,0,0,0-1.29-1.57,5.54,5.54,0,0,0-2.41-.56L0,38.76l10.19-.16h0a10.86,10.86,0,0,0,1.58-1.44A1.93,1.93,0,0,0,12.05,36s.17-.35.34-.82A3.48,3.48,0,0,0,12.69,33Z"/><path class="f" d="M12.05,36,57.92,9.33l-1.86,2.61L10.19,38.6a11,11,0,0,0,1.6-1.45A1.93,1.93,0,0,0,12.05,36Z"/><path class="g" d="M10.21,31.23,56.08,4.58l1.84,4.75L12.05,36s1-2.16.64-3S10.21,31.23,10.21,31.23Z"/><path class="h" d="M6.51,29.1,52.38,2.45l3.7,2.13L10.21,31.23a10,10,0,0,0-1.28-1.58A5.7,5.7,0,0,0,6.51,29.1Z"/><path class="i" d="M4.4,38.69h0a1,1,0,0,0,.42-.95,3.14,3.14,0,0,0-1.45-2.46,1,1,0,0,0-.94-.11L0,38.76Z"/></svg>