<svg xmlns="http://www.w3.org/2000/svg" xmlns:xlink="http://www.w3.org/1999/xlink" viewBox="0 0 41.6 20.85"><defs><style>.a{isolation:isolate;}.b{fill:url(#a);}.c{fill:#ed5145;}.d{fill:#e6e6e6;}.e{fill:url(#b);}.f{fill:url(#c);}.g{fill:url(#d);}.h{fill:#e5c59a;}.i{fill:#333;}</style><linearGradient id="a" x1="10" y1="11.56" x2="41.6" y2="11.56" gradientUnits="userSpaceOnUse"><stop offset="0" stop-color="#292376"/><stop offset="1" stop-color="#5d278f" stop-opacity="0"/></linearGradient><linearGradient id="b" x1="0.08" y1="21.53" x2="24.5" y2="12.95" gradientUnits="userSpaceOnUse"><stop offset="0" stop-color="#fbb03b"/><stop offset="1" stop-color="#f15a24"/></linearGradient><linearGradient id="c" x1="4.06" y1="16.93" x2="38.14" y2="3.85" xlink:href="#b"/><linearGradient id="d" x1="6.89" y1="11.18" x2="42.8" y2="-1.98" xlink:href="#b"/></defs><title>Pencil_1</title><g class="a"><path class="b" d="M19.82,19.22h0M39.18,2.85l-3.5-.55a1.86,1.86,0,0,0-1.18.22l-20.74,12L10,20.85l9.79-1.62,20.92-12a1.81,1.81,0,0,0,.61-.59h0a1.79,1.79,0,0,0-.4-2.38L39.18,2.85"/></g><path class="c" d="M28.81.87c-2.52-2-4.76-.1-6.13.72l0,0h0l-.06,0s.06,0,.09,0c2.65.36,5.42,4,5.42,7.33a4.36,4.36,0,0,1-.16,1.2,1.27,1.27,0,0,1-.28.24c1.92-1.12,2.5-1.35,3-2C32.3,6.33,31.25,2.78,28.81.87Z"/><path class="d" d="M22.25,1.58c-1.78,0-2.81,1.44-2.81,3.34,0,3.23,2.93,7.31,5.88,7.31,1.44,0,2.74-1,2.78-3.4C28,5.31,24.92,1.58,22.25,1.58Z"/><path class="e" d="M12.05,18.07,27.1,9.33l-1.86,2.61-15,8.75a11,11,0,0,0,1.6-1.45A1.93,1.93,0,0,0,12.05,18.07Z"/><path class="f" d="M10.21,13.32,25.26,4.58,27.1,9.33l-15,8.74s2-2.68,1.66-3.48S10.21,13.32,10.21,13.32Z"/><path class="g" d="M6.51,11.19,21.56,2.45l3.7,2.13-15,8.74a5.59,5.59,0,0,0-1-2C8.6,10.84,6.51,11.19,6.51,11.19Z"/><path class="h" d="M12.05,18.07s2-2.68,1.66-3.48-3.5-1.27-3.5-1.27a5.59,5.59,0,0,0-1-2c-.57-.49-2.64-.14-2.65-.14h0L0,20.85l10.19-.16C11.53,19.69,12.17,19.07,12.05,18.07Z"/><path class="i" d="M4.4,20.78h0a1,1,0,0,0,.42-1,3.14,3.14,0,0,0-1.45-2.46,1.06,1.06,0,0,0-.94-.11L0,20.85Z"/></svg>