<svg xmlns="http://www.w3.org/2000/svg" xmlns:xlink="http://www.w3.org/1999/xlink" viewBox="0 0 50.32 53.54"><defs><style>.a{fill:url(#a);}.b{fill:url(#b);}.c{fill:url(#c);}.d{fill:url(#d);}.e{fill:url(#e);}.f{fill:url(#f);}.g{fill:url(#g);}.h{fill:url(#h);}.i{fill:url(#i);}.j{fill:url(#j);}.k{fill:url(#k);}.l{fill:url(#l);}.m{fill:url(#m);}.n{fill:url(#n);}.o{fill:url(#o);}.p{fill:url(#p);}.q{fill:url(#q);}.r{fill:url(#r);}</style><linearGradient id="a" x1="14.76" y1="45.95" x2="50.52" y2="33.49" gradientUnits="userSpaceOnUse"><stop offset="0" stop-color="#292376"/><stop offset="1" stop-color="#5d278f" stop-opacity="0"/></linearGradient><linearGradient id="b" x1="4.34" y1="20.18" x2="41.55" y2="20.18" gradientUnits="userSpaceOnUse"><stop offset="0" stop-color="#534741"/><stop offset="1" stop-color="#d1985c"/></linearGradient><linearGradient id="c" x1="-560.74" y1="-851.16" x2="-522.68" y2="-851.16" gradientTransform="translate(-518.77 -837.71) rotate(180)" gradientUnits="userSpaceOnUse"><stop offset="0" stop-color="#dbf9ea"/><stop offset="0.97" stop-color="#fff"/></linearGradient><linearGradient id="d" y1="35.63" x2="45.85" y2="35.63" gradientUnits="userSpaceOnUse"><stop offset="0" stop-color="#1feaec"/><stop offset="1" stop-color="#00a8ff"/></linearGradient><linearGradient id="e" x1="0.03" y1="17.79" x2="45.85" y2="17.79" gradientTransform="matrix(1, 0, 0, 1, 0, 0)" xlink:href="#c"/><linearGradient id="f" x1="-513.07" y1="22.86" x2="-504.5" y2="22.86" gradientTransform="matrix(-1, 0.06, 0.06, 1, -490.27, 14.24)" gradientUnits="userSpaceOnUse"><stop offset="0" stop-color="#25ce81"/><stop offset="1" stop-color="#c3e421"/></linearGradient><linearGradient id="g" x1="-537.22" y1="12.88" x2="-526.49" y2="12.88" gradientTransform="matrix(-1, 0, 0, 1, -516.94, 0)" xlink:href="#f"/><linearGradient id="h" x1="-584.47" y1="-17.84" x2="-575.48" y2="-17.84" gradientTransform="matrix(-1, -0.08, -0.08, 1, -551.95, -22.77)" xlink:href="#f"/><linearGradient id="i" x1="-534.51" y1="23.79" x2="-529.2" y2="23.79" gradientTransform="matrix(-1, 0, 0, 1, -516.94, 0)" xlink:href="#f"/><linearGradient id="j" x1="-490.39" y1="41.78" x2="-481.34" y2="41.78" gradientTransform="matrix(-1, 0.09, 0.09, 1, -476.57, 20.49)" xlink:href="#f"/><linearGradient id="k" x1="42.16" y1="22.47" x2="51.21" y2="22.47" gradientTransform="translate(-13.46 -5.73) rotate(-2.08)" xlink:href="#f"/><linearGradient id="l" x1="-465.04" y1="65.55" x2="-461.03" y2="65.55" gradientTransform="matrix(-0.98, 0.19, 0.19, 0.98, -429.8, 44.85)" xlink:href="#f"/><linearGradient id="m" x1="-706.42" y1="-127.48" x2="-703.14" y2="-127.48" gradientTransform="matrix(-0.92, -0.4, -0.4, 0.92, -663.38, -143.06)" xlink:href="#f"/><linearGradient id="n" x1="-553.2" y1="9.84" x2="-544.69" y2="9.84" gradientTransform="matrix(-1, 0, 0, 1, -516.94, 0)" xlink:href="#f"/><linearGradient id="o" x1="-548.95" y1="13.64" x2="-535.97" y2="13.64" gradientTransform="matrix(-1, 0, 0, 1, -516.94, 0)" xlink:href="#f"/><linearGradient id="p" x1="-542.64" y1="20.69" x2="-533.65" y2="20.69" gradientTransform="matrix(-1, 0, 0, 1, -516.94, 0)" xlink:href="#f"/><linearGradient id="q" x1="-553.2" y1="17.51" x2="-540.07" y2="17.51" gradientTransform="matrix(-1, 0, 0, 1, -516.94, 0)" xlink:href="#f"/><linearGradient id="r" x1="-547.6" y1="23.58" x2="-537.22" y2="23.58" gradientTransform="matrix(-1, 0, 0, 1, -516.94, 0)" xlink:href="#f"/></defs><title>Plant_1</title><path class="a" d="M44.56,32.37C36.92,28,24.56,28,17,32.37s-7.55,11.57.09,16,20,4.41,27.59,0,7.56-11.57-.09-16"/><path class="b" d="M22.87,11.56a27.48,27.48,0,0,0-13.2,3.09,11.29,11.29,0,0,0-5.33,5.57C6.51,26.09,16.27,28.81,23,28.81s16.44-2.68,18.55-8.59C39.44,14.3,29.63,11.56,22.87,11.56Z"/><path class="c" d="M22.87,11.56c6.73,0,16.49,2.71,18.66,8.59A6.77,6.77,0,0,0,42,17.82c0-7.59-11.49-11.06-19.1-11.06s-19,3.4-19,11a7,7,0,0,0,.42,2.4C6.43,14.24,16.16,11.56,22.87,11.56Z"/><path class="d" d="M0,17.72v0c0,9.13,13.82,13.31,23,13.31s22.81-4.17,22.84-13.21l0,6.5c0,9-3,29.19-22.83,29.19S0,33.38,0,24.24Z"/><path class="e" d="M0,17.75C0,8.61,13.76,4.52,22.86,4.52s23,4.17,23,13.31S32.11,31.06,23,31.06,0,26.89,0,17.75ZM9.67,9.86C5.83,12,3.9,14.88,3.9,17.75c0,7.59,11.49,11.06,19.1,11.06s19-3.4,19-11S30.48,6.76,22.87,6.76a27.49,27.49,0,0,0-13.2,3.1"/><path class="f" d="M22.88,13.64S26,4,17.22.09a9,9,0,0,0-2.53,7.1C15,12.74,22.88,13.64,22.88,13.64Z"/><path class="g" d="M15.11,20a8.28,8.28,0,0,1-5.56-7.76,10.78,10.78,0,0,1,2.5-6.46s8.24,4.08,8.24,7.61A6.41,6.41,0,0,1,15.11,20Z"/><path class="h" d="M23.35,12.56c-1.18-2.68-1-8.75,6.37-12.56,0,0,2.67,2.43,2.25,7.65S23.35,12.56,23.35,12.56Z"/><path class="i" d="M17.58,25.46s-1.4-3.39-4.1-3.39C10.8,23.76,12.7,25.83,17.58,25.46Z"/><path class="j" d="M16,21.37s-3.45-7.75-8.84-7.5a11.9,11.9,0,0,0-.55,4.2C6.76,20.06,9.93,21.92,16,21.37Z"/><path class="k" d="M29.64,19.32s2.43-8.12,7.82-8.56a12.05,12.05,0,0,1,1.08,4.1C38.61,16.85,35.7,19.1,29.64,19.32Z"/><path class="l" d="M35.64,22.61s-.32-2.69,3-4.85C38.64,17.76,40.45,20.51,35.64,22.61Z"/><path class="m" d="M30.82,25.2s1-2,4.28-1.85C35.1,23.35,35,26,30.82,25.2Z"/><path class="n" d="M27.76,13.37s-.11-7.6,8.34-7.6C36.1,5.77,38.16,16.34,27.76,13.37Z"/><path class="o" d="M20,20.47A22.62,22.62,0,0,1,19,15.21c0-3.8,8.19-8.39,8.19-8.39S32,9,32,13.9,24.1,20.47,20,20.47Z"/><path class="p" d="M22,25.28s3.69-.7,3.69-4.09-6-5.1-6-5.1a4.27,4.27,0,0,0-3,3.9C16.71,24.08,22,25.28,22,25.28Z"/><path class="q" d="M23.25,23.79s-2.08-8,10.84-12.55c0,0,2.18,3.43,2.18,5.68S34.62,23.79,23.25,23.79Z"/><path class="r" d="M20.29,26s.18-3.46,7.64-5.92c0,0,2.73,1.46,2.73,3.53s-2.93,3.43-7.12,3.43A6.87,6.87,0,0,1,20.29,26Z"/></svg>