<svg xmlns="http://www.w3.org/2000/svg" xmlns:xlink="http://www.w3.org/1999/xlink" viewBox="0 0 57.77 70.68"><defs><style>.a{fill:url(#a);}.b{fill:url(#b);}.c{fill:url(#c);}.d{fill:url(#d);}.e{fill:url(#e);}.f{fill:url(#f);}.g{fill:url(#g);}.h{fill:url(#h);}.i{fill:url(#i);}.j{fill:url(#j);}.k{fill:url(#k);}.l{fill:url(#l);}.m{fill:url(#m);}.n{fill:url(#n);}.o{fill:url(#o);}.p{fill:url(#p);}.q{fill:url(#q);}</style><linearGradient id="a" x1="18.68" y1="62.89" x2="58" y2="49.19" gradientUnits="userSpaceOnUse"><stop offset="0" stop-color="#292376"/><stop offset="1" stop-color="#5d278f" stop-opacity="0"/></linearGradient><linearGradient id="b" x1="50.23" y1="17.35" x2="1.93" y2="18.87" gradientUnits="userSpaceOnUse"><stop offset="0" stop-color="#e76c6b"/><stop offset="1" stop-color="#fbb78e"/></linearGradient><linearGradient id="c" x1="-10.1" y1="55.46" x2="69.07" y2="54.03" xlink:href="#b"/><linearGradient id="d" x1="68.76" y1="20.18" x2="7.92" y2="36.28" xlink:href="#b"/><linearGradient id="e" x1="0.03" y1="21.45" x2="57.38" y2="21.45" xlink:href="#b"/><linearGradient id="f" x1="29.51" y1="13.09" x2="27.8" y2="41.16" gradientUnits="userSpaceOnUse"><stop offset="0" stop-color="#534741"/><stop offset="1" stop-color="#d1985c"/></linearGradient><linearGradient id="g" x1="28.7" y1="9.31" x2="38.87" y2="9.31" gradientUnits="userSpaceOnUse"><stop offset="0" stop-color="#25ce81"/><stop offset="1" stop-color="#c3e421"/></linearGradient><linearGradient id="h" x1="31.86" y1="16.31" x2="45.29" y2="16.31" xlink:href="#g"/><linearGradient id="i" x1="17.95" y1="8.16" x2="29.2" y2="8.16" xlink:href="#g"/><linearGradient id="j" x1="34.33" y1="29.71" x2="41.09" y2="29.71" xlink:href="#g"/><linearGradient id="k" x1="37.71" y1="21.49" x2="49.04" y2="21.49" xlink:href="#g"/><linearGradient id="l" x1="12.77" y1="28.55" x2="16.39" y2="28.55" xlink:href="#g"/><linearGradient id="m" x1="10.21" y1="15.77" x2="19.77" y2="15.77" xlink:href="#g"/><linearGradient id="n" x1="17.95" y1="17.54" x2="32.7" y2="17.54" xlink:href="#g"/><linearGradient id="o" x1="25.08" y1="26.08" x2="36.33" y2="26.08" xlink:href="#g"/><linearGradient id="p" x1="11.39" y1="23.75" x2="28.14" y2="23.75" xlink:href="#g"/><linearGradient id="q" x1="18.87" y1="29.7" x2="31.86" y2="29.7" xlink:href="#g"/></defs><title>Plant_2</title><path class="a" d="M51.44,48c-8.4-4.85-22-4.85-30.33,0s-8.3,12.72.1,17.57,22,4.85,30.33,0,8.31-12.71-.1-17.57"/><path class="b" d="M6.91,21.41a8.33,8.33,0,0,0,1.75,5.08c4-5,13.28-7.28,19.94-7.28s16.09,2.34,20.12,7.4a8.34,8.34,0,0,0,1.77-5.12h0v-.14C50.33,12.73,37.27,8.83,28.63,8.83a31.56,31.56,0,0,0-15.11,3.54c-4.76,2.67-6.61,6-6.61,9Z"/><path class="c" d="M53.05,38.49c-2.56,8.41-5.13,15-7.68,24-1.62,5.65-10.24,8.21-16.73,8.21-7.62,0-15.41-3.14-16.86-8.3Q8.54,50.82,5.31,39.25c6,4.72,16,6.94,23.45,6.94C36.79,46.19,47.27,43.71,53.05,38.49Z"/><path class="d" d="M0,29.53v0l0-8.13v0C0,32.83,17.34,38.06,28.8,38.06s28.54-5.22,28.58-16.53l0,8.13c0,11.28-16.89,16.53-28.57,16.53C17.32,46.19,0,41,0,29.53Z"/><path class="e" d="M0,21.4C0,10,17.22,4.84,28.61,4.84S57.38,10.06,57.38,21.5,40.19,38.06,28.8,38.06,0,32.84,0,21.4Zm13.49-9c-4.4,2.47-6.61,5.75-6.61,9,0,8.69,13.15,12.66,21.87,12.66s21.71-3.89,21.71-12.58S37.34,8.83,28.63,8.83a31.56,31.56,0,0,0-15.11,3.54"/><path class="f" d="M48.72,26.61c-3.85,5.11-13.22,7.47-19.94,7.47S12.51,31.66,8.66,26.49c4-5,13.28-7.28,19.94-7.28S44.69,21.56,48.72,26.61Z"/><path class="g" d="M29.62,17.54S25.29,6.33,35.37,1.08a10.68,10.68,0,0,1,3.5,8.23C38.87,15.92,29.62,17.54,29.62,17.54Z"/><path class="h" d="M38.33,25.21s7-2.21,7-9.71c0-4.58-4-8.08-4-8.08s-9.43,5.09-9.43,9.51A8,8,0,0,0,38.33,25.21Z"/><path class="i" d="M28.2,16.31C30,13.08,30.29,5.5,21.54,0,21.54,0,18,2.76,18,9.31S28.2,16.31,28.2,16.31Z"/><path class="j" d="M34.33,31.83s1.75-4.25,5.12-4.25S40.89,31,34.33,31.83Z"/><path class="k" d="M37.71,26.67s3.41-10,10.16-10.36A15.17,15.17,0,0,1,49,21.49C49,24,45.29,26.67,37.71,26.67Z"/><path class="l" d="M16.39,30.44s-.19-2.44-3.5-3.77C12.89,26.67,11.77,29.42,16.39,30.44Z"/><path class="m" d="M19.77,19.74s.12-8.54-9.38-8.54C10.39,11.2,8.08,23.08,19.77,19.74Z"/><path class="n" d="M31.54,26.08A28.39,28.39,0,0,0,32.7,19.5C32.7,14.75,22.45,9,22.45,9A9.71,9.71,0,0,0,18,17.54C18,23.67,26.37,26.08,31.54,26.08Z"/><path class="o" d="M29.7,31.83s-4.62-.87-4.62-5.12,7.5-6.38,7.5-6.38,3.75,1.13,3.75,4.88C36.33,30.33,29.7,31.83,29.7,31.83Z"/><path class="p" d="M28.14,30S28,22.87,12.89,17.54c0,0-1.5.86-1.5,3.48S14.89,30,28.14,30Z"/><path class="q" d="M31.86,32.76s-.24-4.33-9.57-7.42c0,0-3.42,1.84-3.42,4.42s3.67,4.29,8.92,4.29A8.7,8.7,0,0,0,31.86,32.76Z"/></svg>