<svg xmlns="http://www.w3.org/2000/svg" xmlns:xlink="http://www.w3.org/1999/xlink" viewBox="0 0 96.34 28.84"><defs><style>.a{fill:url(#a);}.b{isolation:isolate;}.c{fill:url(#b);}.d{fill:url(#c);}.e{fill:url(#d);}.f{fill:url(#e);}.g{fill:url(#f);}.h{fill:url(#g);}.i{fill:url(#h);}.j{fill:url(#i);}.k{fill:url(#j);}</style><linearGradient id="a" x1="32.2" y1="36.73" x2="88.93" y2="7.09" gradientUnits="userSpaceOnUse"><stop offset="0" stop-color="#292376"/><stop offset="1" stop-color="#5d278f" stop-opacity="0"/></linearGradient><linearGradient id="b" x1="44.07" y1="14.11" x2="61.75" y2="14.11" gradientUnits="userSpaceOnUse"><stop offset="0" stop-color="#e76384"/><stop offset="1" stop-color="#fbb78e"/></linearGradient><linearGradient id="c" x1="28.78" y1="19.16" x2="51.87" y2="6.66" xlink:href="#b"/><linearGradient id="d" x1="0.01" y1="12.79" x2="88.34" y2="12.79" gradientUnits="userSpaceOnUse"><stop offset="0" stop-color="#d9e021"/><stop offset="1" stop-color="#f7931e"/></linearGradient><linearGradient id="e" x1="0" y1="27.21" x2="88.34" y2="27.21" xlink:href="#b"/><linearGradient id="f" x1="87.24" y1="27.07" x2="40.49" y2="3.82" gradientUnits="userSpaceOnUse"><stop offset="0" stop-color="#534741"/><stop offset="1" stop-color="#d1985c"/></linearGradient><linearGradient id="g" x1="87.5" y1="26.55" x2="40.75" y2="3.3" xlink:href="#f"/><linearGradient id="h" x1="87.76" y1="26.03" x2="41.01" y2="2.78" xlink:href="#f"/><linearGradient id="i" x1="88.01" y1="25.52" x2="41.26" y2="2.27" xlink:href="#f"/><linearGradient id="j" x1="88.27" y1="25" x2="41.52" y2="1.75" xlink:href="#f"/></defs><title>Ruler_2</title><path class="a" d="M52,2,96.34,27.58H8Zm0,9L34.53,21.21H69.75L52.08,11"/><g class="b"><polygon class="c" points="61.75 19.21 56.09 19.21 44.07 12.27 44.08 9.01 61.75 19.21"/><polygon class="d" points="44.08 9.01 44.07 12.27 32.13 19.21 26.53 19.21 44.08 9.01"/><path class="e" d="M44,0,88.34,25.58H0Zm0,9L26.53,19.21H61.75L44.08,9"/><polygon class="f" points="88.34 25.58 88.33 28.84 0 28.84 0.01 25.58 88.34 25.58"/></g><g class="b"><polyline class="g" points="79.84 22.3 78.42 21.49 76.31 22.71 77.73 23.53 79.84 22.3"/><polyline class="h" points="71.78 17.65 70.36 16.83 68.25 18.06 69.67 18.88 71.78 17.65"/><polyline class="i" points="63.72 13 62.3 12.18 60.19 13.41 61.6 14.22 63.72 13"/><polyline class="j" points="55.65 8.34 54.24 7.52 52.12 8.75 53.54 9.57 55.65 8.34"/><polyline class="k" points="47.59 3.69 46.17 2.87 44.06 4.09 45.48 4.91 47.59 3.69"/></g></svg>