<svg xmlns="http://www.w3.org/2000/svg" xmlns:xlink="http://www.w3.org/1999/xlink" viewBox="0 0 52.31 54.43"><defs><style>.a{fill:url(#a);}.b{isolation:isolate;}.c{fill:url(#b);}.d{fill:url(#c);}.e{fill:url(#d);}.f{fill:url(#e);}.g{fill:url(#f);}.h{fill:url(#g);}.i{fill:url(#h);}.j{fill:url(#i);}</style><linearGradient id="a" x1="-13.82" y1="42.07" x2="39.84" y2="7.56" gradientUnits="userSpaceOnUse"><stop offset="0" stop-color="#292376"/><stop offset="1" stop-color="#5d278f" stop-opacity="0"/></linearGradient><linearGradient id="b" x1="11.08" y1="21.3" x2="28.75" y2="21.3" gradientUnits="userSpaceOnUse"><stop offset="0" stop-color="#00a8ff"/><stop offset="1" stop-color="#1feaec"/></linearGradient><linearGradient id="c" y1="25.58" x2="44.31" y2="25.58" gradientUnits="userSpaceOnUse"><stop offset="0" stop-color="#c4e138"/><stop offset="1" stop-color="#25e581"/></linearGradient><linearGradient id="d" x1="0.27" y1="40.01" x2="44.31" y2="40.01" xlink:href="#b"/><linearGradient id="e" x1="2.54" y1="46.93" x2="43.41" y2="23.93" gradientUnits="userSpaceOnUse"><stop offset="0" stop-color="#1feaec"/><stop offset="1" stop-color="#00a8ff"/></linearGradient><linearGradient id="f" x1="2.47" y1="46.82" x2="43.35" y2="23.82" xlink:href="#e"/><linearGradient id="g" x1="2.41" y1="46.7" x2="43.29" y2="23.7" xlink:href="#e"/><linearGradient id="h" x1="2.35" y1="46.59" x2="43.22" y2="23.59" xlink:href="#e"/><linearGradient id="i" x1="2.29" y1="46.48" x2="43.16" y2="23.48" xlink:href="#e"/></defs><title>Ruler_1</title><path class="a" d="M8,1,52.31,26.58l-41,23.85a2,2,0,0,1-3-1.72ZM19.2,36.79l17.55-10.2L19.08,16.39l.12,20.4"/><g class="b"><polygon class="c" points="28.75 25.59 25.91 27.21 11.1 18.66 11.08 15.39 28.75 25.59"/><path class="d" d="M0,0,44.31,25.58.28,51.17ZM11.2,35.79l17.55-10.2L11.08,15.39l.12,20.4"/><polygon class="e" points="44.31 25.58 44.3 28.84 0.27 54.43 0.28 51.17 44.31 25.58"/></g><g class="b"><polyline class="f" points="7.33 45.43 5.2 44.2 3.79 45.02 5.92 46.25 7.33 45.43"/><polyline class="g" points="15.34 40.78 13.21 39.55 11.8 40.37 13.92 41.6 15.34 40.78"/><polyline class="h" points="23.34 36.13 21.22 34.9 19.81 35.72 21.93 36.94 23.34 36.13"/><polyline class="i" points="31.35 31.47 29.23 30.24 27.82 31.06 29.95 32.29 31.35 31.47"/><polyline class="j" points="39.37 26.81 37.24 25.59 35.83 26.4 37.96 27.63 39.37 26.81"/></g></svg>