<svg xmlns="http://www.w3.org/2000/svg" xmlns:xlink="http://www.w3.org/1999/xlink" viewBox="0 0 114.41 70.94"><defs><style>.a{fill:url(#a);}.b{isolation:isolate;}.c{fill:url(#b);}.d{fill:url(#c);}.e{fill:url(#d);}.f{fill:url(#e);}.g{fill:url(#f);}.h{fill:url(#g);}</style><linearGradient id="a" x1="37.2" y1="50.29" x2="120.7" y2="15.79" gradientUnits="userSpaceOnUse"><stop offset="0" stop-color="#292376"/><stop offset="1" stop-color="#5d278f" stop-opacity="0"/></linearGradient><linearGradient id="b" x1="16.06" y1="50.55" x2="111.35" y2="13.72" gradientUnits="userSpaceOnUse"><stop offset="0" stop-color="#fef100"/><stop offset="1" stop-color="#e3d321"/></linearGradient><linearGradient id="c" x1="14.69" y1="45.2" x2="110.44" y2="8.2" xlink:href="#b"/><linearGradient id="d" x1="102.74" y1="30.47" x2="12.99" y2="54.87" gradientUnits="userSpaceOnUse"><stop offset="0" stop-color="#ffede0"/><stop offset="0.97" stop-color="#fff"/></linearGradient><linearGradient id="e" x1="106.02" y1="30.3" x2="9.45" y2="56.56" xlink:href="#b"/><linearGradient id="f" x1="103.97" y1="21.02" x2="18.1" y2="72.52" gradientUnits="userSpaceOnUse"><stop offset="0" stop-color="#534741"/><stop offset="1" stop-color="#d1985c"/></linearGradient><linearGradient id="g" x1="59.22" y1="34.84" x2="16.6" y2="35.59" xlink:href="#d"/></defs><title>Sketchbook</title><path class="a" d="M70.75,10.39a2,2,0,0,0-2-.2L8.83,44a2,2,0,0,1,2,.19L53.19,68.65a5,5,0,0,0,5,0l55.62-32.32a1.2,1.2,0,0,0,0-2.07Z"/><g class="b"><path class="c" d="M105.8,33.23,63.4,8.76A3.1,3.1,0,0,1,62,6.3V3.21a1,1,0,0,1,.41-.91L2.5,37.12a1,1,0,0,0-.42.9v3.1a3.13,3.13,0,0,0,1.41,2.45L45.17,67.64a5,5,0,0,0,5,0L105.8,35.31A1.21,1.21,0,0,0,105.8,33.23Z"/><path class="d" d="M62.75.39a2,2,0,0,0-2-.2L.83,34a2,2,0,0,1,2,.19L45.19,58.65a5,5,0,0,0,5,0l55.62-32.32a1.2,1.2,0,0,0,0-2.07Z"/><path class="e" d="M103.65,34.23a1.2,1.2,0,0,1-.59,1L50.74,65.67a5,5,0,0,1-5,0L5.46,42.43A3.1,3.1,0,0,1,4.05,40V36.88A1,1,0,0,1,4.46,36a1,1,0,0,1,1,.1L45.74,59.32a5,5,0,0,0,5,0l52.32-30.4a1.17,1.17,0,0,0,.59-1Z"/></g><path class="f" d="M3.5,37.21,45.19,61.28a5,5,0,0,0,5,0L105.81,29a1.18,1.18,0,0,0,.6-1V25.29a1.19,1.19,0,0,1-.59,1L50.2,58.64a5,5,0,0,1-5,0L2.85,34.2C1.28,33.3,0,34,0,35.82v5.1a6.23,6.23,0,0,0,2.83,4.9L45.17,70.27a5,5,0,0,0,5,0l55.61-32.32a1.19,1.19,0,0,0,.6-1V34.27a1.18,1.18,0,0,1-.6,1L50.19,67.63a5,5,0,0,1-5,0L3.49,43.57a3.13,3.13,0,0,1-1.41-2.45V38C2.09,37.12,2.73,36.76,3.5,37.21Z"/><path class="g" d="M41.18,63.8a.75.75,0,0,1-.71-.5l-1.36-4a7.68,7.68,0,0,1-.41-2.51v-.89a1.75,1.75,0,0,1,.86-1.51L99.05,19.83a.75.75,0,1,1,.76,1.29L40.32,55.69a.25.25,0,0,0-.12.22v.89a6.29,6.29,0,0,0,.33,2l1.36,4a.74.74,0,0,1-.46.95A.73.73,0,0,1,41.18,63.8Z"/><polygon class="h" points="14.24 33.2 29.12 24.56 51.37 37.41 36.5 46.05 14.24 33.2"/></svg>