<svg xmlns="http://www.w3.org/2000/svg" xmlns:xlink="http://www.w3.org/1999/xlink" viewBox="0 0 51.19 34.17"><defs><style>.a{fill:url(#a);}.b{fill:url(#b);}.c{fill:url(#c);}.d{fill:url(#d);}.e{isolation:isolate;}.f{fill:url(#e);}.g{fill:url(#f);}</style><linearGradient id="a" x1="11.41" y1="27.5" x2="57.53" y2="8.25" gradientUnits="userSpaceOnUse"><stop offset="0" stop-color="#292376"/><stop offset="1" stop-color="#5d278f" stop-opacity="0"/></linearGradient><linearGradient id="b" x1="12.83" y1="11.68" x2="41.77" y2="11.68" gradientUnits="userSpaceOnUse"><stop offset="0" stop-color="#d79c8b"/><stop offset="1" stop-color="#dbd2a5"/></linearGradient><linearGradient id="c" x1="2.51" y1="21.88" x2="21.22" y2="21.88" xlink:href="#b"/><linearGradient id="d" x1="-12.9" y1="23.09" x2="14.2" y2="23.09" gradientUnits="userSpaceOnUse"><stop offset="0" stop-color="#5d278f"/><stop offset="1" stop-color="#292376"/></linearGradient><linearGradient id="e" x1="2.36" y1="23.48" x2="15.25" y2="23.48" gradientUnits="userSpaceOnUse"><stop offset="0" stop-color="#292376"/><stop offset="1" stop-color="#5d278f"/></linearGradient><linearGradient id="f" x1="0.45" y1="24.2" x2="13.5" y2="24.2" xlink:href="#d"/></defs><title>Stamp</title><path class="a" d="M48.54,8.29c-.29-.16-.61-.32-1-.48A13.19,13.19,0,0,0,39.49,7c-3.75.78-5.82,2.5-6.22,4.32-.56,2.55-2.61,4.9-5.72,6.71l-9.21,5.35c-3.66-1.62-9.9-1-13.41,1.07l13.88,8c1.28.73,5.35-.77,6-2.08.78-1.5-.23-3-2.19-4.52l9.2-5.35A29.78,29.78,0,0,1,43.7,17.11a12,12,0,0,0,4.87-1.45c3.5-2,3.49-5.33,0-7.37"/><path class="b" d="M41.77,8.93c0-5.16-4.5-8.93-9.32-8.93C29.28,0,26,1.64,23.75,5.59A2.21,2.21,0,0,1,24,5.23c-3.24,4.47-2,4.58-11.15,9.92a1.78,1.78,0,0,1,.89-.24c2.11,0,4.87,3.26,4.87,6.28a2.38,2.38,0,0,1-1,2.17c4.43-2.58,7.45-4.75,13.6-4.75h.31C37.51,18.61,41.77,14.39,41.77,8.93Z"/><path class="c" d="M21.22,24.26c0-7.09-6.1-14.09-12.13-14.09-2.91,0-5.1,1.57-6.58,2.42A4.59,4.59,0,0,1,4.79,12c5.38,0,12.44,8.31,12.44,16,0,2.72-1,4.65-2.52,5.55l2.16-1.25A9.08,9.08,0,0,0,21.22,24.26Z"/><path class="d" d="M0,18.15C0,14.27,1.94,12,4.78,12c5.67,0,12.45,8.62,12.45,16,0,3.87-1.94,6.13-4.78,6.13C6.77,34.17,0,25.54,0,18.15Z"/><g class="e"><path class="f" d="M8.75,15.69c-1.82-1-3.46-1.14-4.65-.45l-1.74,1c1.18-.69,2.83-.59,4.64.46A14.31,14.31,0,0,1,13.5,28c0,2.06-.73,3.51-1.9,4.19l1.75-1c1.17-.68,1.9-2.13,1.9-4.18A14.35,14.35,0,0,0,8.75,15.69Z"/><path class="g" d="M11.6,32.16c1.17-.68,1.9-2.13,1.9-4.19A14.31,14.31,0,0,0,7,16.71c-1.81-1.05-3.46-1.15-4.64-.46h0c-1.18.68-1.9,2.13-1.91,4.19A14.32,14.32,0,0,0,7,31.7c1.84,1.07,3.51,1.15,4.7.42Z"/></g></svg>