<svg xmlns="http://www.w3.org/2000/svg" xmlns:xlink="http://www.w3.org/1999/xlink" viewBox="0 0 61.78 51.21"><defs><style>.a{isolation:isolate;}.b{fill:url(#a);}.c{fill:url(#b);}.d{fill:url(#c);}.e{fill:url(#d);}.f{fill:url(#e);}.g{fill:url(#f);}.h{fill:url(#g);}.i{fill:#c5c5c5;}.j{fill:url(#h);}.k{fill:url(#i);}.l{fill:url(#j);}.m{fill:url(#k);}</style><linearGradient id="a" x1="16.06" y1="40.34" x2="63.69" y2="25.09" gradientUnits="userSpaceOnUse"><stop offset="0" stop-color="#292376"/><stop offset="1" stop-color="#5d278f" stop-opacity="0"/></linearGradient><linearGradient id="b" x1="-0.32" y1="16.9" x2="80.78" y2="12.94" gradientUnits="userSpaceOnUse"><stop offset="0" stop-color="#fef100"/><stop offset="1" stop-color="#b0e021"/></linearGradient><linearGradient id="c" x1="15.99" y1="10.05" x2="41.41" y2="26.53" xlink:href="#b"/><linearGradient id="d" x1="23.41" y1="21.34" x2="50.77" y2="36.73" gradientUnits="userSpaceOnUse"><stop offset="0" stop-color="#25e581"/><stop offset="1" stop-color="#60cb14"/></linearGradient><linearGradient id="e" x1="21.34" y1="28.97" x2="44.3" y2="37.33" gradientUnits="userSpaceOnUse"><stop offset="0" stop-color="#fbb78e"/><stop offset="1" stop-color="#e76384"/></linearGradient><linearGradient id="f" x1="26.97" y1="40.91" x2="53.78" y2="40.91" gradientUnits="userSpaceOnUse"><stop offset="0" stop-color="#fbb03b"/><stop offset="1" stop-color="#fa7419"/></linearGradient><linearGradient id="g" x1="-0.47" y1="16.51" x2="45.14" y2="47.06" xlink:href="#b"/><linearGradient id="h" x1="0" y1="30.88" x2="26.98" y2="30.88" xlink:href="#d"/><linearGradient id="i" x1="-2.24" y1="26.9" x2="28.31" y2="44.37" xlink:href="#e"/><linearGradient id="j" x1="26.97" y1="43.42" x2="53.76" y2="43.42" gradientUnits="userSpaceOnUse"><stop offset="0" stop-color="#fbb03b"/><stop offset="1" stop-color="#f15a24"/></linearGradient><linearGradient id="k" x1="0" y1="40.91" x2="26.98" y2="40.91" xlink:href="#f"/></defs><title>Stickpapers</title><g class="a"><path class="b" d="M61.78,34.57,37.49,48.69a5,5,0,0,1-5,0L8,34.57,34.81,19Z"/><polygon class="c" points="53.78 15.57 26.98 31.14 0.01 15.57 26.81 0 53.78 15.57"/><polygon class="d" points="53.78 15.57 53.76 20.59 26.97 36.16 26.98 31.14 53.78 15.57"/><polygon class="e" points="53.78 20.59 53.76 25.6 26.97 41.17 26.98 36.16 53.78 20.59"/><polygon class="f" points="53.78 25.6 53.76 30.62 26.97 46.19 26.98 41.17 53.78 25.6"/><polygon class="g" points="53.78 30.62 53.76 35.64 26.97 51.21 26.98 46.19 53.78 30.62"/><polygon class="h" points="26.98 31.14 26.97 36.16 0 20.59 0.01 15.57 26.98 31.14"/><line class="i" x1="53.76" y1="25.6" x2="26.97" y2="41.17"/><polygon class="j" points="26.98 36.16 26.97 41.17 0 25.6 0.01 20.59 26.98 36.16"/><line class="i" x1="53.76" y1="30.62" x2="26.97" y2="46.19"/><polygon class="k" points="26.98 41.17 26.97 46.19 0 30.62 0.01 25.6 26.98 41.17"/><line class="l" x1="53.76" y1="35.64" x2="26.97" y2="51.21"/><polygon class="m" points="26.98 46.19 26.97 51.21 0 35.64 0.01 30.62 26.98 46.19"/></g></svg>